<?xml version="1.0" encoding="UTF-8" standalone="no"?>
<!DOCTYPE svg PUBLIC "-//W3C//DTD SVG 1.1//EN"
 "http://www.w3.org/Graphics/SVG/1.1/DTD/svg11.dtd">
<!-- Generated by graphviz version 3.0.1~dev.20220405.0544 (20220405.0544)
 -->
<!-- Title: G Pages: 1 -->
<svg width="615pt" height="1127pt"
 viewBox="0.00 0.00 615.22 1127.06" xmlns="http://www.w3.org/2000/svg" xmlns:xlink="http://www.w3.org/1999/xlink">
<g id="graph0" class="graph" transform="scale(1 1) rotate(0) translate(4 1123.06)">
<title>G</title><style>.edge>path:hover{stroke-width:8}</style>
<polygon fill="white" stroke="transparent" points="-4,4 -4,-1123.06 611.22,-1123.06 611.22,4 -4,4"/>
<!-- svgen___main__ -->
<g id="node1" class="node">
<title>svgen___main__</title><style>.edge>path:hover{stroke-width:8}</style>
<ellipse fill="#ac4949" stroke="black" cx="355.3" cy="-18" rx="54" ry="18"/>
<text text-anchor="middle" x="355.3" y="-15" font-family="Helvetica,sans-Serif" font-size="10.00" fill="#ffffff">svgen.__main__</text>
</g>
<!-- svgen_app -->
<g id="node2" class="node">
<title>svgen_app</title><style>.edge>path:hover{stroke-width:8}</style>
<ellipse fill="#822b2b" stroke="black" cx="355.3" cy="-162" rx="37.24" ry="18"/>
<text text-anchor="middle" x="355.3" y="-159" font-family="Helvetica,sans-Serif" font-size="10.00" fill="#ffffff">svgen.app</text>
</g>
<!-- svgen_entry -->
<g id="node20" class="node">
<title>svgen_entry</title><style>.edge>path:hover{stroke-width:8}</style>
<ellipse fill="#b83d3d" stroke="black" cx="355.3" cy="-90" rx="40.92" ry="18"/>
<text text-anchor="middle" x="355.3" y="-87" font-family="Helvetica,sans-Serif" font-size="10.00" fill="#ffffff">svgen.entry</text>
</g>
<!-- svgen_app&#45;&gt;svgen_entry -->
<g id="edge1" class="edge">
<title>svgen_app&#45;&gt;svgen_entry</title><style>.edge>path:hover{stroke-width:8}</style>
<path fill="none" stroke="black" d="M355.3,-143.7C355.3,-135.98 355.3,-126.71 355.3,-118.11"/>
<polygon fill="#822b2b" stroke="black" points="358.8,-118.1 355.3,-108.1 351.8,-118.1 358.8,-118.1"/>
</g>
<!-- svgen_attribute -->
<g id="node3" class="node">
<title>svgen_attribute</title><style>.edge>path:hover{stroke-width:8}</style>
<ellipse fill="#f91010" stroke="black" cx="228.3" cy="-1087.95" rx="36.73" ry="22.76"/>
<text text-anchor="middle" x="228.3" y="-1090.95" font-family="Helvetica,sans-Serif" font-size="10.00" fill="#ffffff">svgen.</text>
<text text-anchor="middle" x="228.3" y="-1078.95" font-family="Helvetica,sans-Serif" font-size="10.00" fill="#ffffff">attribute</text>
</g>
<!-- svgen_attribute&#45;&gt;svgen_app -->
<g id="edge2" class="edge">
<title>svgen_attribute&#45;&gt;svgen_app</title><style>.edge>path:hover{stroke-width:8}</style>
<path fill="none" stroke="black" d="M231.35,-1065.16C233.4,-1045.4 234.7,-1015.64 228.3,-990.72"/>
<path fill="none" stroke="black" d="M228.3,-988.72C210.08,-917.76 126.64,-976.76 77.3,-922.61 5.87,-844.2 -1.16,-802.06 2.3,-696.04"/>
<path fill="none" stroke="black" d="M2.3,-694.04C4.13,-651.32 6.08,-640.42 2.3,-597.82"/>
<path fill="none" stroke="black" d="M2.3,-595.82C-13.2,-421.26 72.06,-385.82 161.3,-235"/>
<path fill="none" stroke="black" d="M161.3,-233C186.41,-179.98 258.84,-166.15 307.74,-163.07"/>
<polygon fill="#f91010" stroke="black" points="307.98,-166.56 317.79,-162.56 307.63,-159.57 307.98,-166.56"/>
</g>
<!-- svgen_cartesian -->
<g id="node6" class="node">
<title>svgen_cartesian</title><style>.edge>path:hover{stroke-width:8}</style>
<ellipse fill="#ef0606" stroke="black" cx="228.3" cy="-891.49" rx="40.01" ry="22.76"/>
<text text-anchor="middle" x="228.3" y="-894.49" font-family="Helvetica,sans-Serif" font-size="10.00" fill="#ffffff">svgen.</text>
<text text-anchor="middle" x="228.3" y="-882.49" font-family="Helvetica,sans-Serif" font-size="10.00" fill="#ffffff">cartesian</text>
</g>
<!-- svgen_attribute&#45;&gt;svgen_cartesian -->
<g id="edge3" class="edge">
<title>svgen_attribute&#45;&gt;svgen_cartesian</title><style>.edge>path:hover{stroke-width:8}</style>
<path fill="none" stroke="black" d="M228.3,-988.72C222.89,-967.8 222.94,-943.46 224.32,-924.49"/>
<polygon fill="#f91010" stroke="black" points="227.83,-924.56 225.23,-914.29 220.86,-923.94 227.83,-924.56"/>
</g>
<!-- svgen_cartesian_circle -->
<g id="node7" class="node">
<title>svgen_cartesian_circle</title><style>.edge>path:hover{stroke-width:8}</style>
<ellipse fill="#b03a3a" stroke="black" cx="338.3" cy="-596.82" rx="41.94" ry="31.23"/>
<text text-anchor="middle" x="338.3" y="-605.82" font-family="Helvetica,sans-Serif" font-size="10.00" fill="#ffffff">svgen.</text>
<text text-anchor="middle" x="338.3" y="-593.82" font-family="Helvetica,sans-Serif" font-size="10.00" fill="#ffffff">cartesian.</text>
<text text-anchor="middle" x="338.3" y="-581.82" font-family="Helvetica,sans-Serif" font-size="10.00" fill="#ffffff">circle</text>
</g>
<!-- svgen_attribute&#45;&gt;svgen_cartesian_circle -->
<g id="edge4" class="edge">
<title>svgen_attribute&#45;&gt;svgen_cartesian_circle</title><style>.edge>path:hover{stroke-width:8}</style>
<path fill="none" stroke="black" d="M338.3,-694.04C338.3,-675.78 338.3,-655.57 338.3,-638.41"/>
<polygon fill="#f91010" stroke="black" points="341.8,-638.16 338.3,-628.16 334.8,-638.16 341.8,-638.16"/>
</g>
<!-- svgen_cartesian_rectangle -->
<g id="node8" class="node">
<title>svgen_cartesian_rectangle</title><style>.edge>path:hover{stroke-width:8}</style>
<ellipse fill="#bc2f2f" stroke="black" cx="128.3" cy="-891.49" rx="41.94" ry="31.23"/>
<text text-anchor="middle" x="128.3" y="-900.49" font-family="Helvetica,sans-Serif" font-size="10.00" fill="#ffffff">svgen.</text>
<text text-anchor="middle" x="128.3" y="-888.49" font-family="Helvetica,sans-Serif" font-size="10.00" fill="#ffffff">cartesian.</text>
<text text-anchor="middle" x="128.3" y="-876.49" font-family="Helvetica,sans-Serif" font-size="10.00" fill="#ffffff">rectangle</text>
</g>
<!-- svgen_attribute&#45;&gt;svgen_cartesian_rectangle -->
<g id="edge5" class="edge">
<title>svgen_attribute&#45;&gt;svgen_cartesian_rectangle</title><style>.edge>path:hover{stroke-width:8}</style>
<path fill="none" stroke="black" d="M228.3,-988.72C220.29,-957.77 193.71,-933.05 169.97,-916.42"/>
<polygon fill="#f91010" stroke="black" points="171.65,-913.33 161.39,-910.66 167.74,-919.14 171.65,-913.33"/>
</g>
<!-- svgen_element -->
<g id="node15" class="node">
<title>svgen_element</title><style>.edge>path:hover{stroke-width:8}</style>
<ellipse fill="#e50505" stroke="black" cx="290.3" cy="-310.63" rx="48.96" ry="18"/>
<text text-anchor="middle" x="290.3" y="-307.63" font-family="Helvetica,sans-Serif" font-size="10.00" fill="#ffffff">svgen.element</text>
</g>
<!-- svgen_attribute&#45;&gt;svgen_element -->
<g id="edge6" class="edge">
<title>svgen_attribute&#45;&gt;svgen_element</title><style>.edge>path:hover{stroke-width:8}</style>
<path fill="none" stroke="black" d="M338.3,-694.04C338.3,-656.93 377.33,-663.06 389.3,-627.93 398.22,-601.75 394.4,-592.89 389.3,-565.71 386.14,-548.83 379.7,-546.3 375.3,-529.71 360.54,-473.97 383,-452.47 356.3,-401.37"/>
<path fill="none" stroke="black" d="M356.3,-399.37C343.27,-376.44 325.04,-352.67 311.05,-335.66"/>
<polygon fill="#f91010" stroke="black" points="313.65,-333.32 304.56,-327.89 308.28,-337.81 313.65,-333.32"/>
</g>
<!-- svgen_element_circle -->
<g id="node16" class="node">
<title>svgen_element_circle</title><style>.edge>path:hover{stroke-width:8}</style>
<ellipse fill="#883a3a" stroke="black" cx="230.3" cy="-498.59" rx="38.37" ry="31.23"/>
<text text-anchor="middle" x="230.3" y="-507.59" font-family="Helvetica,sans-Serif" font-size="10.00" fill="#ffffff">svgen.</text>
<text text-anchor="middle" x="230.3" y="-495.59" font-family="Helvetica,sans-Serif" font-size="10.00" fill="#ffffff">element.</text>
<text text-anchor="middle" x="230.3" y="-483.59" font-family="Helvetica,sans-Serif" font-size="10.00" fill="#ffffff">circle</text>
</g>
<!-- svgen_attribute&#45;&gt;svgen_element_circle -->
<g id="edge7" class="edge">
<title>svgen_attribute&#45;&gt;svgen_element_circle</title><style>.edge>path:hover{stroke-width:8}</style>
<path fill="none" stroke="black" d="M230.3,-595.82C218.35,-579.82 217.56,-557.79 220.11,-538.84"/>
<polygon fill="#f91010" stroke="black" points="223.56,-539.42 221.77,-528.98 216.66,-538.26 223.56,-539.42"/>
</g>
<!-- svgen_element_line -->
<g id="node17" class="node">
<title>svgen_element_line</title><style>.edge>path:hover{stroke-width:8}</style>
<ellipse fill="#9d4343" stroke="black" cx="258.3" cy="-695.04" rx="38.37" ry="31.23"/>
<text text-anchor="middle" x="258.3" y="-704.04" font-family="Helvetica,sans-Serif" font-size="10.00" fill="#ffffff">svgen.</text>
<text text-anchor="middle" x="258.3" y="-692.04" font-family="Helvetica,sans-Serif" font-size="10.00" fill="#ffffff">element.</text>
<text text-anchor="middle" x="258.3" y="-680.04" font-family="Helvetica,sans-Serif" font-size="10.00" fill="#ffffff">line</text>
</g>
<!-- svgen_attribute&#45;&gt;svgen_element_line -->
<g id="edge8" class="edge">
<title>svgen_attribute&#45;&gt;svgen_element_line</title><style>.edge>path:hover{stroke-width:8}</style>
<path fill="none" stroke="black" d="M228.3,-988.72C219.14,-953.31 258.47,-953.96 277.3,-922.61 309.81,-868.46 337.75,-857.42 338.3,-794.27"/>
<path fill="none" stroke="black" d="M338.3,-792.27C338.3,-763.37 316.71,-738.53 295.95,-721.32"/>
<polygon fill="#f91010" stroke="black" points="298.11,-718.56 288.09,-715.11 293.77,-724.06 298.11,-718.56"/>
</g>
<!-- svgen_element_rect -->
<g id="node18" class="node">
<title>svgen_element_rect</title><style>.edge>path:hover{stroke-width:8}</style>
<ellipse fill="#913030" stroke="black" cx="135.3" cy="-498.59" rx="38.37" ry="31.23"/>
<text text-anchor="middle" x="135.3" y="-507.59" font-family="Helvetica,sans-Serif" font-size="10.00" fill="#ffffff">svgen.</text>
<text text-anchor="middle" x="135.3" y="-495.59" font-family="Helvetica,sans-Serif" font-size="10.00" fill="#ffffff">element.</text>
<text text-anchor="middle" x="135.3" y="-483.59" font-family="Helvetica,sans-Serif" font-size="10.00" fill="#ffffff">rect</text>
</g>
<!-- svgen_attribute&#45;&gt;svgen_element_rect -->
<g id="edge9" class="edge">
<title>svgen_attribute&#45;&gt;svgen_element_rect</title><style>.edge>path:hover{stroke-width:8}</style>
<path fill="none" stroke="black" d="M338.3,-792.27C338.3,-749.5 338.3,-738.81 338.3,-696.04"/>
<path fill="none" stroke="black" d="M338.3,-694.04C338.3,-675.02 252.5,-636.97 244.3,-627.93 234.39,-617 239.13,-609.64 230.3,-597.82"/>
<path fill="none" stroke="black" d="M230.3,-595.82C220.06,-582.11 217.93,-578.26 206.3,-565.71 194.66,-553.13 181.06,-540.12 168.9,-528.99"/>
<polygon fill="#f91010" stroke="black" points="170.91,-526.09 161.15,-521.98 166.21,-531.28 170.91,-526.09"/>
</g>
<!-- svgen_element_svg -->
<g id="node19" class="node">
<title>svgen_element_svg</title><style>.edge>path:hover{stroke-width:8}</style>
<ellipse fill="#ac2b2b" stroke="black" cx="135.3" cy="-400.37" rx="38.37" ry="31.23"/>
<text text-anchor="middle" x="135.3" y="-409.37" font-family="Helvetica,sans-Serif" font-size="10.00" fill="#ffffff">svgen.</text>
<text text-anchor="middle" x="135.3" y="-397.37" font-family="Helvetica,sans-Serif" font-size="10.00" fill="#ffffff">element.</text>
<text text-anchor="middle" x="135.3" y="-385.37" font-family="Helvetica,sans-Serif" font-size="10.00" fill="#ffffff">svg</text>
</g>
<!-- svgen_attribute&#45;&gt;svgen_element_svg -->
<g id="edge10" class="edge">
<title>svgen_attribute&#45;&gt;svgen_element_svg</title><style>.edge>path:hover{stroke-width:8}</style>
<path fill="none" stroke="black" d="M2.3,-694.04C4.81,-648.41 53.78,-542.58 69.3,-499.59"/>
<path fill="none" stroke="black" d="M69.3,-497.59C78.16,-474.7 93.42,-451.92 107.03,-434.28"/>
<polygon fill="#f91010" stroke="black" points="110.08,-436.06 113.55,-426.05 104.6,-431.71 110.08,-436.06"/>
</g>
<!-- svgen_attribute_style -->
<g id="node4" class="node">
<title>svgen_attribute_style</title><style>.edge>path:hover{stroke-width:8}</style>
<ellipse fill="#b03a3a" stroke="black" cx="423.3" cy="-498.59" rx="38.66" ry="31.23"/>
<text text-anchor="middle" x="423.3" y="-507.59" font-family="Helvetica,sans-Serif" font-size="10.00" fill="#ffffff">svgen.</text>
<text text-anchor="middle" x="423.3" y="-495.59" font-family="Helvetica,sans-Serif" font-size="10.00" fill="#ffffff">attribute.</text>
<text text-anchor="middle" x="423.3" y="-483.59" font-family="Helvetica,sans-Serif" font-size="10.00" fill="#ffffff">style</text>
</g>
<!-- svgen_attribute_style&#45;&gt;svgen_element -->
<g id="edge11" class="edge">
<title>svgen_attribute_style&#45;&gt;svgen_element</title><style>.edge>path:hover{stroke-width:8}</style>
<path fill="none" stroke="black" d="M402.63,-471.79C388.3,-453.04 369.5,-426.63 356.3,-401.37"/>
</g>
<!-- svgen_attribute_viewbox -->
<g id="node5" class="node">
<title>svgen_attribute_viewbox</title><style>.edge>path:hover{stroke-width:8}</style>
<ellipse fill="#ca1616" stroke="black" cx="69.3" cy="-695.04" rx="38.66" ry="31.23"/>
<text text-anchor="middle" x="69.3" y="-704.04" font-family="Helvetica,sans-Serif" font-size="10.00" fill="#ffffff">svgen.</text>
<text text-anchor="middle" x="69.3" y="-692.04" font-family="Helvetica,sans-Serif" font-size="10.00" fill="#ffffff">attribute.</text>
<text text-anchor="middle" x="69.3" y="-680.04" font-family="Helvetica,sans-Serif" font-size="10.00" fill="#ffffff">viewbox</text>
</g>
<!-- svgen_attribute_viewbox&#45;&gt;svgen_app -->
<g id="edge12" class="edge">
<title>svgen_attribute_viewbox&#45;&gt;svgen_app</title><style>.edge>path:hover{stroke-width:8}</style>
<path fill="none" stroke="black" d="M43.54,-671.67C25.77,-653.81 4.89,-627.02 2.3,-597.82"/>
</g>
<!-- svgen_attribute_viewbox&#45;&gt;svgen_element_circle -->
<g id="edge13" class="edge">
<title>svgen_attribute_viewbox&#45;&gt;svgen_element_circle</title><style>.edge>path:hover{stroke-width:8}</style>
<path fill="none" stroke="black" d="M90.35,-668.62C119.16,-633.83 170.91,-571.32 202.77,-532.85"/>
<polygon fill="#ca1616" stroke="black" points="205.57,-534.95 209.25,-525.02 200.17,-530.49 205.57,-534.95"/>
</g>
<!-- svgen_attribute_viewbox&#45;&gt;svgen_element_rect -->
<g id="edge14" class="edge">
<title>svgen_attribute_viewbox&#45;&gt;svgen_element_rect</title><style>.edge>path:hover{stroke-width:8}</style>
<path fill="none" stroke="black" d="M78.3,-595.82C82.15,-572.78 94.97,-550.14 107.48,-532.62"/>
<polygon fill="#ca1616" stroke="black" points="110.4,-534.56 113.56,-524.44 104.78,-530.38 110.4,-534.56"/>
</g>
<!-- svgen_attribute_viewbox&#45;&gt;svgen_element_svg -->
<g id="edge15" class="edge">
<title>svgen_attribute_viewbox&#45;&gt;svgen_element_svg</title><style>.edge>path:hover{stroke-width:8}</style>
<path fill="none" stroke="black" d="M71.02,-663.56C72.37,-644.56 74.65,-619.66 78.3,-597.82"/>
<path fill="none" stroke="black" d="M78.3,-595.82C85.38,-553.45 54.71,-539.99 69.3,-499.59"/>
</g>
<!-- svgen_cartesian&#45;&gt;svgen_attribute_viewbox -->
<g id="edge16" class="edge">
<title>svgen_cartesian&#45;&gt;svgen_attribute_viewbox</title><style>.edge>path:hover{stroke-width:8}</style>
<path fill="none" stroke="black" d="M219.21,-869.44C211.19,-850.18 199.66,-820.73 192.3,-794.27"/>
<path fill="none" stroke="black" d="M192.3,-792.27C181.84,-754.63 144.18,-728.88 113.26,-713.55"/>
<polygon fill="#ef0606" stroke="black" points="114.46,-710.25 103.92,-709.13 111.46,-716.57 114.46,-710.25"/>
</g>
<!-- svgen_cartesian&#45;&gt;svgen_element_circle -->
<g id="edge17" class="edge">
<title>svgen_cartesian&#45;&gt;svgen_element_circle</title><style>.edge>path:hover{stroke-width:8}</style>
<path fill="none" stroke="black" d="M192.3,-595.82C191.29,-574.93 199.06,-553.14 207.83,-535.58"/>
<polygon fill="#ef0606" stroke="black" points="211.17,-536.77 212.76,-526.3 204.98,-533.49 211.17,-536.77"/>
</g>
<!-- svgen_cartesian&#45;&gt;svgen_element_line -->
<g id="edge18" class="edge">
<title>svgen_cartesian&#45;&gt;svgen_element_line</title><style>.edge>path:hover{stroke-width:8}</style>
<path fill="none" stroke="black" d="M192.3,-792.27C185.07,-766.25 203.26,-741.24 222.37,-723.24"/>
<polygon fill="#ef0606" stroke="black" points="224.84,-725.73 229.96,-716.45 220.17,-720.5 224.84,-725.73"/>
</g>
<!-- svgen_cartesian&#45;&gt;svgen_element_rect -->
<g id="edge19" class="edge">
<title>svgen_cartesian&#45;&gt;svgen_element_rect</title><style>.edge>path:hover{stroke-width:8}</style>
<path fill="none" stroke="black" d="M192.3,-792.27C169.15,-709 196.47,-684.14 192.3,-597.82"/>
<path fill="none" stroke="black" d="M192.3,-595.82C191.88,-572.13 178.91,-549.16 165.45,-531.6"/>
<polygon fill="#ef0606" stroke="black" points="167.86,-529.02 158.85,-523.44 162.42,-533.42 167.86,-529.02"/>
</g>
<!-- svgen_cartesian_circle&#45;&gt;svgen_element_circle -->
<g id="edge20" class="edge">
<title>svgen_cartesian_circle&#45;&gt;svgen_element_circle</title><style>.edge>path:hover{stroke-width:8}</style>
<path fill="none" stroke="black" d="M311.88,-572.28C297.31,-559.3 279.08,-543.05 263.55,-529.21"/>
<polygon fill="#b03a3a" stroke="black" points="265.5,-526.27 255.7,-522.23 260.84,-531.49 265.5,-526.27"/>
</g>
<!-- svgen_cartesian_rectangle&#45;&gt;svgen_attribute_viewbox -->
<g id="edge21" class="edge">
<title>svgen_cartesian_rectangle&#45;&gt;svgen_attribute_viewbox</title><style>.edge>path:hover{stroke-width:8}</style>
<path fill="none" stroke="black" d="M133.97,-860.52C136.79,-841.5 139.05,-816.39 136.3,-794.27"/>
<path fill="none" stroke="black" d="M136.3,-792.27C133.19,-767.22 117.37,-743.86 101.88,-726.43"/>
<polygon fill="#bc2f2f" stroke="black" points="104.21,-723.79 94.84,-718.85 99.09,-728.56 104.21,-723.79"/>
</g>
<!-- svgen_cartesian_rectangle&#45;&gt;svgen_element_rect -->
<g id="edge22" class="edge">
<title>svgen_cartesian_rectangle&#45;&gt;svgen_element_rect</title><style>.edge>path:hover{stroke-width:8}</style>
<path fill="none" stroke="black" d="M136.3,-792.27C125.17,-702.74 129,-596.61 132.39,-539.97"/>
<polygon fill="#bc2f2f" stroke="black" points="135.9,-539.86 133.04,-529.66 128.92,-539.42 135.9,-539.86"/>
</g>
<!-- svgen_color -->
<g id="node9" class="node">
<title>svgen_color</title><style>.edge>path:hover{stroke-width:8}</style>
<ellipse fill="#d10505" stroke="black" cx="450.3" cy="-695.04" rx="40.25" ry="18"/>
<text text-anchor="middle" x="450.3" y="-692.04" font-family="Helvetica,sans-Serif" font-size="10.00" fill="#ffffff">svgen.color</text>
</g>
<!-- svgen_color&#45;&gt;svgen_attribute_style -->
<g id="edge23" class="edge">
<title>svgen_color&#45;&gt;svgen_attribute_style</title><style>.edge>path:hover{stroke-width:8}</style>
<path fill="none" stroke="black" d="M455.11,-677.12C461.38,-652.27 470.45,-604.63 460.3,-565.71 457.53,-555.1 452.65,-544.39 447.31,-534.77"/>
<polygon fill="#d10505" stroke="black" points="450.2,-532.77 442.11,-525.92 444.16,-536.31 450.2,-532.77"/>
</g>
<!-- svgen_color&#45;&gt;svgen_element_circle -->
<g id="edge24" class="edge">
<title>svgen_color&#45;&gt;svgen_element_circle</title><style>.edge>path:hover{stroke-width:8}</style>
<path fill="none" stroke="black" d="M446.34,-676.72C439.31,-649.61 422.18,-597 389.3,-565.71 358.26,-536.16 312.12,-518.98 277.53,-509.57"/>
<polygon fill="#d10505" stroke="black" points="278.21,-506.13 267.65,-507.01 276.46,-512.91 278.21,-506.13"/>
</g>
<!-- svgen_color&#45;&gt;svgen_element_rect -->
<g id="edge25" class="edge">
<title>svgen_color&#45;&gt;svgen_element_rect</title><style>.edge>path:hover{stroke-width:8}</style>
<path fill="none" stroke="black" d="M418.64,-683.63C377.45,-669.68 308.27,-644.74 287.3,-627.93 261.07,-606.91 268.91,-588.61 244.3,-565.71 221.26,-544.26 210.19,-546.07 183.3,-529.71 180.18,-527.8 176.95,-525.82 173.71,-523.82"/>
<polygon fill="#d10505" stroke="black" points="175.52,-520.82 165.18,-518.51 171.82,-526.77 175.52,-520.82"/>
</g>
<!-- svgen_color_alpha -->
<g id="node10" class="node">
<title>svgen_color_alpha</title><style>.edge>path:hover{stroke-width:8}</style>
<ellipse fill="#bc2f2f" stroke="black" cx="449.3" cy="-989.72" rx="32.29" ry="31.23"/>
<text text-anchor="middle" x="449.3" y="-998.72" font-family="Helvetica,sans-Serif" font-size="10.00" fill="#ffffff">svgen.</text>
<text text-anchor="middle" x="449.3" y="-986.72" font-family="Helvetica,sans-Serif" font-size="10.00" fill="#ffffff">color.</text>
<text text-anchor="middle" x="449.3" y="-974.72" font-family="Helvetica,sans-Serif" font-size="10.00" fill="#ffffff">alpha</text>
</g>
<!-- svgen_color_hsl -->
<g id="node12" class="node">
<title>svgen_color_hsl</title><style>.edge>path:hover{stroke-width:8}</style>
<ellipse fill="#b42d2d" stroke="black" cx="399.3" cy="-891.49" rx="32.29" ry="31.23"/>
<text text-anchor="middle" x="399.3" y="-900.49" font-family="Helvetica,sans-Serif" font-size="10.00" fill="#ffffff">svgen.</text>
<text text-anchor="middle" x="399.3" y="-888.49" font-family="Helvetica,sans-Serif" font-size="10.00" fill="#ffffff">color.</text>
<text text-anchor="middle" x="399.3" y="-876.49" font-family="Helvetica,sans-Serif" font-size="10.00" fill="#ffffff">hsl</text>
</g>
<!-- svgen_color_alpha&#45;&gt;svgen_color_hsl -->
<g id="edge26" class="edge">
<title>svgen_color_alpha&#45;&gt;svgen_color_hsl</title><style>.edge>path:hover{stroke-width:8}</style>
<path fill="none" stroke="black" d="M435.24,-961.66C429.91,-951.41 423.76,-939.57 418.07,-928.62"/>
<polygon fill="#bc2f2f" stroke="black" points="421.15,-926.94 413.43,-919.69 414.93,-930.17 421.15,-926.94"/>
</g>
<!-- svgen_color_rgb -->
<g id="node14" class="node">
<title>svgen_color_rgb</title><style>.edge>path:hover{stroke-width:8}</style>
<ellipse fill="#b42d2d" stroke="black" cx="500.3" cy="-891.49" rx="32.29" ry="31.23"/>
<text text-anchor="middle" x="500.3" y="-900.49" font-family="Helvetica,sans-Serif" font-size="10.00" fill="#ffffff">svgen.</text>
<text text-anchor="middle" x="500.3" y="-888.49" font-family="Helvetica,sans-Serif" font-size="10.00" fill="#ffffff">color.</text>
<text text-anchor="middle" x="500.3" y="-876.49" font-family="Helvetica,sans-Serif" font-size="10.00" fill="#ffffff">rgb</text>
</g>
<!-- svgen_color_alpha&#45;&gt;svgen_color_rgb -->
<g id="edge27" class="edge">
<title>svgen_color_alpha&#45;&gt;svgen_color_rgb</title><style>.edge>path:hover{stroke-width:8}</style>
<path fill="none" stroke="black" d="M463.64,-961.66C469.07,-951.41 475.35,-939.57 481.15,-928.62"/>
<polygon fill="#bc2f2f" stroke="black" points="484.3,-930.16 485.89,-919.69 478.11,-926.88 484.3,-930.16"/>
</g>
<!-- svgen_color_conversion -->
<g id="node11" class="node">
<title>svgen_color_conversion</title><style>.edge>path:hover{stroke-width:8}</style>
<ellipse fill="#a83838" stroke="black" cx="450.3" cy="-793.27" rx="45.52" ry="31.23"/>
<text text-anchor="middle" x="450.3" y="-802.27" font-family="Helvetica,sans-Serif" font-size="10.00" fill="#ffffff">svgen.</text>
<text text-anchor="middle" x="450.3" y="-790.27" font-family="Helvetica,sans-Serif" font-size="10.00" fill="#ffffff">color.</text>
<text text-anchor="middle" x="450.3" y="-778.27" font-family="Helvetica,sans-Serif" font-size="10.00" fill="#ffffff">conversion</text>
</g>
<!-- svgen_color_conversion&#45;&gt;svgen_color -->
<g id="edge28" class="edge">
<title>svgen_color_conversion&#45;&gt;svgen_color</title><style>.edge>path:hover{stroke-width:8}</style>
<path fill="none" stroke="black" d="M450.3,-762.09C450.3,-749.76 450.3,-735.61 450.3,-723.58"/>
<polygon fill="#a83838" stroke="black" points="453.8,-723.23 450.3,-713.23 446.8,-723.23 453.8,-723.23"/>
</g>
<!-- svgen_color_hsl&#45;&gt;svgen_color -->
<g id="edge29" class="edge">
<title>svgen_color_hsl&#45;&gt;svgen_color</title><style>.edge>path:hover{stroke-width:8}</style>
<path fill="none" stroke="black" d="M392.34,-860.98C387.45,-834.33 383.63,-794.44 395.3,-762.16 401.3,-745.57 413.47,-730.21 424.84,-718.49"/>
<polygon fill="#b42d2d" stroke="black" points="427.45,-720.83 432.13,-711.32 422.54,-715.84 427.45,-720.83"/>
</g>
<!-- svgen_color_hsl&#45;&gt;svgen_color_conversion -->
<g id="edge30" class="edge">
<title>svgen_color_hsl&#45;&gt;svgen_color_conversion</title><style>.edge>path:hover{stroke-width:8}</style>
<path fill="none" stroke="black" d="M413.64,-863.43C418.84,-853.63 424.8,-842.38 430.39,-831.83"/>
<polygon fill="#b42d2d" stroke="black" points="433.59,-833.28 435.18,-822.8 427.4,-830 433.59,-833.28"/>
</g>
<!-- svgen_color_numbers -->
<g id="node13" class="node">
<title>svgen_color_numbers</title><style>.edge>path:hover{stroke-width:8}</style>
<ellipse fill="#db2f2f" stroke="black" cx="449.3" cy="-1087.95" rx="38.65" ry="31.23"/>
<text text-anchor="middle" x="449.3" y="-1096.95" font-family="Helvetica,sans-Serif" font-size="10.00" fill="#ffffff">svgen.</text>
<text text-anchor="middle" x="449.3" y="-1084.95" font-family="Helvetica,sans-Serif" font-size="10.00" fill="#ffffff">color.</text>
<text text-anchor="middle" x="449.3" y="-1072.95" font-family="Helvetica,sans-Serif" font-size="10.00" fill="#ffffff">numbers</text>
</g>
<!-- svgen_color_numbers&#45;&gt;svgen_color_alpha -->
<g id="edge31" class="edge">
<title>svgen_color_numbers&#45;&gt;svgen_color_alpha</title><style>.edge>path:hover{stroke-width:8}</style>
<path fill="none" stroke="black" d="M449.3,-1056.76C449.3,-1048.69 449.3,-1039.83 449.3,-1031.3"/>
<polygon fill="#db2f2f" stroke="black" points="452.8,-1031.13 449.3,-1021.13 445.8,-1031.13 452.8,-1031.13"/>
</g>
<!-- svgen_color_numbers&#45;&gt;svgen_color_hsl -->
<g id="edge32" class="edge">
<title>svgen_color_numbers&#45;&gt;svgen_color_hsl</title><style>.edge>path:hover{stroke-width:8}</style>
<path fill="none" stroke="black" d="M429.18,-1061.07C421.23,-1049.42 412.91,-1035.1 408.3,-1020.83 399.1,-992.35 397.06,-958.51 397.21,-932.73"/>
<polygon fill="#db2f2f" stroke="black" points="400.72,-932.63 397.39,-922.57 393.72,-932.51 400.72,-932.63"/>
</g>
<!-- svgen_color_numbers&#45;&gt;svgen_color_rgb -->
<g id="edge33" class="edge">
<title>svgen_color_numbers&#45;&gt;svgen_color_rgb</title><style>.edge>path:hover{stroke-width:8}</style>
<path fill="none" stroke="black" d="M469.37,-1061.05C477.31,-1049.4 485.64,-1035.08 490.3,-1020.83 499.62,-992.37 501.92,-958.53 502,-932.74"/>
<polygon fill="#db2f2f" stroke="black" points="505.5,-932.55 501.92,-922.58 498.5,-932.61 505.5,-932.55"/>
</g>
<!-- svgen_color_rgb&#45;&gt;svgen_color -->
<g id="edge34" class="edge">
<title>svgen_color_rgb&#45;&gt;svgen_color</title><style>.edge>path:hover{stroke-width:8}</style>
<path fill="none" stroke="black" d="M507.61,-860.99C512.8,-834.33 516.98,-794.45 505.3,-762.16 499.3,-745.57 487.13,-730.21 475.76,-718.49"/>
<polygon fill="#b42d2d" stroke="black" points="478.06,-715.84 468.47,-711.32 473.15,-720.83 478.06,-715.84"/>
</g>
<!-- svgen_color_rgb&#45;&gt;svgen_color_conversion -->
<g id="edge35" class="edge">
<title>svgen_color_rgb&#45;&gt;svgen_color_conversion</title><style>.edge>path:hover{stroke-width:8}</style>
<path fill="none" stroke="black" d="M486.24,-863.43C481.15,-853.63 475.3,-842.38 469.82,-831.83"/>
<polygon fill="#b42d2d" stroke="black" points="472.84,-830.06 465.13,-822.8 466.63,-833.29 472.84,-830.06"/>
</g>
<!-- svgen_element&#45;&gt;svgen_app -->
<g id="edge36" class="edge">
<title>svgen_element&#45;&gt;svgen_app</title><style>.edge>path:hover{stroke-width:8}</style>
<path fill="none" stroke="black" d="M246.8,-302.41C201.27,-292.74 139.23,-272.3 161.3,-235"/>
</g>
<!-- svgen_script -->
<g id="node21" class="node">
<title>svgen_script</title><style>.edge>path:hover{stroke-width:8}</style>
<ellipse fill="#913030" stroke="black" cx="355.3" cy="-234" rx="41.91" ry="18"/>
<text text-anchor="middle" x="355.3" y="-231" font-family="Helvetica,sans-Serif" font-size="10.00" fill="#ffffff">svgen.script</text>
</g>
<!-- svgen_element&#45;&gt;svgen_script -->
<g id="edge37" class="edge">
<title>svgen_element&#45;&gt;svgen_script</title><style>.edge>path:hover{stroke-width:8}</style>
<path fill="none" stroke="black" d="M304.73,-293.07C313.51,-282.98 324.89,-269.92 334.62,-258.74"/>
<polygon fill="#e50505" stroke="black" points="337.43,-260.84 341.36,-251 332.15,-256.25 337.43,-260.84"/>
</g>
<!-- svgen_element_rect&#45;&gt;svgen_element_svg -->
<g id="edge38" class="edge">
<title>svgen_element_rect&#45;&gt;svgen_element_svg</title><style>.edge>path:hover{stroke-width:8}</style>
<path fill="none" stroke="black" d="M135.3,-467.41C135.3,-459.34 135.3,-450.48 135.3,-441.95"/>
<polygon fill="#913030" stroke="black" points="138.8,-441.77 135.3,-431.77 131.8,-441.77 138.8,-441.77"/>
</g>
<!-- svgen_element_svg&#45;&gt;svgen_app -->
<g id="edge39" class="edge">
<title>svgen_element_svg&#45;&gt;svgen_app</title><style>.edge>path:hover{stroke-width:8}</style>
<path fill="none" stroke="black" d="M139.54,-369.39C143.15,-351.47 149.69,-328.9 161.3,-311.63"/>
<path fill="none" stroke="black" d="M161.3,-309.63C179.81,-282.11 144.41,-263.55 161.3,-235"/>
</g>
<!-- svgen_element_svg&#45;&gt;svgen_script -->
<g id="edge40" class="edge">
<title>svgen_element_svg&#45;&gt;svgen_script</title><style>.edge>path:hover{stroke-width:8}</style>
<path fill="none" stroke="black" d="M161.3,-309.63C192.76,-262.86 258.04,-245.38 304.17,-238.86"/>
<polygon fill="#ac2b2b" stroke="black" points="304.81,-242.31 314.28,-237.56 303.92,-235.36 304.81,-242.31"/>
</g>
<!-- svgen_entry&#45;&gt;svgen___main__ -->
<g id="edge41" class="edge">
<title>svgen_entry&#45;&gt;svgen___main__</title><style>.edge>path:hover{stroke-width:8}</style>
<path fill="none" stroke="black" d="M355.3,-71.7C355.3,-63.98 355.3,-54.71 355.3,-46.11"/>
<polygon fill="#b83d3d" stroke="black" points="358.8,-46.1 355.3,-36.1 351.8,-46.1 358.8,-46.1"/>
</g>
<!-- svgen_script&#45;&gt;svgen_app -->
<g id="edge42" class="edge">
<title>svgen_script&#45;&gt;svgen_app</title><style>.edge>path:hover{stroke-width:8}</style>
<path fill="none" stroke="black" d="M355.3,-215.7C355.3,-207.98 355.3,-198.71 355.3,-190.11"/>
<polygon fill="#913030" stroke="black" points="358.8,-190.1 355.3,-180.1 351.8,-190.1 358.8,-190.1"/>
</g>
<!-- vcorelib -->
<g id="node22" class="node">
<title>vcorelib</title><style>.edge>path:hover{stroke-width:8}</style>
<ellipse fill="#3bcece" stroke="black" cx="553.3" cy="-400.37" rx="30.19" ry="18"/>
<text text-anchor="middle" x="553.3" y="-397.37" font-family="Helvetica,sans-Serif" font-size="10.00" fill="#000000">vcorelib</text>
</g>
<!-- vcorelib&#45;&gt;svgen_app -->
<g id="edge43" class="edge">
<title>vcorelib&#45;&gt;svgen_app</title><style>.edge>path:hover{stroke-width:8}</style>
<path fill="none" stroke="black" d="M569.3,-309.63C556.8,-278.91 588.48,-262.06 569.3,-235"/>
</g>
<!-- vcorelib&#45;&gt;svgen_script -->
<g id="edge44" class="edge">
<title>vcorelib&#45;&gt;svgen_script</title><style>.edge>path:hover{stroke-width:8}</style>
<path fill="none" stroke="black" d="M561.58,-382.96C569.5,-364.9 578.93,-335.29 569.3,-311.63"/>
<path fill="none" stroke="black" d="M569.3,-309.63C556.4,-277.93 462.24,-254.86 403.2,-243.32"/>
<polygon fill="#3bcece" stroke="black" points="403.8,-239.87 393.32,-241.43 402.49,-246.75 403.8,-239.87"/>
</g>
<!-- vcorelib_dict -->
<g id="node23" class="node">
<title>vcorelib_dict</title><style>.edge>path:hover{stroke-width:8}</style>
<ellipse fill="#3bcece" stroke="black" cx="463.3" cy="-400.37" rx="41.24" ry="18"/>
<text text-anchor="middle" x="463.3" y="-397.37" font-family="Helvetica,sans-Serif" font-size="10.00" fill="#000000">vcorelib.dict</text>
</g>
<!-- vcorelib_dict&#45;&gt;svgen_app -->
<g id="edge45" class="edge">
<title>vcorelib_dict&#45;&gt;svgen_app</title><style>.edge>path:hover{stroke-width:8}</style>
<path fill="none" stroke="black" d="M476.12,-383.23C506.45,-344.62 579.38,-249.03 569.3,-235"/>
<path fill="none" stroke="black" d="M569.3,-233C531.98,-180.34 453.77,-166.49 402.95,-163.29"/>
<polygon fill="#3bcece" stroke="black" points="403.02,-159.79 392.85,-162.77 402.66,-166.78 403.02,-159.79"/>
</g>
<!-- vcorelib_dict&#45;&gt;svgen_script -->
<g id="edge46" class="edge">
<title>vcorelib_dict&#45;&gt;svgen_script</title><style>.edge>path:hover{stroke-width:8}</style>
<path fill="none" stroke="black" d="M446.79,-383.56C430.71,-367.14 406.91,-339.95 394.3,-311.63"/>
</g>
<!-- vcorelib_dict_config -->
<g id="node24" class="node">
<title>vcorelib_dict_config</title><style>.edge>path:hover{stroke-width:8}</style>
<ellipse fill="#3db8b8" stroke="black" cx="564.3" cy="-498.59" rx="37.79" ry="31.23"/>
<text text-anchor="middle" x="564.3" y="-507.59" font-family="Helvetica,sans-Serif" font-size="10.00" fill="#000000">vcorelib.</text>
<text text-anchor="middle" x="564.3" y="-495.59" font-family="Helvetica,sans-Serif" font-size="10.00" fill="#000000">dict.</text>
<text text-anchor="middle" x="564.3" y="-483.59" font-family="Helvetica,sans-Serif" font-size="10.00" fill="#000000">config</text>
</g>
<!-- vcorelib_dict_config&#45;&gt;svgen_app -->
<g id="edge47" class="edge">
<title>vcorelib_dict_config&#45;&gt;svgen_app</title><style>.edge>path:hover{stroke-width:8}</style>
<path fill="none" stroke="black" d="M579.02,-469.76C584.32,-458.25 589.65,-444.55 592.3,-431.48 609.79,-345.32 620.14,-306.73 569.3,-235"/>
</g>
<!-- vcorelib_dict_config&#45;&gt;svgen_script -->
<g id="edge48" class="edge">
<title>vcorelib_dict_config&#45;&gt;svgen_script</title><style>.edge>path:hover{stroke-width:8}</style>
<path fill="none" stroke="black" d="M529.31,-486.62C489.52,-473.43 428.13,-450.68 413.3,-431.48 380.33,-388.8 416.24,-360.9 394.3,-311.63"/>
<path fill="none" stroke="black" d="M394.3,-309.63C386.48,-293.22 377.06,-275.15 369.43,-260.9"/>
<polygon fill="#3db8b8" stroke="black" points="372.31,-258.86 364.48,-251.72 366.14,-262.18 372.31,-258.86"/>
</g>
<!-- vcorelib_script -->
<g id="node25" class="node">
<title>vcorelib_script</title><style>.edge>path:hover{stroke-width:8}</style>
<ellipse fill="#53b6b6" stroke="black" cx="460.3" cy="-310.63" rx="37.79" ry="22.76"/>
<text text-anchor="middle" x="460.3" y="-313.63" font-family="Helvetica,sans-Serif" font-size="10.00" fill="#000000">vcorelib.</text>
<text text-anchor="middle" x="460.3" y="-301.63" font-family="Helvetica,sans-Serif" font-size="10.00" fill="#000000">script</text>
</g>
<!-- vcorelib_script&#45;&gt;svgen_script -->
<g id="edge49" class="edge">
<title>vcorelib_script&#45;&gt;svgen_script</title><style>.edge>path:hover{stroke-width:8}</style>
<path fill="none" stroke="black" d="M436.74,-292.88C421.19,-281.83 400.71,-267.28 384.18,-255.53"/>
<polygon fill="#53b6b6" stroke="black" points="386.13,-252.61 375.95,-249.67 382.07,-258.32 386.13,-252.61"/>
</g>
</g>
</svg>
