<?xml version="1.0" encoding="UTF-8" standalone="no"?>
<!DOCTYPE svg PUBLIC "-//W3C//DTD SVG 1.1//EN"
 "http://www.w3.org/Graphics/SVG/1.1/DTD/svg11.dtd">
<!-- Generated by graphviz version 3.0.1~dev.20220405.0544 (20220405.0544)
 -->
<!-- Title: G Pages: 1 -->
<svg width="651pt" height="1127pt"
 viewBox="0.00 0.00 651.30 1127.06" xmlns="http://www.w3.org/2000/svg" xmlns:xlink="http://www.w3.org/1999/xlink">
<g id="graph0" class="graph" transform="scale(1 1) rotate(0) translate(4 1123.06)">
<title>G</title><style>.edge>path:hover{stroke-width:8}</style>
<polygon fill="white" stroke="transparent" points="-4,4 -4,-1123.06 647.3,-1123.06 647.3,4 -4,4"/>
<!-- svgen___main__ -->
<g id="node1" class="node">
<title>svgen___main__</title><style>.edge>path:hover{stroke-width:8}</style>
<ellipse fill="#ac4949" stroke="black" cx="412.05" cy="-18" rx="54" ry="18"/>
<text text-anchor="middle" x="412.05" y="-15" font-family="Helvetica,sans-Serif" font-size="10.00" fill="#ffffff">svgen.__main__</text>
</g>
<!-- svgen_app -->
<g id="node2" class="node">
<title>svgen_app</title><style>.edge>path:hover{stroke-width:8}</style>
<ellipse fill="#913030" stroke="black" cx="412.05" cy="-162" rx="37.24" ry="18"/>
<text text-anchor="middle" x="412.05" y="-159" font-family="Helvetica,sans-Serif" font-size="10.00" fill="#ffffff">svgen.app</text>
</g>
<!-- svgen_entry -->
<g id="node21" class="node">
<title>svgen_entry</title><style>.edge>path:hover{stroke-width:8}</style>
<ellipse fill="#b83d3d" stroke="black" cx="412.05" cy="-90" rx="40.92" ry="18"/>
<text text-anchor="middle" x="412.05" y="-87" font-family="Helvetica,sans-Serif" font-size="10.00" fill="#ffffff">svgen.entry</text>
</g>
<!-- svgen_app&#45;&gt;svgen_entry -->
<g id="edge1" class="edge">
<title>svgen_app&#45;&gt;svgen_entry</title><style>.edge>path:hover{stroke-width:8}</style>
<path fill="none" stroke="black" d="M412.05,-143.7C412.05,-135.98 412.05,-126.71 412.05,-118.11"/>
<polygon fill="#913030" stroke="black" points="415.55,-118.1 412.05,-108.1 408.55,-118.1 415.55,-118.1"/>
</g>
<!-- svgen_attribute -->
<g id="node3" class="node">
<title>svgen_attribute</title><style>.edge>path:hover{stroke-width:8}</style>
<ellipse fill="#f91010" stroke="black" cx="296.05" cy="-1087.95" rx="36.73" ry="22.76"/>
<text text-anchor="middle" x="296.05" y="-1090.95" font-family="Helvetica,sans-Serif" font-size="10.00" fill="#ffffff">svgen.</text>
<text text-anchor="middle" x="296.05" y="-1078.95" font-family="Helvetica,sans-Serif" font-size="10.00" fill="#ffffff">attribute</text>
</g>
<!-- svgen_attribute&#45;&gt;svgen_app -->
<g id="edge2" class="edge">
<title>svgen_attribute&#45;&gt;svgen_app</title><style>.edge>path:hover{stroke-width:8}</style>
<path fill="none" stroke="black" d="M430.05,-694.04C433.04,-657.05 461.22,-659.29 481.05,-627.93 580.07,-471.38 692.5,-405.48 620.05,-235"/>
</g>
<!-- svgen_cartesian -->
<g id="node6" class="node">
<title>svgen_cartesian</title><style>.edge>path:hover{stroke-width:8}</style>
<ellipse fill="#ef0606" stroke="black" cx="296.05" cy="-891.49" rx="40.01" ry="22.76"/>
<text text-anchor="middle" x="296.05" y="-894.49" font-family="Helvetica,sans-Serif" font-size="10.00" fill="#ffffff">svgen.</text>
<text text-anchor="middle" x="296.05" y="-882.49" font-family="Helvetica,sans-Serif" font-size="10.00" fill="#ffffff">cartesian</text>
</g>
<!-- svgen_attribute&#45;&gt;svgen_cartesian -->
<g id="edge3" class="edge">
<title>svgen_attribute&#45;&gt;svgen_cartesian</title><style>.edge>path:hover{stroke-width:8}</style>
<path fill="none" stroke="black" d="M296.05,-988.72C290.97,-967.72 291.02,-943.38 292.32,-924.43"/>
<polygon fill="#f91010" stroke="black" points="295.83,-924.5 293.17,-914.24 288.85,-923.91 295.83,-924.5"/>
</g>
<!-- svgen_cartesian_circle -->
<g id="node7" class="node">
<title>svgen_cartesian_circle</title><style>.edge>path:hover{stroke-width:8}</style>
<ellipse fill="#b03a3a" stroke="black" cx="430.05" cy="-596.82" rx="41.94" ry="31.23"/>
<text text-anchor="middle" x="430.05" y="-605.82" font-family="Helvetica,sans-Serif" font-size="10.00" fill="#ffffff">svgen.</text>
<text text-anchor="middle" x="430.05" y="-593.82" font-family="Helvetica,sans-Serif" font-size="10.00" fill="#ffffff">cartesian.</text>
<text text-anchor="middle" x="430.05" y="-581.82" font-family="Helvetica,sans-Serif" font-size="10.00" fill="#ffffff">circle</text>
</g>
<!-- svgen_attribute&#45;&gt;svgen_cartesian_circle -->
<g id="edge4" class="edge">
<title>svgen_attribute&#45;&gt;svgen_cartesian_circle</title><style>.edge>path:hover{stroke-width:8}</style>
<path fill="none" stroke="black" d="M430.05,-694.04C431.22,-675.82 431.39,-655.61 431.2,-638.44"/>
<polygon fill="#f91010" stroke="black" points="434.7,-638.13 431.05,-628.19 427.7,-638.24 434.7,-638.13"/>
</g>
<!-- svgen_cartesian_rectangle -->
<g id="node8" class="node">
<title>svgen_cartesian_rectangle</title><style>.edge>path:hover{stroke-width:8}</style>
<ellipse fill="#bc2f2f" stroke="black" cx="196.05" cy="-891.49" rx="41.94" ry="31.23"/>
<text text-anchor="middle" x="196.05" y="-900.49" font-family="Helvetica,sans-Serif" font-size="10.00" fill="#ffffff">svgen.</text>
<text text-anchor="middle" x="196.05" y="-888.49" font-family="Helvetica,sans-Serif" font-size="10.00" fill="#ffffff">cartesian.</text>
<text text-anchor="middle" x="196.05" y="-876.49" font-family="Helvetica,sans-Serif" font-size="10.00" fill="#ffffff">rectangle</text>
</g>
<!-- svgen_attribute&#45;&gt;svgen_cartesian_rectangle -->
<g id="edge5" class="edge">
<title>svgen_attribute&#45;&gt;svgen_cartesian_rectangle</title><style>.edge>path:hover{stroke-width:8}</style>
<path fill="none" stroke="black" d="M296.05,-988.72C288.53,-957.64 261.94,-932.93 238.06,-916.33"/>
<polygon fill="#f91010" stroke="black" points="239.7,-913.21 229.43,-910.59 235.82,-919.04 239.7,-913.21"/>
</g>
<!-- svgen_element -->
<g id="node16" class="node">
<title>svgen_element</title><style>.edge>path:hover{stroke-width:8}</style>
<ellipse fill="#e50505" stroke="black" cx="269.05" cy="-310.63" rx="48.96" ry="18"/>
<text text-anchor="middle" x="269.05" y="-307.63" font-family="Helvetica,sans-Serif" font-size="10.00" fill="#ffffff">svgen.element</text>
</g>
<!-- svgen_attribute&#45;&gt;svgen_element -->
<g id="edge6" class="edge">
<title>svgen_attribute&#45;&gt;svgen_element</title><style>.edge>path:hover{stroke-width:8}</style>
<path fill="none" stroke="black" d="M298.84,-1065.22C300.71,-1045.51 301.9,-1015.77 296.05,-990.72"/>
<path fill="none" stroke="black" d="M296.05,-988.72C279.4,-917.38 186.92,-982.73 145.05,-922.61 62.42,-803.95 149.38,-740.52 126.05,-597.82"/>
<path fill="none" stroke="black" d="M126.05,-595.82C120.23,-560.24 99.12,-559.65 79.05,-529.71 70.24,-516.56 67.05,-513.79 60.05,-499.59"/>
<path fill="none" stroke="black" d="M60.05,-497.59C33.2,-443.11 -25.76,-415.98 13.05,-369.25 68.81,-302.14 121.67,-355.48 206.05,-333.25 212.66,-331.51 219.58,-329.42 226.31,-327.24"/>
<polygon fill="#f91010" stroke="black" points="227.61,-330.49 235.98,-324 225.39,-323.86 227.61,-330.49"/>
</g>
<!-- svgen_element_circle -->
<g id="node17" class="node">
<title>svgen_element_circle</title><style>.edge>path:hover{stroke-width:8}</style>
<ellipse fill="#883a3a" stroke="black" cx="360.05" cy="-498.59" rx="38.37" ry="31.23"/>
<text text-anchor="middle" x="360.05" y="-507.59" font-family="Helvetica,sans-Serif" font-size="10.00" fill="#ffffff">svgen.</text>
<text text-anchor="middle" x="360.05" y="-495.59" font-family="Helvetica,sans-Serif" font-size="10.00" fill="#ffffff">element.</text>
<text text-anchor="middle" x="360.05" y="-483.59" font-family="Helvetica,sans-Serif" font-size="10.00" fill="#ffffff">circle</text>
</g>
<!-- svgen_attribute&#45;&gt;svgen_element_circle -->
<g id="edge7" class="edge">
<title>svgen_attribute&#45;&gt;svgen_element_circle</title><style>.edge>path:hover{stroke-width:8}</style>
<path fill="none" stroke="black" d="M430.05,-792.27C434.52,-749.74 427.31,-738.72 430.05,-696.04"/>
<path fill="none" stroke="black" d="M430.05,-694.04C432.43,-657.01 394.75,-661.56 379.05,-627.93 366.2,-600.4 361.61,-566.24 360.15,-540.09"/>
<polygon fill="#f91010" stroke="black" points="363.64,-539.62 359.72,-529.77 356.64,-539.91 363.64,-539.62"/>
</g>
<!-- svgen_element_line -->
<g id="node18" class="node">
<title>svgen_element_line</title><style>.edge>path:hover{stroke-width:8}</style>
<ellipse fill="#9d4343" stroke="black" cx="364.05" cy="-695.04" rx="38.37" ry="31.23"/>
<text text-anchor="middle" x="364.05" y="-704.04" font-family="Helvetica,sans-Serif" font-size="10.00" fill="#ffffff">svgen.</text>
<text text-anchor="middle" x="364.05" y="-692.04" font-family="Helvetica,sans-Serif" font-size="10.00" fill="#ffffff">element.</text>
<text text-anchor="middle" x="364.05" y="-680.04" font-family="Helvetica,sans-Serif" font-size="10.00" fill="#ffffff">line</text>
</g>
<!-- svgen_attribute&#45;&gt;svgen_element_line -->
<g id="edge8" class="edge">
<title>svgen_attribute&#45;&gt;svgen_element_line</title><style>.edge>path:hover{stroke-width:8}</style>
<path fill="none" stroke="black" d="M296.05,-988.72C287.45,-953.17 324.06,-952.56 345.05,-922.61 384.32,-866.59 420.93,-862.07 430.05,-794.27"/>
<path fill="none" stroke="black" d="M430.05,-792.27C432.77,-766.36 416.1,-742.19 398.83,-724.56"/>
<polygon fill="#f91010" stroke="black" points="401.07,-721.85 391.45,-717.42 396.2,-726.88 401.07,-721.85"/>
</g>
<!-- svgen_element_rect -->
<g id="node19" class="node">
<title>svgen_element_rect</title><style>.edge>path:hover{stroke-width:8}</style>
<ellipse fill="#913030" stroke="black" cx="126.05" cy="-498.59" rx="38.37" ry="31.23"/>
<text text-anchor="middle" x="126.05" y="-507.59" font-family="Helvetica,sans-Serif" font-size="10.00" fill="#ffffff">svgen.</text>
<text text-anchor="middle" x="126.05" y="-495.59" font-family="Helvetica,sans-Serif" font-size="10.00" fill="#ffffff">element.</text>
<text text-anchor="middle" x="126.05" y="-483.59" font-family="Helvetica,sans-Serif" font-size="10.00" fill="#ffffff">rect</text>
</g>
<!-- svgen_attribute&#45;&gt;svgen_element_rect -->
<g id="edge9" class="edge">
<title>svgen_attribute&#45;&gt;svgen_element_rect</title><style>.edge>path:hover{stroke-width:8}</style>
<path fill="none" stroke="black" d="M126.05,-595.82C123.08,-577.66 122.67,-557.31 123.16,-540.03"/>
<polygon fill="#f91010" stroke="black" points="126.67,-539.83 123.57,-529.7 119.68,-539.56 126.67,-539.83"/>
</g>
<!-- svgen_element_svg -->
<g id="node20" class="node">
<title>svgen_element_svg</title><style>.edge>path:hover{stroke-width:8}</style>
<ellipse fill="#ac2b2b" stroke="black" cx="60.05" cy="-400.37" rx="38.37" ry="31.23"/>
<text text-anchor="middle" x="60.05" y="-409.37" font-family="Helvetica,sans-Serif" font-size="10.00" fill="#ffffff">svgen.</text>
<text text-anchor="middle" x="60.05" y="-397.37" font-family="Helvetica,sans-Serif" font-size="10.00" fill="#ffffff">element.</text>
<text text-anchor="middle" x="60.05" y="-385.37" font-family="Helvetica,sans-Serif" font-size="10.00" fill="#ffffff">svg</text>
</g>
<!-- svgen_attribute&#45;&gt;svgen_element_svg -->
<g id="edge10" class="edge">
<title>svgen_attribute&#45;&gt;svgen_element_svg</title><style>.edge>path:hover{stroke-width:8}</style>
<path fill="none" stroke="black" d="M60.05,-497.59C51.56,-480.35 50.7,-459.17 52.33,-441.07"/>
<polygon fill="#f91010" stroke="black" points="55.81,-441.45 53.49,-431.11 48.85,-440.63 55.81,-441.45"/>
</g>
<!-- svgen_attribute_style -->
<g id="node4" class="node">
<title>svgen_attribute_style</title><style>.edge>path:hover{stroke-width:8}</style>
<ellipse fill="#b03a3a" stroke="black" cx="483.05" cy="-498.59" rx="38.66" ry="31.23"/>
<text text-anchor="middle" x="483.05" y="-507.59" font-family="Helvetica,sans-Serif" font-size="10.00" fill="#ffffff">svgen.</text>
<text text-anchor="middle" x="483.05" y="-495.59" font-family="Helvetica,sans-Serif" font-size="10.00" fill="#ffffff">attribute.</text>
<text text-anchor="middle" x="483.05" y="-483.59" font-family="Helvetica,sans-Serif" font-size="10.00" fill="#ffffff">style</text>
</g>
<!-- svgen_attribute_style&#45;&gt;svgen_element -->
<g id="edge11" class="edge">
<title>svgen_attribute_style&#45;&gt;svgen_element</title><style>.edge>path:hover{stroke-width:8}</style>
<path fill="none" stroke="black" d="M457.24,-475.16C416.07,-439.39 336.01,-369.81 294.85,-334.05"/>
<polygon fill="#b03a3a" stroke="black" points="297.01,-331.28 287.16,-327.37 292.41,-336.57 297.01,-331.28"/>
</g>
<!-- svgen_attribute_viewbox -->
<g id="node5" class="node">
<title>svgen_attribute_viewbox</title><style>.edge>path:hover{stroke-width:8}</style>
<ellipse fill="#ca1616" stroke="black" cx="231.05" cy="-695.04" rx="38.66" ry="31.23"/>
<text text-anchor="middle" x="231.05" y="-704.04" font-family="Helvetica,sans-Serif" font-size="10.00" fill="#ffffff">svgen.</text>
<text text-anchor="middle" x="231.05" y="-692.04" font-family="Helvetica,sans-Serif" font-size="10.00" fill="#ffffff">attribute.</text>
<text text-anchor="middle" x="231.05" y="-680.04" font-family="Helvetica,sans-Serif" font-size="10.00" fill="#ffffff">viewbox</text>
</g>
<!-- svgen_attribute_viewbox&#45;&gt;svgen_app -->
<g id="edge12" class="edge">
<title>svgen_attribute_viewbox&#45;&gt;svgen_app</title><style>.edge>path:hover{stroke-width:8}</style>
<path fill="none" stroke="black" d="M192.05,-497.59C163.98,-419.86 166.28,-390.16 192.05,-311.63"/>
</g>
<!-- svgen_attribute_viewbox&#45;&gt;svgen_element_circle -->
<g id="edge13" class="edge">
<title>svgen_attribute_viewbox&#45;&gt;svgen_element_circle</title><style>.edge>path:hover{stroke-width:8}</style>
<path fill="none" stroke="black" d="M202.05,-595.82C200.81,-543.47 265.23,-518.77 312.19,-507.74"/>
<polygon fill="#ca1616" stroke="black" points="313.2,-511.1 322.21,-505.52 311.69,-504.26 313.2,-511.1"/>
</g>
<!-- svgen_attribute_viewbox&#45;&gt;svgen_element_rect -->
<g id="edge14" class="edge">
<title>svgen_attribute_viewbox&#45;&gt;svgen_element_rect</title><style>.edge>path:hover{stroke-width:8}</style>
<path fill="none" stroke="black" d="M218.11,-665.66C210.64,-646.84 202.61,-621.37 202.05,-597.82"/>
<path fill="none" stroke="black" d="M202.05,-595.82C201.4,-568.14 181.78,-543.74 162.65,-526.44"/>
<polygon fill="#ca1616" stroke="black" points="164.68,-523.57 154.82,-519.7 160.12,-528.88 164.68,-523.57"/>
</g>
<!-- svgen_attribute_viewbox&#45;&gt;svgen_element_svg -->
<g id="edge15" class="edge">
<title>svgen_attribute_viewbox&#45;&gt;svgen_element_svg</title><style>.edge>path:hover{stroke-width:8}</style>
<path fill="none" stroke="black" d="M202.05,-595.82C201.03,-552.83 206.66,-540.03 192.05,-499.59"/>
<path fill="none" stroke="black" d="M192.05,-497.59C177.98,-458.63 136.99,-432.8 104.38,-417.8"/>
<polygon fill="#ca1616" stroke="black" points="105.56,-414.5 95,-413.68 102.74,-420.91 105.56,-414.5"/>
</g>
<!-- svgen_cartesian&#45;&gt;svgen_attribute_viewbox -->
<g id="edge16" class="edge">
<title>svgen_cartesian&#45;&gt;svgen_attribute_viewbox</title><style>.edge>path:hover{stroke-width:8}</style>
<path fill="none" stroke="black" d="M231.05,-792.27C228.7,-774.16 228.36,-753.97 228.74,-736.78"/>
<polygon fill="#ef0606" stroke="black" points="232.24,-736.61 229.05,-726.51 225.25,-736.4 232.24,-736.61"/>
</g>
<!-- svgen_cartesian&#45;&gt;svgen_element_circle -->
<g id="edge17" class="edge">
<title>svgen_cartesian&#45;&gt;svgen_element_circle</title><style>.edge>path:hover{stroke-width:8}</style>
<path fill="none" stroke="black" d="M231.05,-792.27C226.38,-756.26 262.1,-758.27 279.05,-726.16 311.93,-663.86 336.64,-585.33 349.68,-538.98"/>
<polygon fill="#ef0606" stroke="black" points="353.06,-539.89 352.36,-529.32 346.31,-538.02 353.06,-539.89"/>
</g>
<!-- svgen_cartesian&#45;&gt;svgen_element_line -->
<g id="edge18" class="edge">
<title>svgen_cartesian&#45;&gt;svgen_element_line</title><style>.edge>path:hover{stroke-width:8}</style>
<path fill="none" stroke="black" d="M231.05,-792.27C229.54,-780.64 284.93,-744.2 324.69,-719.66"/>
<polygon fill="#ef0606" stroke="black" points="326.71,-722.52 333.41,-714.31 323.05,-716.55 326.71,-722.52"/>
</g>
<!-- svgen_cartesian&#45;&gt;svgen_element_rect -->
<g id="edge19" class="edge">
<title>svgen_cartesian&#45;&gt;svgen_element_rect</title><style>.edge>path:hover{stroke-width:8}</style>
<path fill="none" stroke="black" d="M275.64,-871.84C258.19,-853.98 235.25,-825.23 231.05,-794.27"/>
<path fill="none" stroke="black" d="M231.05,-792.27C224.05,-740.63 176.95,-746.54 164.05,-696.04"/>
</g>
<!-- svgen_cartesian_circle&#45;&gt;svgen_element_circle -->
<g id="edge20" class="edge">
<title>svgen_cartesian_circle&#45;&gt;svgen_element_circle</title><style>.edge>path:hover{stroke-width:8}</style>
<path fill="none" stroke="black" d="M410.55,-569.01C402.68,-558.19 393.48,-545.55 385.12,-534.05"/>
<polygon fill="#b03a3a" stroke="black" points="387.92,-531.95 379.2,-525.92 382.26,-536.07 387.92,-531.95"/>
</g>
<!-- svgen_cartesian_rectangle&#45;&gt;svgen_attribute_viewbox -->
<g id="edge21" class="edge">
<title>svgen_cartesian_rectangle&#45;&gt;svgen_attribute_viewbox</title><style>.edge>path:hover{stroke-width:8}</style>
<path fill="none" stroke="black" d="M164.05,-792.27C164.23,-766.44 180.69,-742.58 197.25,-725.08"/>
<polygon fill="#bc2f2f" stroke="black" points="199.73,-727.54 204.3,-717.98 194.77,-722.61 199.73,-727.54"/>
</g>
<!-- svgen_cartesian_rectangle&#45;&gt;svgen_element_rect -->
<g id="edge22" class="edge">
<title>svgen_cartesian_rectangle&#45;&gt;svgen_element_rect</title><style>.edge>path:hover{stroke-width:8}</style>
<path fill="none" stroke="black" d="M181.25,-862.25C172.8,-843.5 163.89,-818.04 164.05,-794.27"/>
<path fill="none" stroke="black" d="M164.05,-792.27C164.35,-749.5 171.05,-738.23 164.05,-696.04"/>
<path fill="none" stroke="black" d="M164.05,-694.04C154.56,-636.8 151.4,-622.61 140.05,-565.71 138.35,-557.19 136.47,-548.07 134.64,-539.41"/>
<polygon fill="#bc2f2f" stroke="black" points="138.04,-538.57 132.54,-529.51 131.2,-540.02 138.04,-538.57"/>
</g>
<!-- svgen_color -->
<g id="node9" class="node">
<title>svgen_color</title><style>.edge>path:hover{stroke-width:8}</style>
<ellipse fill="#d10505" stroke="black" cx="542.05" cy="-695.04" rx="40.25" ry="18"/>
<text text-anchor="middle" x="542.05" y="-692.04" font-family="Helvetica,sans-Serif" font-size="10.00" fill="#ffffff">svgen.color</text>
</g>
<!-- svgen_color&#45;&gt;svgen_attribute_style -->
<g id="edge23" class="edge">
<title>svgen_color&#45;&gt;svgen_attribute_style</title><style>.edge>path:hover{stroke-width:8}</style>
<path fill="none" stroke="black" d="M539.53,-676.69C535.62,-651.71 527.15,-604.37 514.05,-565.71 510.82,-556.17 506.61,-546.19 502.34,-536.96"/>
<polygon fill="#d10505" stroke="black" points="505.37,-535.18 497.91,-527.65 499.05,-538.19 505.37,-535.18"/>
</g>
<!-- svgen_color&#45;&gt;svgen_element_circle -->
<g id="edge24" class="edge">
<title>svgen_color&#45;&gt;svgen_element_circle</title><style>.edge>path:hover{stroke-width:8}</style>
<path fill="none" stroke="black" d="M534.72,-677.14C520.38,-644.33 489.31,-574.45 481.05,-565.71 459.91,-543.34 429.48,-526.76 404.43,-515.8"/>
<polygon fill="#d10505" stroke="black" points="405.7,-512.54 395.12,-511.87 402.98,-518.99 405.7,-512.54"/>
</g>
<!-- svgen_color&#45;&gt;svgen_element_rect -->
<g id="edge25" class="edge">
<title>svgen_color&#45;&gt;svgen_element_rect</title><style>.edge>path:hover{stroke-width:8}</style>
<path fill="none" stroke="black" d="M512.29,-682.84C479.37,-670.24 424.91,-648.82 379.05,-627.93 302.84,-593.22 216.25,-548 166.69,-521.54"/>
<polygon fill="#d10505" stroke="black" points="168.05,-518.3 157.58,-516.67 164.75,-524.47 168.05,-518.3"/>
</g>
<!-- svgen_color_alpha -->
<g id="node10" class="node">
<title>svgen_color_alpha</title><style>.edge>path:hover{stroke-width:8}</style>
<ellipse fill="#bc2f2f" stroke="black" cx="550.05" cy="-989.72" rx="32.29" ry="31.23"/>
<text text-anchor="middle" x="550.05" y="-998.72" font-family="Helvetica,sans-Serif" font-size="10.00" fill="#ffffff">svgen.</text>
<text text-anchor="middle" x="550.05" y="-986.72" font-family="Helvetica,sans-Serif" font-size="10.00" fill="#ffffff">color.</text>
<text text-anchor="middle" x="550.05" y="-974.72" font-family="Helvetica,sans-Serif" font-size="10.00" fill="#ffffff">alpha</text>
</g>
<!-- svgen_color_hsl -->
<g id="node12" class="node">
<title>svgen_color_hsl</title><style>.edge>path:hover{stroke-width:8}</style>
<ellipse fill="#b42d2d" stroke="black" cx="501.05" cy="-891.49" rx="32.29" ry="31.23"/>
<text text-anchor="middle" x="501.05" y="-900.49" font-family="Helvetica,sans-Serif" font-size="10.00" fill="#ffffff">svgen.</text>
<text text-anchor="middle" x="501.05" y="-888.49" font-family="Helvetica,sans-Serif" font-size="10.00" fill="#ffffff">color.</text>
<text text-anchor="middle" x="501.05" y="-876.49" font-family="Helvetica,sans-Serif" font-size="10.00" fill="#ffffff">hsl</text>
</g>
<!-- svgen_color_alpha&#45;&gt;svgen_color_hsl -->
<g id="edge26" class="edge">
<title>svgen_color_alpha&#45;&gt;svgen_color_hsl</title><style>.edge>path:hover{stroke-width:8}</style>
<path fill="none" stroke="black" d="M536.14,-961.4C531.02,-951.35 525.14,-939.79 519.67,-929.05"/>
<polygon fill="#bc2f2f" stroke="black" points="522.65,-927.2 515,-919.88 516.42,-930.38 522.65,-927.2"/>
</g>
<!-- svgen_color_rgb -->
<g id="node14" class="node">
<title>svgen_color_rgb</title><style>.edge>path:hover{stroke-width:8}</style>
<ellipse fill="#b42d2d" stroke="black" cx="599.05" cy="-891.49" rx="32.29" ry="31.23"/>
<text text-anchor="middle" x="599.05" y="-900.49" font-family="Helvetica,sans-Serif" font-size="10.00" fill="#ffffff">svgen.</text>
<text text-anchor="middle" x="599.05" y="-888.49" font-family="Helvetica,sans-Serif" font-size="10.00" fill="#ffffff">color.</text>
<text text-anchor="middle" x="599.05" y="-876.49" font-family="Helvetica,sans-Serif" font-size="10.00" fill="#ffffff">rgb</text>
</g>
<!-- svgen_color_alpha&#45;&gt;svgen_color_rgb -->
<g id="edge27" class="edge">
<title>svgen_color_alpha&#45;&gt;svgen_color_rgb</title><style>.edge>path:hover{stroke-width:8}</style>
<path fill="none" stroke="black" d="M563.96,-961.4C569.08,-951.35 574.97,-939.79 580.44,-929.05"/>
<polygon fill="#bc2f2f" stroke="black" points="583.69,-930.38 585.11,-919.88 577.45,-927.2 583.69,-930.38"/>
</g>
<!-- svgen_color_conversion -->
<g id="node11" class="node">
<title>svgen_color_conversion</title><style>.edge>path:hover{stroke-width:8}</style>
<ellipse fill="#a83838" stroke="black" cx="542.05" cy="-793.27" rx="45.52" ry="31.23"/>
<text text-anchor="middle" x="542.05" y="-802.27" font-family="Helvetica,sans-Serif" font-size="10.00" fill="#ffffff">svgen.</text>
<text text-anchor="middle" x="542.05" y="-790.27" font-family="Helvetica,sans-Serif" font-size="10.00" fill="#ffffff">color.</text>
<text text-anchor="middle" x="542.05" y="-778.27" font-family="Helvetica,sans-Serif" font-size="10.00" fill="#ffffff">conversion</text>
</g>
<!-- svgen_color_conversion&#45;&gt;svgen_color -->
<g id="edge28" class="edge">
<title>svgen_color_conversion&#45;&gt;svgen_color</title><style>.edge>path:hover{stroke-width:8}</style>
<path fill="none" stroke="black" d="M542.05,-762.09C542.05,-749.76 542.05,-735.61 542.05,-723.58"/>
<polygon fill="#a83838" stroke="black" points="545.55,-723.23 542.05,-713.23 538.55,-723.23 545.55,-723.23"/>
</g>
<!-- svgen_color_hsl&#45;&gt;svgen_color -->
<g id="edge29" class="edge">
<title>svgen_color_hsl&#45;&gt;svgen_color</title><style>.edge>path:hover{stroke-width:8}</style>
<path fill="none" stroke="black" d="M490.79,-861.84C482.91,-835.24 475.2,-794.93 487.05,-762.16 493.05,-745.57 505.22,-730.21 516.59,-718.49"/>
<polygon fill="#b42d2d" stroke="black" points="519.2,-720.83 523.88,-711.32 514.29,-715.84 519.2,-720.83"/>
</g>
<!-- svgen_color_hsl&#45;&gt;svgen_color_conversion -->
<g id="edge30" class="edge">
<title>svgen_color_hsl&#45;&gt;svgen_color_conversion</title><style>.edge>path:hover{stroke-width:8}</style>
<path fill="none" stroke="black" d="M513.02,-862.4C517,-853.07 521.5,-842.52 525.74,-832.55"/>
<polygon fill="#b42d2d" stroke="black" points="529.01,-833.8 529.71,-823.23 522.57,-831.06 529.01,-833.8"/>
</g>
<!-- svgen_color_numbers -->
<g id="node13" class="node">
<title>svgen_color_numbers</title><style>.edge>path:hover{stroke-width:8}</style>
<ellipse fill="#db2f2f" stroke="black" cx="550.05" cy="-1087.95" rx="38.65" ry="31.23"/>
<text text-anchor="middle" x="550.05" y="-1096.95" font-family="Helvetica,sans-Serif" font-size="10.00" fill="#ffffff">svgen.</text>
<text text-anchor="middle" x="550.05" y="-1084.95" font-family="Helvetica,sans-Serif" font-size="10.00" fill="#ffffff">color.</text>
<text text-anchor="middle" x="550.05" y="-1072.95" font-family="Helvetica,sans-Serif" font-size="10.00" fill="#ffffff">numbers</text>
</g>
<!-- svgen_color_numbers&#45;&gt;svgen_color_alpha -->
<g id="edge31" class="edge">
<title>svgen_color_numbers&#45;&gt;svgen_color_alpha</title><style>.edge>path:hover{stroke-width:8}</style>
<path fill="none" stroke="black" d="M550.05,-1056.76C550.05,-1048.69 550.05,-1039.83 550.05,-1031.3"/>
<polygon fill="#db2f2f" stroke="black" points="553.55,-1031.13 550.05,-1021.13 546.55,-1031.13 553.55,-1031.13"/>
</g>
<!-- svgen_color_numbers&#45;&gt;svgen_color_hsl -->
<g id="edge32" class="edge">
<title>svgen_color_numbers&#45;&gt;svgen_color_hsl</title><style>.edge>path:hover{stroke-width:8}</style>
<path fill="none" stroke="black" d="M529.88,-1061.09C521.92,-1049.44 513.61,-1035.12 509.05,-1020.83 499.96,-992.33 498.2,-958.49 498.58,-932.72"/>
<polygon fill="#db2f2f" stroke="black" points="502.08,-932.65 498.85,-922.56 495.08,-932.46 502.08,-932.65"/>
</g>
<!-- svgen_color_numbers&#45;&gt;svgen_color_rgb -->
<g id="edge33" class="edge">
<title>svgen_color_numbers&#45;&gt;svgen_color_rgb</title><style>.edge>path:hover{stroke-width:8}</style>
<path fill="none" stroke="black" d="M570.23,-1061.09C578.18,-1049.44 586.5,-1035.12 591.05,-1020.83 600.14,-992.33 601.91,-958.49 601.52,-932.72"/>
<polygon fill="#db2f2f" stroke="black" points="605.02,-932.46 601.26,-922.56 598.02,-932.65 605.02,-932.46"/>
</g>
<!-- svgen_color_rgb&#45;&gt;svgen_color -->
<g id="edge34" class="edge">
<title>svgen_color_rgb&#45;&gt;svgen_color</title><style>.edge>path:hover{stroke-width:8}</style>
<path fill="none" stroke="black" d="M604.06,-860.67C607.29,-833.98 608.93,-794.23 597.05,-762.16 590.93,-745.62 578.74,-730.27 567.4,-718.53"/>
<polygon fill="#b42d2d" stroke="black" points="569.71,-715.89 560.13,-711.36 564.79,-720.87 569.71,-715.89"/>
</g>
<!-- svgen_color_rgb&#45;&gt;svgen_color_conversion -->
<g id="edge35" class="edge">
<title>svgen_color_rgb&#45;&gt;svgen_color_conversion</title><style>.edge>path:hover{stroke-width:8}</style>
<path fill="none" stroke="black" d="M583.48,-864.2C577.44,-854.01 570.43,-842.17 563.9,-831.16"/>
<polygon fill="#b42d2d" stroke="black" points="566.91,-829.37 558.81,-822.55 560.89,-832.94 566.91,-829.37"/>
</g>
<!-- svgen_config -->
<g id="node15" class="node">
<title>svgen_config</title><style>.edge>path:hover{stroke-width:8}</style>
<ellipse fill="#ce3b3b" stroke="black" cx="549.05" cy="-310.63" rx="43.27" ry="18"/>
<text text-anchor="middle" x="549.05" y="-307.63" font-family="Helvetica,sans-Serif" font-size="10.00" fill="#ffffff">svgen.config</text>
</g>
<!-- svgen_config&#45;&gt;svgen_app -->
<g id="edge36" class="edge">
<title>svgen_config&#45;&gt;svgen_app</title><style>.edge>path:hover{stroke-width:8}</style>
<path fill="none" stroke="black" d="M577.16,-296.62C601.47,-283.34 631.1,-261 620.05,-235"/>
<path fill="none" stroke="black" d="M620.05,-233C606.98,-202.24 514.11,-180.76 456.97,-170.29"/>
<polygon fill="#ce3b3b" stroke="black" points="457.55,-166.84 447.09,-168.52 456.32,-173.73 457.55,-166.84"/>
</g>
<!-- svgen_script -->
<g id="node22" class="node">
<title>svgen_script</title><style>.edge>path:hover{stroke-width:8}</style>
<ellipse fill="#993333" stroke="black" cx="412.05" cy="-234" rx="41.91" ry="18"/>
<text text-anchor="middle" x="412.05" y="-231" font-family="Helvetica,sans-Serif" font-size="10.00" fill="#ffffff">svgen.script</text>
</g>
<!-- svgen_config&#45;&gt;svgen_script -->
<g id="edge37" class="edge">
<title>svgen_config&#45;&gt;svgen_script</title><style>.edge>path:hover{stroke-width:8}</style>
<path fill="none" stroke="black" d="M523.92,-295.94C502,-284 470.02,-266.58 445.86,-253.42"/>
<polygon fill="#ce3b3b" stroke="black" points="447.48,-250.31 437.02,-248.6 444.13,-256.46 447.48,-250.31"/>
</g>
<!-- svgen_element&#45;&gt;svgen_app -->
<g id="edge38" class="edge">
<title>svgen_element&#45;&gt;svgen_app</title><style>.edge>path:hover{stroke-width:8}</style>
<path fill="none" stroke="black" d="M237.87,-296.64C211.93,-283.66 180.89,-261.81 192.05,-235"/>
</g>
<!-- svgen_element&#45;&gt;svgen_script -->
<g id="edge39" class="edge">
<title>svgen_element&#45;&gt;svgen_script</title><style>.edge>path:hover{stroke-width:8}</style>
<path fill="none" stroke="black" d="M295.95,-295.59C318.91,-283.61 352.08,-266.3 377.09,-253.25"/>
<polygon fill="#e50505" stroke="black" points="378.99,-256.2 386.24,-248.47 375.75,-249.99 378.99,-256.2"/>
</g>
<!-- svgen_element_rect&#45;&gt;svgen_element_svg -->
<g id="edge40" class="edge">
<title>svgen_element_rect&#45;&gt;svgen_element_svg</title><style>.edge>path:hover{stroke-width:8}</style>
<path fill="none" stroke="black" d="M107.84,-471.04C100.48,-460.32 91.89,-447.79 84.03,-436.33"/>
<polygon fill="#913030" stroke="black" points="86.74,-434.1 78.2,-427.83 80.97,-438.06 86.74,-434.1"/>
</g>
<!-- svgen_element_svg&#45;&gt;svgen_app -->
<g id="edge41" class="edge">
<title>svgen_element_svg&#45;&gt;svgen_app</title><style>.edge>path:hover{stroke-width:8}</style>
<path fill="none" stroke="black" d="M96.03,-389.25C130.19,-377.28 178.32,-353.46 192.05,-311.63"/>
<path fill="none" stroke="black" d="M192.05,-309.63C202.39,-278.11 179.31,-265.62 192.05,-235"/>
<path fill="none" stroke="black" d="M192.05,-233C205.7,-200.21 305.91,-179.27 366.28,-169.49"/>
<polygon fill="#ac2b2b" stroke="black" points="367,-172.92 376.33,-167.9 365.91,-166 367,-172.92"/>
</g>
<!-- svgen_element_svg&#45;&gt;svgen_script -->
<g id="edge42" class="edge">
<title>svgen_element_svg&#45;&gt;svgen_script</title><style>.edge>path:hover{stroke-width:8}</style>
<path fill="none" stroke="black" d="M98.3,-397.3C152.88,-392.78 254.52,-378.48 327.05,-333.25 349.34,-319.36 347.89,-307.88 365.05,-288 373.38,-278.35 382.67,-267.83 390.77,-258.72"/>
<polygon fill="#ac2b2b" stroke="black" points="393.49,-260.93 397.54,-251.14 388.27,-256.27 393.49,-260.93"/>
</g>
<!-- svgen_entry&#45;&gt;svgen___main__ -->
<g id="edge43" class="edge">
<title>svgen_entry&#45;&gt;svgen___main__</title><style>.edge>path:hover{stroke-width:8}</style>
<path fill="none" stroke="black" d="M412.05,-71.7C412.05,-63.98 412.05,-54.71 412.05,-46.11"/>
<polygon fill="#b83d3d" stroke="black" points="415.55,-46.1 412.05,-36.1 408.55,-46.1 415.55,-46.1"/>
</g>
<!-- svgen_script&#45;&gt;svgen_app -->
<g id="edge44" class="edge">
<title>svgen_script&#45;&gt;svgen_app</title><style>.edge>path:hover{stroke-width:8}</style>
<path fill="none" stroke="black" d="M412.05,-215.7C412.05,-207.98 412.05,-198.71 412.05,-190.11"/>
<polygon fill="#993333" stroke="black" points="415.55,-190.1 412.05,-180.1 408.55,-190.1 415.55,-190.1"/>
</g>
<!-- vcorelib -->
<g id="node23" class="node">
<title>vcorelib</title><style>.edge>path:hover{stroke-width:8}</style>
<ellipse fill="#53b6b6" stroke="black" cx="478.05" cy="-400.37" rx="30.19" ry="18"/>
<text text-anchor="middle" x="478.05" y="-397.37" font-family="Helvetica,sans-Serif" font-size="10.00" fill="#000000">vcorelib</text>
</g>
<!-- vcorelib&#45;&gt;svgen_script -->
<g id="edge45" class="edge">
<title>vcorelib&#45;&gt;svgen_script</title><style>.edge>path:hover{stroke-width:8}</style>
<path fill="none" stroke="black" d="M478.01,-382.27C477.32,-359.63 473.9,-318.95 459.05,-288 453.7,-276.85 445.31,-266.28 437.08,-257.56"/>
<polygon fill="#53b6b6" stroke="black" points="439.5,-255.04 429.98,-250.4 434.54,-259.97 439.5,-255.04"/>
</g>
<!-- vcorelib_script -->
<g id="node24" class="node">
<title>vcorelib_script</title><style>.edge>path:hover{stroke-width:8}</style>
<ellipse fill="#53b6b6" stroke="black" cx="412.05" cy="-310.63" rx="37.79" ry="22.76"/>
<text text-anchor="middle" x="412.05" y="-313.63" font-family="Helvetica,sans-Serif" font-size="10.00" fill="#000000">vcorelib.</text>
<text text-anchor="middle" x="412.05" y="-301.63" font-family="Helvetica,sans-Serif" font-size="10.00" fill="#000000">script</text>
</g>
<!-- vcorelib_script&#45;&gt;svgen_script -->
<g id="edge46" class="edge">
<title>vcorelib_script&#45;&gt;svgen_script</title><style>.edge>path:hover{stroke-width:8}</style>
<path fill="none" stroke="black" d="M412.05,-287.64C412.05,-279.66 412.05,-270.55 412.05,-262.17"/>
<polygon fill="#53b6b6" stroke="black" points="415.55,-262.1 412.05,-252.1 408.55,-262.1 415.55,-262.1"/>
</g>
</g>
</svg>
