<?xml version="1.0" encoding="UTF-8" standalone="no"?>
<!DOCTYPE svg PUBLIC "-//W3C//DTD SVG 1.1//EN"
 "http://www.w3.org/Graphics/SVG/1.1/DTD/svg11.dtd">
<!-- Generated by graphviz version 3.0.1~dev.20220405.0544 (20220405.0544)
 -->
<!-- Title: G Pages: 1 -->
<svg width="645pt" height="1118pt"
 viewBox="0.00 0.00 645.16 1117.80" xmlns="http://www.w3.org/2000/svg" xmlns:xlink="http://www.w3.org/1999/xlink">
<g id="graph0" class="graph" transform="scale(1 1) rotate(0) translate(4 1113.8)">
<title>G</title><style>.edge>path:hover{stroke-width:8}</style>
<polygon fill="white" stroke="transparent" points="-4,4 -4,-1113.8 641.16,-1113.8 641.16,4 -4,4"/>
<!-- svgen___main__ -->
<g id="node1" class="node">
<title>svgen___main__</title><style>.edge>path:hover{stroke-width:8}</style>
<ellipse fill="#ac4949" stroke="black" cx="385.33" cy="-18" rx="54" ry="18"/>
<text text-anchor="middle" x="385.33" y="-15" font-family="Helvetica,sans-Serif" font-size="10.00" fill="#ffffff">svgen.__main__</text>
</g>
<!-- svgen_app -->
<g id="node2" class="node">
<title>svgen_app</title><style>.edge>path:hover{stroke-width:8}</style>
<ellipse fill="#913030" stroke="black" cx="385.33" cy="-162" rx="37.24" ry="18"/>
<text text-anchor="middle" x="385.33" y="-159" font-family="Helvetica,sans-Serif" font-size="10.00" fill="#ffffff">svgen.app</text>
</g>
<!-- svgen_entry -->
<g id="node21" class="node">
<title>svgen_entry</title><style>.edge>path:hover{stroke-width:8}</style>
<ellipse fill="#b83d3d" stroke="black" cx="385.33" cy="-90" rx="40.92" ry="18"/>
<text text-anchor="middle" x="385.33" y="-87" font-family="Helvetica,sans-Serif" font-size="10.00" fill="#ffffff">svgen.entry</text>
</g>
<!-- svgen_app&#45;&gt;svgen_entry -->
<g id="edge1" class="edge">
<title>svgen_app&#45;&gt;svgen_entry</title><style>.edge>path:hover{stroke-width:8}</style>
<path fill="none" stroke="black" d="M385.33,-143.7C385.33,-135.98 385.33,-126.71 385.33,-118.11"/>
<polygon fill="#913030" stroke="black" points="388.83,-118.1 385.33,-108.1 381.83,-118.1 388.83,-118.1"/>
</g>
<!-- svgen_attribute -->
<g id="node3" class="node">
<title>svgen_attribute</title><style>.edge>path:hover{stroke-width:8}</style>
<ellipse fill="#f91010" stroke="black" cx="296.33" cy="-1078.69" rx="36.73" ry="22.76"/>
<text text-anchor="middle" x="296.33" y="-1081.69" font-family="Helvetica,sans-Serif" font-size="10.00" fill="#ffffff">svgen.</text>
<text text-anchor="middle" x="296.33" y="-1069.69" font-family="Helvetica,sans-Serif" font-size="10.00" fill="#ffffff">attribute</text>
</g>
<!-- svgen_attribute&#45;&gt;svgen_app -->
<g id="edge2" class="edge">
<title>svgen_attribute&#45;&gt;svgen_app</title><style>.edge>path:hover{stroke-width:8}</style>
<path fill="none" stroke="black" d="M430.33,-684.79C432.33,-649.05 463.22,-651.98 476.33,-618.68 539.45,-458.39 586.26,-398.28 531.33,-235"/>
</g>
<!-- svgen_cartesian -->
<g id="node6" class="node">
<title>svgen_cartesian</title><style>.edge>path:hover{stroke-width:8}</style>
<ellipse fill="#ef0606" stroke="black" cx="296.33" cy="-882.24" rx="40.01" ry="22.76"/>
<text text-anchor="middle" x="296.33" y="-885.24" font-family="Helvetica,sans-Serif" font-size="10.00" fill="#ffffff">svgen.</text>
<text text-anchor="middle" x="296.33" y="-873.24" font-family="Helvetica,sans-Serif" font-size="10.00" fill="#ffffff">cartesian</text>
</g>
<!-- svgen_attribute&#45;&gt;svgen_cartesian -->
<g id="edge3" class="edge">
<title>svgen_attribute&#45;&gt;svgen_cartesian</title><style>.edge>path:hover{stroke-width:8}</style>
<path fill="none" stroke="black" d="M296.33,-979.47C291.25,-958.46 291.3,-934.12 292.6,-915.18"/>
<polygon fill="#f91010" stroke="black" points="296.11,-915.24 293.45,-904.99 289.13,-914.66 296.11,-915.24"/>
</g>
<!-- svgen_cartesian_circle -->
<g id="node7" class="node">
<title>svgen_cartesian_circle</title><style>.edge>path:hover{stroke-width:8}</style>
<ellipse fill="#b03a3a" stroke="black" cx="425.33" cy="-587.56" rx="41.94" ry="31.23"/>
<text text-anchor="middle" x="425.33" y="-596.56" font-family="Helvetica,sans-Serif" font-size="10.00" fill="#ffffff">svgen.</text>
<text text-anchor="middle" x="425.33" y="-584.56" font-family="Helvetica,sans-Serif" font-size="10.00" fill="#ffffff">cartesian.</text>
<text text-anchor="middle" x="425.33" y="-572.56" font-family="Helvetica,sans-Serif" font-size="10.00" fill="#ffffff">circle</text>
</g>
<!-- svgen_attribute&#45;&gt;svgen_cartesian_circle -->
<g id="edge4" class="edge">
<title>svgen_attribute&#45;&gt;svgen_cartesian_circle</title><style>.edge>path:hover{stroke-width:8}</style>
<path fill="none" stroke="black" d="M430.33,-684.79C431.05,-666.52 430.24,-646.3 429.08,-629.14"/>
<polygon fill="#f91010" stroke="black" points="432.55,-628.61 428.32,-618.89 425.57,-629.12 432.55,-628.61"/>
</g>
<!-- svgen_cartesian_rectangle -->
<g id="node8" class="node">
<title>svgen_cartesian_rectangle</title><style>.edge>path:hover{stroke-width:8}</style>
<ellipse fill="#bc2f2f" stroke="black" cx="196.33" cy="-882.24" rx="41.94" ry="31.23"/>
<text text-anchor="middle" x="196.33" y="-891.24" font-family="Helvetica,sans-Serif" font-size="10.00" fill="#ffffff">svgen.</text>
<text text-anchor="middle" x="196.33" y="-879.24" font-family="Helvetica,sans-Serif" font-size="10.00" fill="#ffffff">cartesian.</text>
<text text-anchor="middle" x="196.33" y="-867.24" font-family="Helvetica,sans-Serif" font-size="10.00" fill="#ffffff">rectangle</text>
</g>
<!-- svgen_attribute&#45;&gt;svgen_cartesian_rectangle -->
<g id="edge5" class="edge">
<title>svgen_attribute&#45;&gt;svgen_cartesian_rectangle</title><style>.edge>path:hover{stroke-width:8}</style>
<path fill="none" stroke="black" d="M296.33,-979.47C288.81,-948.39 262.22,-923.67 238.35,-907.08"/>
<polygon fill="#f91010" stroke="black" points="239.98,-903.96 229.71,-901.33 236.1,-909.79 239.98,-903.96"/>
</g>
<!-- svgen_element -->
<g id="node16" class="node">
<title>svgen_element</title><style>.edge>path:hover{stroke-width:8}</style>
<ellipse fill="#e50505" stroke="black" cx="308.33" cy="-306" rx="48.96" ry="18"/>
<text text-anchor="middle" x="308.33" y="-303" font-family="Helvetica,sans-Serif" font-size="10.00" fill="#ffffff">svgen.element</text>
</g>
<!-- svgen_attribute&#45;&gt;svgen_element -->
<g id="edge6" class="edge">
<title>svgen_attribute&#45;&gt;svgen_element</title><style>.edge>path:hover{stroke-width:8}</style>
<path fill="none" stroke="black" d="M299.12,-1055.97C300.99,-1036.25 302.18,-1006.52 296.33,-981.47"/>
<path fill="none" stroke="black" d="M296.33,-979.47C279.68,-908.12 187.2,-973.47 145.33,-913.35 62.7,-794.69 149.66,-731.27 126.33,-588.56"/>
<path fill="none" stroke="black" d="M126.33,-586.56C120.52,-550.98 99.4,-550.4 79.33,-520.45 70.52,-507.31 67.33,-504.53 60.33,-490.34"/>
<path fill="none" stroke="black" d="M60.33,-488.34C33.48,-433.85 -26.19,-406.13 13.33,-360 47.28,-320.38 194.29,-334.81 245.33,-324 250.47,-322.91 255.8,-321.66 261.1,-320.34"/>
<polygon fill="#f91010" stroke="black" points="262.37,-323.63 271.19,-317.75 260.63,-316.85 262.37,-323.63"/>
</g>
<!-- svgen_element_circle -->
<g id="node17" class="node">
<title>svgen_element_circle</title><style>.edge>path:hover{stroke-width:8}</style>
<ellipse fill="#883a3a" stroke="black" cx="355.33" cy="-489.34" rx="38.37" ry="31.23"/>
<text text-anchor="middle" x="355.33" y="-498.34" font-family="Helvetica,sans-Serif" font-size="10.00" fill="#ffffff">svgen.</text>
<text text-anchor="middle" x="355.33" y="-486.34" font-family="Helvetica,sans-Serif" font-size="10.00" fill="#ffffff">element.</text>
<text text-anchor="middle" x="355.33" y="-474.34" font-family="Helvetica,sans-Serif" font-size="10.00" fill="#ffffff">circle</text>
</g>
<!-- svgen_attribute&#45;&gt;svgen_element_circle -->
<g id="edge7" class="edge">
<title>svgen_attribute&#45;&gt;svgen_element_circle</title><style>.edge>path:hover{stroke-width:8}</style>
<path fill="none" stroke="black" d="M430.33,-783.01C434.8,-740.48 428.67,-729.52 430.33,-686.79"/>
<path fill="none" stroke="black" d="M430.33,-684.79C431.83,-646.31 391.88,-652.96 374.33,-618.68 360.38,-591.42 355.89,-556.92 354.75,-530.55"/>
<polygon fill="#f91010" stroke="black" points="358.24,-530.41 354.45,-520.52 351.25,-530.62 358.24,-530.41"/>
</g>
<!-- svgen_element_line -->
<g id="node18" class="node">
<title>svgen_element_line</title><style>.edge>path:hover{stroke-width:8}</style>
<ellipse fill="#9d4343" stroke="black" cx="364.33" cy="-685.79" rx="38.37" ry="31.23"/>
<text text-anchor="middle" x="364.33" y="-694.79" font-family="Helvetica,sans-Serif" font-size="10.00" fill="#ffffff">svgen.</text>
<text text-anchor="middle" x="364.33" y="-682.79" font-family="Helvetica,sans-Serif" font-size="10.00" fill="#ffffff">element.</text>
<text text-anchor="middle" x="364.33" y="-670.79" font-family="Helvetica,sans-Serif" font-size="10.00" fill="#ffffff">line</text>
</g>
<!-- svgen_attribute&#45;&gt;svgen_element_line -->
<g id="edge8" class="edge">
<title>svgen_attribute&#45;&gt;svgen_element_line</title><style>.edge>path:hover{stroke-width:8}</style>
<path fill="none" stroke="black" d="M296.33,-979.47C287.73,-943.92 324.34,-943.3 345.33,-913.35 384.6,-857.33 421.21,-852.82 430.33,-785.01"/>
<path fill="none" stroke="black" d="M430.33,-783.01C433.06,-757.1 416.38,-732.93 399.11,-715.3"/>
<polygon fill="#f91010" stroke="black" points="401.35,-712.6 391.73,-708.16 396.48,-717.63 401.35,-712.6"/>
</g>
<!-- svgen_element_rect -->
<g id="node19" class="node">
<title>svgen_element_rect</title><style>.edge>path:hover{stroke-width:8}</style>
<ellipse fill="#913030" stroke="black" cx="126.33" cy="-489.34" rx="38.37" ry="31.23"/>
<text text-anchor="middle" x="126.33" y="-498.34" font-family="Helvetica,sans-Serif" font-size="10.00" fill="#ffffff">svgen.</text>
<text text-anchor="middle" x="126.33" y="-486.34" font-family="Helvetica,sans-Serif" font-size="10.00" fill="#ffffff">element.</text>
<text text-anchor="middle" x="126.33" y="-474.34" font-family="Helvetica,sans-Serif" font-size="10.00" fill="#ffffff">rect</text>
</g>
<!-- svgen_attribute&#45;&gt;svgen_element_rect -->
<g id="edge9" class="edge">
<title>svgen_attribute&#45;&gt;svgen_element_rect</title><style>.edge>path:hover{stroke-width:8}</style>
<path fill="none" stroke="black" d="M126.33,-586.56C123.36,-568.4 122.95,-548.06 123.44,-530.77"/>
<polygon fill="#f91010" stroke="black" points="126.95,-530.58 123.85,-520.45 119.96,-530.3 126.95,-530.58"/>
</g>
<!-- svgen_element_svg -->
<g id="node20" class="node">
<title>svgen_element_svg</title><style>.edge>path:hover{stroke-width:8}</style>
<ellipse fill="#ac2b2b" stroke="black" cx="60.33" cy="-391.11" rx="38.37" ry="31.23"/>
<text text-anchor="middle" x="60.33" y="-400.11" font-family="Helvetica,sans-Serif" font-size="10.00" fill="#ffffff">svgen.</text>
<text text-anchor="middle" x="60.33" y="-388.11" font-family="Helvetica,sans-Serif" font-size="10.00" fill="#ffffff">element.</text>
<text text-anchor="middle" x="60.33" y="-376.11" font-family="Helvetica,sans-Serif" font-size="10.00" fill="#ffffff">svg</text>
</g>
<!-- svgen_attribute&#45;&gt;svgen_element_svg -->
<g id="edge10" class="edge">
<title>svgen_attribute&#45;&gt;svgen_element_svg</title><style>.edge>path:hover{stroke-width:8}</style>
<path fill="none" stroke="black" d="M60.33,-488.34C51.84,-471.1 50.98,-449.92 52.61,-431.82"/>
<polygon fill="#f91010" stroke="black" points="56.09,-432.19 53.78,-421.85 49.14,-431.38 56.09,-432.19"/>
</g>
<!-- svgen_attribute_style -->
<g id="node4" class="node">
<title>svgen_attribute_style</title><style>.edge>path:hover{stroke-width:8}</style>
<ellipse fill="#b03a3a" stroke="black" cx="598.33" cy="-489.34" rx="38.66" ry="31.23"/>
<text text-anchor="middle" x="598.33" y="-498.34" font-family="Helvetica,sans-Serif" font-size="10.00" fill="#ffffff">svgen.</text>
<text text-anchor="middle" x="598.33" y="-486.34" font-family="Helvetica,sans-Serif" font-size="10.00" fill="#ffffff">attribute.</text>
<text text-anchor="middle" x="598.33" y="-474.34" font-family="Helvetica,sans-Serif" font-size="10.00" fill="#ffffff">style</text>
</g>
<!-- svgen_attribute_style&#45;&gt;svgen_element -->
<g id="edge11" class="edge">
<title>svgen_attribute_style&#45;&gt;svgen_element</title><style>.edge>path:hover{stroke-width:8}</style>
<path fill="none" stroke="black" d="M568.12,-469.44C513.18,-435.09 397.37,-362.67 340.8,-327.3"/>
<polygon fill="#b03a3a" stroke="black" points="342.59,-324.29 332.25,-321.96 338.88,-330.23 342.59,-324.29"/>
</g>
<!-- svgen_attribute_viewbox -->
<g id="node5" class="node">
<title>svgen_attribute_viewbox</title><style>.edge>path:hover{stroke-width:8}</style>
<ellipse fill="#ca1616" stroke="black" cx="231.33" cy="-685.79" rx="38.66" ry="31.23"/>
<text text-anchor="middle" x="231.33" y="-694.79" font-family="Helvetica,sans-Serif" font-size="10.00" fill="#ffffff">svgen.</text>
<text text-anchor="middle" x="231.33" y="-682.79" font-family="Helvetica,sans-Serif" font-size="10.00" fill="#ffffff">attribute.</text>
<text text-anchor="middle" x="231.33" y="-670.79" font-family="Helvetica,sans-Serif" font-size="10.00" fill="#ffffff">viewbox</text>
</g>
<!-- svgen_attribute_viewbox&#45;&gt;svgen_app -->
<g id="edge12" class="edge">
<title>svgen_attribute_viewbox&#45;&gt;svgen_app</title><style>.edge>path:hover{stroke-width:8}</style>
<path fill="none" stroke="black" d="M231.33,-488.34C203.08,-412.86 200.41,-381.42 231.33,-307"/>
</g>
<!-- svgen_attribute_viewbox&#45;&gt;svgen_element_circle -->
<g id="edge13" class="edge">
<title>svgen_attribute_viewbox&#45;&gt;svgen_element_circle</title><style>.edge>path:hover{stroke-width:8}</style>
<path fill="none" stroke="black" d="M231.33,-586.56C232.65,-545.61 275.2,-519.57 310.09,-505.05"/>
<polygon fill="#ca1616" stroke="black" points="311.67,-508.19 319.69,-501.26 309.1,-501.68 311.67,-508.19"/>
</g>
<!-- svgen_attribute_viewbox&#45;&gt;svgen_element_rect -->
<g id="edge14" class="edge">
<title>svgen_attribute_viewbox&#45;&gt;svgen_element_rect</title><style>.edge>path:hover{stroke-width:8}</style>
<path fill="none" stroke="black" d="M230.83,-654.44C230.65,-635.5 230.62,-610.6 231.33,-588.56"/>
<path fill="none" stroke="black" d="M231.33,-586.56C232.48,-550.84 198.86,-524.78 169.36,-508.86"/>
<polygon fill="#ca1616" stroke="black" points="170.88,-505.7 160.39,-504.25 167.68,-511.93 170.88,-505.7"/>
</g>
<!-- svgen_attribute_viewbox&#45;&gt;svgen_element_svg -->
<g id="edge15" class="edge">
<title>svgen_attribute_viewbox&#45;&gt;svgen_element_svg</title><style>.edge>path:hover{stroke-width:8}</style>
<path fill="none" stroke="black" d="M231.33,-586.56C232.71,-543.82 246.32,-530.39 231.33,-490.34"/>
<path fill="none" stroke="black" d="M231.33,-488.34C212.39,-437.72 151.26,-412.89 107.5,-401.32"/>
<polygon fill="#ca1616" stroke="black" points="108.17,-397.88 97.62,-398.85 106.47,-404.67 108.17,-397.88"/>
</g>
<!-- svgen_cartesian&#45;&gt;svgen_attribute_viewbox -->
<g id="edge16" class="edge">
<title>svgen_cartesian&#45;&gt;svgen_attribute_viewbox</title><style>.edge>path:hover{stroke-width:8}</style>
<path fill="none" stroke="black" d="M231.33,-783.01C228.98,-764.9 228.64,-744.72 229.02,-727.53"/>
<polygon fill="#ef0606" stroke="black" points="232.52,-727.36 229.34,-717.25 225.53,-727.14 232.52,-727.36"/>
</g>
<!-- svgen_cartesian&#45;&gt;svgen_element_circle -->
<g id="edge17" class="edge">
<title>svgen_cartesian&#45;&gt;svgen_element_circle</title><style>.edge>path:hover{stroke-width:8}</style>
<path fill="none" stroke="black" d="M231.33,-783.01C226.66,-747.01 262.7,-749.18 279.33,-716.9 311.31,-654.84 334.09,-576.48 345.94,-530.06"/>
<polygon fill="#ef0606" stroke="black" points="349.4,-530.65 348.44,-520.09 342.61,-528.94 349.4,-530.65"/>
</g>
<!-- svgen_cartesian&#45;&gt;svgen_element_line -->
<g id="edge18" class="edge">
<title>svgen_cartesian&#45;&gt;svgen_element_line</title><style>.edge>path:hover{stroke-width:8}</style>
<path fill="none" stroke="black" d="M231.33,-783.01C229.82,-771.39 285.21,-734.95 324.97,-710.4"/>
<polygon fill="#ef0606" stroke="black" points="327,-713.26 333.69,-705.05 323.34,-707.3 327,-713.26"/>
</g>
<!-- svgen_cartesian&#45;&gt;svgen_element_rect -->
<g id="edge19" class="edge">
<title>svgen_cartesian&#45;&gt;svgen_element_rect</title><style>.edge>path:hover{stroke-width:8}</style>
<path fill="none" stroke="black" d="M275.93,-862.58C258.48,-844.72 235.53,-815.98 231.33,-785.01"/>
<path fill="none" stroke="black" d="M231.33,-783.01C224.33,-731.37 177.23,-737.28 164.33,-686.79"/>
</g>
<!-- svgen_cartesian_circle&#45;&gt;svgen_element_circle -->
<g id="edge20" class="edge">
<title>svgen_cartesian_circle&#45;&gt;svgen_element_circle</title><style>.edge>path:hover{stroke-width:8}</style>
<path fill="none" stroke="black" d="M405.83,-559.76C397.96,-548.93 388.77,-536.3 380.4,-524.8"/>
<polygon fill="#b03a3a" stroke="black" points="383.2,-522.69 374.49,-516.67 377.54,-526.81 383.2,-522.69"/>
</g>
<!-- svgen_cartesian_rectangle&#45;&gt;svgen_attribute_viewbox -->
<g id="edge21" class="edge">
<title>svgen_cartesian_rectangle&#45;&gt;svgen_attribute_viewbox</title><style>.edge>path:hover{stroke-width:8}</style>
<path fill="none" stroke="black" d="M164.33,-783.01C164.51,-757.19 180.97,-733.33 197.53,-715.82"/>
<polygon fill="#bc2f2f" stroke="black" points="200.02,-718.29 204.58,-708.73 195.05,-713.35 200.02,-718.29"/>
</g>
<!-- svgen_cartesian_rectangle&#45;&gt;svgen_element_rect -->
<g id="edge22" class="edge">
<title>svgen_cartesian_rectangle&#45;&gt;svgen_element_rect</title><style>.edge>path:hover{stroke-width:8}</style>
<path fill="none" stroke="black" d="M181.54,-853C173.08,-834.24 164.17,-808.78 164.33,-785.01"/>
<path fill="none" stroke="black" d="M164.33,-783.01C164.63,-740.25 171.33,-728.98 164.33,-686.79"/>
<path fill="none" stroke="black" d="M164.33,-684.79C154.84,-627.54 151.68,-613.36 140.33,-556.45 138.64,-547.93 136.75,-538.81 134.92,-530.15"/>
<polygon fill="#bc2f2f" stroke="black" points="138.32,-529.31 132.83,-520.26 131.48,-530.76 138.32,-529.31"/>
</g>
<!-- svgen_color -->
<g id="node9" class="node">
<title>svgen_color</title><style>.edge>path:hover{stroke-width:8}</style>
<ellipse fill="#d10505" stroke="black" cx="542.33" cy="-685.79" rx="40.25" ry="18"/>
<text text-anchor="middle" x="542.33" y="-682.79" font-family="Helvetica,sans-Serif" font-size="10.00" fill="#ffffff">svgen.color</text>
</g>
<!-- svgen_color&#45;&gt;svgen_attribute_style -->
<g id="edge23" class="edge">
<title>svgen_color&#45;&gt;svgen_attribute_style</title><style>.edge>path:hover{stroke-width:8}</style>
<path fill="none" stroke="black" d="M547.21,-667.87C556.02,-637.25 574.85,-571.88 587.03,-529.58"/>
<polygon fill="#d10505" stroke="black" points="590.42,-530.46 589.83,-519.88 583.69,-528.52 590.42,-530.46"/>
</g>
<!-- svgen_color&#45;&gt;svgen_element_circle -->
<g id="edge24" class="edge">
<title>svgen_color&#45;&gt;svgen_element_circle</title><style>.edge>path:hover{stroke-width:8}</style>
<path fill="none" stroke="black" d="M537.25,-667.88C528.53,-641.32 508.52,-589.45 476.33,-556.45 454.84,-534.42 424.42,-517.84 399.45,-506.79"/>
<polygon fill="#d10505" stroke="black" points="400.75,-503.54 390.18,-502.83 398,-509.98 400.75,-503.54"/>
</g>
<!-- svgen_color&#45;&gt;svgen_element_rect -->
<g id="edge25" class="edge">
<title>svgen_color&#45;&gt;svgen_element_rect</title><style>.edge>path:hover{stroke-width:8}</style>
<path fill="none" stroke="black" d="M511.9,-673.88C477.94,-661.47 421.57,-640.12 374.33,-618.68 299.48,-584.69 214.98,-539.42 166.45,-512.72"/>
<polygon fill="#d10505" stroke="black" points="167.98,-509.57 157.53,-507.8 164.6,-515.7 167.98,-509.57"/>
</g>
<!-- svgen_color_alpha -->
<g id="node10" class="node">
<title>svgen_color_alpha</title><style>.edge>path:hover{stroke-width:8}</style>
<ellipse fill="#bc2f2f" stroke="black" cx="550.33" cy="-980.47" rx="32.29" ry="31.23"/>
<text text-anchor="middle" x="550.33" y="-989.47" font-family="Helvetica,sans-Serif" font-size="10.00" fill="#ffffff">svgen.</text>
<text text-anchor="middle" x="550.33" y="-977.47" font-family="Helvetica,sans-Serif" font-size="10.00" fill="#ffffff">color.</text>
<text text-anchor="middle" x="550.33" y="-965.47" font-family="Helvetica,sans-Serif" font-size="10.00" fill="#ffffff">alpha</text>
</g>
<!-- svgen_color_hsl -->
<g id="node12" class="node">
<title>svgen_color_hsl</title><style>.edge>path:hover{stroke-width:8}</style>
<ellipse fill="#b42d2d" stroke="black" cx="501.33" cy="-882.24" rx="32.29" ry="31.23"/>
<text text-anchor="middle" x="501.33" y="-891.24" font-family="Helvetica,sans-Serif" font-size="10.00" fill="#ffffff">svgen.</text>
<text text-anchor="middle" x="501.33" y="-879.24" font-family="Helvetica,sans-Serif" font-size="10.00" fill="#ffffff">color.</text>
<text text-anchor="middle" x="501.33" y="-867.24" font-family="Helvetica,sans-Serif" font-size="10.00" fill="#ffffff">hsl</text>
</g>
<!-- svgen_color_alpha&#45;&gt;svgen_color_hsl -->
<g id="edge26" class="edge">
<title>svgen_color_alpha&#45;&gt;svgen_color_hsl</title><style>.edge>path:hover{stroke-width:8}</style>
<path fill="none" stroke="black" d="M536.42,-952.15C531.3,-942.09 525.42,-930.54 519.95,-919.79"/>
<polygon fill="#bc2f2f" stroke="black" points="522.94,-917.95 515.28,-910.62 516.7,-921.12 522.94,-917.95"/>
</g>
<!-- svgen_color_rgb -->
<g id="node14" class="node">
<title>svgen_color_rgb</title><style>.edge>path:hover{stroke-width:8}</style>
<ellipse fill="#b42d2d" stroke="black" cx="599.33" cy="-882.24" rx="32.29" ry="31.23"/>
<text text-anchor="middle" x="599.33" y="-891.24" font-family="Helvetica,sans-Serif" font-size="10.00" fill="#ffffff">svgen.</text>
<text text-anchor="middle" x="599.33" y="-879.24" font-family="Helvetica,sans-Serif" font-size="10.00" fill="#ffffff">color.</text>
<text text-anchor="middle" x="599.33" y="-867.24" font-family="Helvetica,sans-Serif" font-size="10.00" fill="#ffffff">rgb</text>
</g>
<!-- svgen_color_alpha&#45;&gt;svgen_color_rgb -->
<g id="edge27" class="edge">
<title>svgen_color_alpha&#45;&gt;svgen_color_rgb</title><style>.edge>path:hover{stroke-width:8}</style>
<path fill="none" stroke="black" d="M564.24,-952.15C569.36,-942.09 575.25,-930.54 580.72,-919.79"/>
<polygon fill="#bc2f2f" stroke="black" points="583.97,-921.12 585.39,-910.62 577.73,-917.95 583.97,-921.12"/>
</g>
<!-- svgen_color_conversion -->
<g id="node11" class="node">
<title>svgen_color_conversion</title><style>.edge>path:hover{stroke-width:8}</style>
<ellipse fill="#a83838" stroke="black" cx="542.33" cy="-784.01" rx="45.52" ry="31.23"/>
<text text-anchor="middle" x="542.33" y="-793.01" font-family="Helvetica,sans-Serif" font-size="10.00" fill="#ffffff">svgen.</text>
<text text-anchor="middle" x="542.33" y="-781.01" font-family="Helvetica,sans-Serif" font-size="10.00" fill="#ffffff">color.</text>
<text text-anchor="middle" x="542.33" y="-769.01" font-family="Helvetica,sans-Serif" font-size="10.00" fill="#ffffff">conversion</text>
</g>
<!-- svgen_color_conversion&#45;&gt;svgen_color -->
<g id="edge28" class="edge">
<title>svgen_color_conversion&#45;&gt;svgen_color</title><style>.edge>path:hover{stroke-width:8}</style>
<path fill="none" stroke="black" d="M542.33,-752.83C542.33,-740.51 542.33,-726.36 542.33,-714.32"/>
<polygon fill="#a83838" stroke="black" points="545.83,-713.98 542.33,-703.98 538.83,-713.98 545.83,-713.98"/>
</g>
<!-- svgen_color_hsl&#45;&gt;svgen_color -->
<g id="edge29" class="edge">
<title>svgen_color_hsl&#45;&gt;svgen_color</title><style>.edge>path:hover{stroke-width:8}</style>
<path fill="none" stroke="black" d="M491.08,-852.59C483.19,-825.99 475.48,-785.68 487.33,-752.9 493.33,-736.32 505.5,-720.96 516.88,-709.23"/>
<polygon fill="#b42d2d" stroke="black" points="519.48,-711.58 524.16,-702.07 514.58,-706.58 519.48,-711.58"/>
</g>
<!-- svgen_color_hsl&#45;&gt;svgen_color_conversion -->
<g id="edge30" class="edge">
<title>svgen_color_hsl&#45;&gt;svgen_color_conversion</title><style>.edge>path:hover{stroke-width:8}</style>
<path fill="none" stroke="black" d="M513.3,-853.15C517.28,-843.82 521.78,-833.26 526.02,-823.29"/>
<polygon fill="#b42d2d" stroke="black" points="529.29,-824.55 529.99,-813.98 522.85,-821.8 529.29,-824.55"/>
</g>
<!-- svgen_color_numbers -->
<g id="node13" class="node">
<title>svgen_color_numbers</title><style>.edge>path:hover{stroke-width:8}</style>
<ellipse fill="#db2f2f" stroke="black" cx="550.33" cy="-1078.69" rx="38.65" ry="31.23"/>
<text text-anchor="middle" x="550.33" y="-1087.69" font-family="Helvetica,sans-Serif" font-size="10.00" fill="#ffffff">svgen.</text>
<text text-anchor="middle" x="550.33" y="-1075.69" font-family="Helvetica,sans-Serif" font-size="10.00" fill="#ffffff">color.</text>
<text text-anchor="middle" x="550.33" y="-1063.69" font-family="Helvetica,sans-Serif" font-size="10.00" fill="#ffffff">numbers</text>
</g>
<!-- svgen_color_numbers&#45;&gt;svgen_color_alpha -->
<g id="edge31" class="edge">
<title>svgen_color_numbers&#45;&gt;svgen_color_alpha</title><style>.edge>path:hover{stroke-width:8}</style>
<path fill="none" stroke="black" d="M550.33,-1047.51C550.33,-1039.44 550.33,-1030.58 550.33,-1022.04"/>
<polygon fill="#db2f2f" stroke="black" points="553.83,-1021.87 550.33,-1011.87 546.83,-1021.87 553.83,-1021.87"/>
</g>
<!-- svgen_color_numbers&#45;&gt;svgen_color_hsl -->
<g id="edge32" class="edge">
<title>svgen_color_numbers&#45;&gt;svgen_color_hsl</title><style>.edge>path:hover{stroke-width:8}</style>
<path fill="none" stroke="black" d="M530.16,-1051.83C522.2,-1040.19 513.89,-1025.86 509.33,-1011.58 500.24,-983.07 498.48,-949.23 498.86,-923.46"/>
<polygon fill="#db2f2f" stroke="black" points="502.36,-923.39 499.13,-913.3 495.37,-923.21 502.36,-923.39"/>
</g>
<!-- svgen_color_numbers&#45;&gt;svgen_color_rgb -->
<g id="edge33" class="edge">
<title>svgen_color_numbers&#45;&gt;svgen_color_rgb</title><style>.edge>path:hover{stroke-width:8}</style>
<path fill="none" stroke="black" d="M570.51,-1051.83C578.47,-1040.19 586.78,-1025.86 591.33,-1011.58 600.42,-983.07 602.19,-949.23 601.81,-923.46"/>
<polygon fill="#db2f2f" stroke="black" points="605.3,-923.21 601.54,-913.3 598.3,-923.39 605.3,-923.21"/>
</g>
<!-- svgen_color_rgb&#45;&gt;svgen_color -->
<g id="edge34" class="edge">
<title>svgen_color_rgb&#45;&gt;svgen_color</title><style>.edge>path:hover{stroke-width:8}</style>
<path fill="none" stroke="black" d="M604.34,-851.42C607.57,-824.73 609.21,-784.98 597.33,-752.9 591.21,-736.36 579.02,-721.01 567.68,-709.27"/>
<polygon fill="#b42d2d" stroke="black" points="569.99,-706.64 560.42,-702.1 565.07,-711.62 569.99,-706.64"/>
</g>
<!-- svgen_color_rgb&#45;&gt;svgen_color_conversion -->
<g id="edge35" class="edge">
<title>svgen_color_rgb&#45;&gt;svgen_color_conversion</title><style>.edge>path:hover{stroke-width:8}</style>
<path fill="none" stroke="black" d="M583.76,-854.95C577.72,-844.76 570.71,-832.92 564.19,-821.91"/>
<polygon fill="#b42d2d" stroke="black" points="567.2,-820.12 559.09,-813.3 561.17,-823.69 567.2,-820.12"/>
</g>
<!-- svgen_config -->
<g id="node15" class="node">
<title>svgen_config</title><style>.edge>path:hover{stroke-width:8}</style>
<ellipse fill="#ce3b3b" stroke="black" cx="459.33" cy="-306" rx="43.27" ry="18"/>
<text text-anchor="middle" x="459.33" y="-303" font-family="Helvetica,sans-Serif" font-size="10.00" fill="#ffffff">svgen.config</text>
</g>
<!-- svgen_config&#45;&gt;svgen_app -->
<g id="edge36" class="edge">
<title>svgen_config&#45;&gt;svgen_app</title><style>.edge>path:hover{stroke-width:8}</style>
<path fill="none" stroke="black" d="M488.59,-292.64C512.1,-280.61 539.89,-260.45 531.33,-235"/>
<path fill="none" stroke="black" d="M531.33,-233C517.78,-192.7 469.26,-175.58 431.83,-168.32"/>
<polygon fill="#ce3b3b" stroke="black" points="432.07,-164.81 421.61,-166.53 430.85,-171.71 432.07,-164.81"/>
</g>
<!-- svgen_script -->
<g id="node22" class="node">
<title>svgen_script</title><style>.edge>path:hover{stroke-width:8}</style>
<ellipse fill="#a83838" stroke="black" cx="385.33" cy="-234" rx="41.91" ry="18"/>
<text text-anchor="middle" x="385.33" y="-231" font-family="Helvetica,sans-Serif" font-size="10.00" fill="#ffffff">svgen.script</text>
</g>
<!-- svgen_config&#45;&gt;svgen_script -->
<g id="edge37" class="edge">
<title>svgen_config&#45;&gt;svgen_script</title><style>.edge>path:hover{stroke-width:8}</style>
<path fill="none" stroke="black" d="M442.54,-289.12C432.73,-279.83 420.18,-267.96 409.33,-257.7"/>
<polygon fill="#ce3b3b" stroke="black" points="411.47,-254.91 401.8,-250.58 406.66,-259.99 411.47,-254.91"/>
</g>
<!-- svgen_element&#45;&gt;svgen_app -->
<g id="edge38" class="edge">
<title>svgen_element&#45;&gt;svgen_app</title><style>.edge>path:hover{stroke-width:8}</style>
<path fill="none" stroke="black" d="M275.75,-292.4C251.06,-280.59 222.72,-260.88 231.33,-235"/>
</g>
<!-- svgen_element&#45;&gt;svgen_script -->
<g id="edge39" class="edge">
<title>svgen_element&#45;&gt;svgen_script</title><style>.edge>path:hover{stroke-width:8}</style>
<path fill="none" stroke="black" d="M325.81,-289.12C336.12,-279.74 349.33,-267.73 360.69,-257.41"/>
<polygon fill="#e50505" stroke="black" points="363.15,-259.9 368.2,-250.58 358.44,-254.72 363.15,-259.9"/>
</g>
<!-- svgen_element_rect&#45;&gt;svgen_element_svg -->
<g id="edge40" class="edge">
<title>svgen_element_rect&#45;&gt;svgen_element_svg</title><style>.edge>path:hover{stroke-width:8}</style>
<path fill="none" stroke="black" d="M108.12,-461.79C100.77,-451.06 92.17,-438.53 84.31,-427.08"/>
<polygon fill="#913030" stroke="black" points="87.03,-424.84 78.48,-418.57 81.25,-428.8 87.03,-424.84"/>
</g>
<!-- svgen_element_svg&#45;&gt;svgen_app -->
<g id="edge41" class="edge">
<title>svgen_element_svg&#45;&gt;svgen_app</title><style>.edge>path:hover{stroke-width:8}</style>
<path fill="none" stroke="black" d="M98.36,-385.75C141.86,-378.35 209.86,-358.67 231.33,-307"/>
<path fill="none" stroke="black" d="M231.33,-305C243.27,-276.27 221.51,-264.52 231.33,-235"/>
<path fill="none" stroke="black" d="M231.33,-233C245.62,-190.06 298.5,-173.45 338.34,-167.03"/>
<polygon fill="#ac2b2b" stroke="black" points="339.02,-170.47 348.41,-165.58 338.02,-163.54 339.02,-170.47"/>
</g>
<!-- svgen_element_svg&#45;&gt;svgen_script -->
<g id="edge42" class="edge">
<title>svgen_element_svg&#45;&gt;svgen_script</title><style>.edge>path:hover{stroke-width:8}</style>
<path fill="none" stroke="black" d="M98.65,-386.95C172.17,-380.09 329.05,-361.37 366.33,-324 382.24,-308.05 386.33,-282.26 386.82,-262.53"/>
<polygon fill="#ac2b2b" stroke="black" points="390.32,-262.29 386.78,-252.3 383.32,-262.32 390.32,-262.29"/>
</g>
<!-- svgen_entry&#45;&gt;svgen___main__ -->
<g id="edge43" class="edge">
<title>svgen_entry&#45;&gt;svgen___main__</title><style>.edge>path:hover{stroke-width:8}</style>
<path fill="none" stroke="black" d="M385.33,-71.7C385.33,-63.98 385.33,-54.71 385.33,-46.11"/>
<polygon fill="#b83d3d" stroke="black" points="388.83,-46.1 385.33,-36.1 381.83,-46.1 388.83,-46.1"/>
</g>
<!-- svgen_script&#45;&gt;svgen_app -->
<g id="edge44" class="edge">
<title>svgen_script&#45;&gt;svgen_app</title><style>.edge>path:hover{stroke-width:8}</style>
<path fill="none" stroke="black" d="M385.33,-215.7C385.33,-207.98 385.33,-198.71 385.33,-190.11"/>
<polygon fill="#a83838" stroke="black" points="388.83,-190.1 385.33,-180.1 381.83,-190.1 388.83,-190.1"/>
</g>
</g>
</svg>
