<?xml version="1.0" encoding="UTF-8" standalone="no"?>
<!DOCTYPE svg PUBLIC "-//W3C//DTD SVG 1.1//EN"
 "http://www.w3.org/Graphics/SVG/1.1/DTD/svg11.dtd">
<!-- Generated by graphviz version 3.0.1~dev.20220405.0544 (20220405.0544)
 -->
<!-- Title: G Pages: 1 -->
<svg width="895pt" height="1361pt"
 viewBox="0.00 0.00 894.53 1360.51" xmlns="http://www.w3.org/2000/svg" xmlns:xlink="http://www.w3.org/1999/xlink">
<g id="graph0" class="graph" transform="scale(1 1) rotate(0) translate(4 1356.51)">
<title>G</title><style>.edge>path:hover{stroke-width:8}</style>
<polygon fill="white" stroke="transparent" points="-4,4 -4,-1356.51 890.53,-1356.51 890.53,4 -4,4"/>
<!-- svgen___main__ -->
<g id="node1" class="node">
<title>svgen___main__</title><style>.edge>path:hover{stroke-width:8}</style>
<ellipse fill="#ac4949" stroke="black" cx="586.05" cy="-18" rx="54" ry="18"/>
<text text-anchor="middle" x="586.05" y="-15" font-family="Helvetica,sans-Serif" font-size="10.00" fill="#ffffff">svgen.__main__</text>
</g>
<!-- svgen_app -->
<g id="node2" class="node">
<title>svgen_app</title><style>.edge>path:hover{stroke-width:8}</style>
<ellipse fill="#822b2b" stroke="black" cx="586.05" cy="-162" rx="37.24" ry="18"/>
<text text-anchor="middle" x="586.05" y="-159" font-family="Helvetica,sans-Serif" font-size="10.00" fill="#ffffff">svgen.app</text>
</g>
<!-- svgen_entry -->
<g id="node25" class="node">
<title>svgen_entry</title><style>.edge>path:hover{stroke-width:8}</style>
<ellipse fill="#b83d3d" stroke="black" cx="586.05" cy="-90" rx="40.92" ry="18"/>
<text text-anchor="middle" x="586.05" y="-87" font-family="Helvetica,sans-Serif" font-size="10.00" fill="#ffffff">svgen.entry</text>
</g>
<!-- svgen_app&#45;&gt;svgen_entry -->
<g id="edge1" class="edge">
<title>svgen_app&#45;&gt;svgen_entry</title><style>.edge>path:hover{stroke-width:8}</style>
<path fill="none" stroke="black" d="M586.05,-143.7C586.05,-135.98 586.05,-126.71 586.05,-118.11"/>
<polygon fill="#822b2b" stroke="black" points="589.55,-118.1 586.05,-108.1 582.55,-118.1 589.55,-118.1"/>
</g>
<!-- svgen_attribute -->
<g id="node3" class="node">
<title>svgen_attribute</title><style>.edge>path:hover{stroke-width:8}</style>
<ellipse fill="#f91010" stroke="black" cx="501.05" cy="-1329.88" rx="36.73" ry="22.76"/>
<text text-anchor="middle" x="501.05" y="-1332.88" font-family="Helvetica,sans-Serif" font-size="10.00" fill="#ffffff">svgen.</text>
<text text-anchor="middle" x="501.05" y="-1320.88" font-family="Helvetica,sans-Serif" font-size="10.00" fill="#ffffff">attribute</text>
</g>
<!-- svgen_attribute&#45;&gt;svgen_app -->
<g id="edge2" class="edge">
<title>svgen_attribute&#45;&gt;svgen_app</title><style>.edge>path:hover{stroke-width:8}</style>
<path fill="none" stroke="black" d="M869.05,-565.71C846.39,-537.07 867.14,-437.84 869.05,-401.37"/>
</g>
<!-- svgen_cartesian -->
<g id="node6" class="node">
<title>svgen_cartesian</title><style>.edge>path:hover{stroke-width:8}</style>
<ellipse fill="#db0505" stroke="black" cx="525.05" cy="-1043.69" rx="40.01" ry="22.76"/>
<text text-anchor="middle" x="525.05" y="-1046.69" font-family="Helvetica,sans-Serif" font-size="10.00" fill="#ffffff">svgen.</text>
<text text-anchor="middle" x="525.05" y="-1034.69" font-family="Helvetica,sans-Serif" font-size="10.00" fill="#ffffff">cartesian</text>
</g>
<!-- svgen_attribute&#45;&gt;svgen_cartesian -->
<g id="edge3" class="edge">
<title>svgen_attribute&#45;&gt;svgen_cartesian</title><style>.edge>path:hover{stroke-width:8}</style>
<path fill="none" stroke="black" d="M869.05,-1239.14C872.74,-1196.53 890.52,-1179.9 869.05,-1142.92"/>
<path fill="none" stroke="black" d="M869.05,-1140.92C802.69,-1026.59 702.6,-1121.83 579.05,-1074.8 572.65,-1072.37 566.08,-1069.27 559.83,-1066"/>
<polygon fill="#f91010" stroke="black" points="561.41,-1062.87 550.96,-1061.14 558.04,-1069.01 561.41,-1062.87"/>
</g>
<!-- svgen_cartesian_circle -->
<g id="node7" class="node">
<title>svgen_cartesian_circle</title><style>.edge>path:hover{stroke-width:8}</style>
<ellipse fill="#a13535" stroke="black" cx="57.05" cy="-1043.69" rx="41.94" ry="31.23"/>
<text text-anchor="middle" x="57.05" y="-1052.69" font-family="Helvetica,sans-Serif" font-size="10.00" fill="#ffffff">svgen.</text>
<text text-anchor="middle" x="57.05" y="-1040.69" font-family="Helvetica,sans-Serif" font-size="10.00" fill="#ffffff">cartesian.</text>
<text text-anchor="middle" x="57.05" y="-1028.69" font-family="Helvetica,sans-Serif" font-size="10.00" fill="#ffffff">circle</text>
</g>
<!-- svgen_attribute&#45;&gt;svgen_cartesian_circle -->
<g id="edge4" class="edge">
<title>svgen_attribute&#45;&gt;svgen_cartesian_circle</title><style>.edge>path:hover{stroke-width:8}</style>
<path fill="none" stroke="black" d="M57.05,-1140.92C47.83,-1124.05 46.9,-1102.91 48.67,-1084.74"/>
<polygon fill="#f91010" stroke="black" points="52.15,-1085.08 49.94,-1074.72 45.21,-1084.2 52.15,-1085.08"/>
</g>
<!-- svgen_cartesian_point -->
<g id="node10" class="node">
<title>svgen_cartesian_point</title><style>.edge>path:hover{stroke-width:8}</style>
<ellipse fill="#db0505" stroke="black" cx="419.05" cy="-1141.92" rx="41.94" ry="31.23"/>
<text text-anchor="middle" x="419.05" y="-1150.92" font-family="Helvetica,sans-Serif" font-size="10.00" fill="#ffffff">svgen.</text>
<text text-anchor="middle" x="419.05" y="-1138.92" font-family="Helvetica,sans-Serif" font-size="10.00" fill="#ffffff">cartesian.</text>
<text text-anchor="middle" x="419.05" y="-1126.92" font-family="Helvetica,sans-Serif" font-size="10.00" fill="#ffffff">point</text>
</g>
<!-- svgen_attribute&#45;&gt;svgen_cartesian_point -->
<g id="edge5" class="edge">
<title>svgen_attribute&#45;&gt;svgen_cartesian_point</title><style>.edge>path:hover{stroke-width:8}</style>
<path fill="none" stroke="black" d="M538.02,-1327.82C630.2,-1324.17 863.25,-1308.29 869.05,-1241.14"/>
<path fill="none" stroke="black" d="M869.05,-1239.14C872.53,-1198.88 589.36,-1162.14 470.52,-1148.52"/>
<polygon fill="#f91010" stroke="black" points="470.89,-1145.04 460.56,-1147.39 470.1,-1151.99 470.89,-1145.04"/>
</g>
<!-- svgen_element -->
<g id="node20" class="node">
<title>svgen_element</title><style>.edge>path:hover{stroke-width:8}</style>
<ellipse fill="#e50505" stroke="black" cx="443.05" cy="-310.63" rx="48.96" ry="18"/>
<text text-anchor="middle" x="443.05" y="-307.63" font-family="Helvetica,sans-Serif" font-size="10.00" fill="#ffffff">svgen.element</text>
</g>
<!-- svgen_attribute&#45;&gt;svgen_element -->
<g id="edge6" class="edge">
<title>svgen_attribute&#45;&gt;svgen_element</title><style>.edge>path:hover{stroke-width:8}</style>
<path fill="none" stroke="black" d="M465.01,-1324.43C382.62,-1313.62 183.72,-1283.7 133.05,-1241.14"/>
<path fill="none" stroke="black" d="M133.05,-1239.14C91.33,-1204.09 83.2,-1190.73 57.05,-1142.92"/>
<path fill="none" stroke="black" d="M57.05,-1140.92C39.25,-1108.36 18.03,-1109.93 6.05,-1074.8 -2.87,-1048.63 -0.31,-1039.49 6.05,-1012.58 30.49,-909.32 55.7,-888.43 113.05,-799.16 184.73,-687.61 326.07,-696.72 300.05,-566.71"/>
<path fill="none" stroke="black" d="M300.05,-565.71C296.22,-539.67 264.7,-553.3 253.05,-529.71 240.81,-504.91 237.92,-490.63 253.05,-467.48 293.14,-406.16 367.89,-465.08 404.05,-401.37"/>
<path fill="none" stroke="black" d="M404.05,-399.37C414.82,-379.37 425.17,-355.8 432.5,-338.13"/>
<polygon fill="#f91010" stroke="black" points="435.9,-339.06 436.45,-328.48 429.43,-336.41 435.9,-339.06"/>
</g>
<!-- svgen_element_circle -->
<g id="node21" class="node">
<title>svgen_element_circle</title><style>.edge>path:hover{stroke-width:8}</style>
<ellipse fill="#723131" stroke="black" cx="300.05" cy="-498.59" rx="38.37" ry="31.23"/>
<text text-anchor="middle" x="300.05" y="-507.59" font-family="Helvetica,sans-Serif" font-size="10.00" fill="#ffffff">svgen.</text>
<text text-anchor="middle" x="300.05" y="-495.59" font-family="Helvetica,sans-Serif" font-size="10.00" fill="#ffffff">element.</text>
<text text-anchor="middle" x="300.05" y="-483.59" font-family="Helvetica,sans-Serif" font-size="10.00" fill="#ffffff">circle</text>
</g>
<!-- svgen_attribute&#45;&gt;svgen_element_circle -->
<g id="edge7" class="edge">
<title>svgen_attribute&#45;&gt;svgen_element_circle</title><style>.edge>path:hover{stroke-width:8}</style>
<path fill="none" stroke="black" d="M300.05,-565.71C298.4,-557.46 297.7,-548.53 297.53,-539.97"/>
<polygon fill="#f91010" stroke="black" points="301.03,-539.8 297.57,-529.79 294.03,-539.78 301.03,-539.8"/>
</g>
<!-- svgen_element_line -->
<g id="node22" class="node">
<title>svgen_element_line</title><style>.edge>path:hover{stroke-width:8}</style>
<ellipse fill="#8f3d3d" stroke="black" cx="231.05" cy="-830.27" rx="38.37" ry="31.23"/>
<text text-anchor="middle" x="231.05" y="-839.27" font-family="Helvetica,sans-Serif" font-size="10.00" fill="#ffffff">svgen.</text>
<text text-anchor="middle" x="231.05" y="-827.27" font-family="Helvetica,sans-Serif" font-size="10.00" fill="#ffffff">element.</text>
<text text-anchor="middle" x="231.05" y="-815.27" font-family="Helvetica,sans-Serif" font-size="10.00" fill="#ffffff">line</text>
</g>
<!-- svgen_attribute&#45;&gt;svgen_element_line -->
<g id="edge8" class="edge">
<title>svgen_attribute&#45;&gt;svgen_element_line</title><style>.edge>path:hover{stroke-width:8}</style>
<path fill="none" stroke="black" d="M133.05,-1239.14C67.23,-1181.36 144.5,-1129.83 165.05,-1044.69"/>
<path fill="none" stroke="black" d="M165.05,-1042.69C181.35,-981.83 203.83,-912.26 217.89,-870.06"/>
<polygon fill="#f91010" stroke="black" points="221.25,-871.06 221.11,-860.46 214.61,-868.83 221.25,-871.06"/>
</g>
<!-- svgen_element_rect -->
<g id="node23" class="node">
<title>svgen_element_rect</title><style>.edge>path:hover{stroke-width:8}</style>
<ellipse fill="#7a2828" stroke="black" cx="578.05" cy="-498.59" rx="38.37" ry="31.23"/>
<text text-anchor="middle" x="578.05" y="-507.59" font-family="Helvetica,sans-Serif" font-size="10.00" fill="#ffffff">svgen.</text>
<text text-anchor="middle" x="578.05" y="-495.59" font-family="Helvetica,sans-Serif" font-size="10.00" fill="#ffffff">element.</text>
<text text-anchor="middle" x="578.05" y="-483.59" font-family="Helvetica,sans-Serif" font-size="10.00" fill="#ffffff">rect</text>
</g>
<!-- svgen_attribute&#45;&gt;svgen_element_rect -->
<g id="edge9" class="edge">
<title>svgen_attribute&#45;&gt;svgen_element_rect</title><style>.edge>path:hover{stroke-width:8}</style>
<path fill="none" stroke="black" d="M869.05,-1140.92C823.77,-1062.91 869.05,-1028.17 869.05,-937.98 869.05,-937.98 869.05,-937.98 869.05,-731.04 869.05,-658 907.96,-628.52 869.05,-566.71"/>
<path fill="none" stroke="black" d="M869.05,-565.71C865.29,-560.83 706.62,-526.73 625.2,-509.51"/>
<polygon fill="#f91010" stroke="black" points="625.71,-506.04 615.2,-507.39 624.26,-512.88 625.71,-506.04"/>
</g>
<!-- svgen_element_svg -->
<g id="node24" class="node">
<title>svgen_element_svg</title><style>.edge>path:hover{stroke-width:8}</style>
<ellipse fill="#ac2b2b" stroke="black" cx="578.05" cy="-400.37" rx="38.37" ry="31.23"/>
<text text-anchor="middle" x="578.05" y="-409.37" font-family="Helvetica,sans-Serif" font-size="10.00" fill="#ffffff">svgen.</text>
<text text-anchor="middle" x="578.05" y="-397.37" font-family="Helvetica,sans-Serif" font-size="10.00" fill="#ffffff">element.</text>
<text text-anchor="middle" x="578.05" y="-385.37" font-family="Helvetica,sans-Serif" font-size="10.00" fill="#ffffff">svg</text>
</g>
<!-- svgen_attribute&#45;&gt;svgen_element_svg -->
<g id="edge10" class="edge">
<title>svgen_attribute&#45;&gt;svgen_element_svg</title><style>.edge>path:hover{stroke-width:8}</style>
<path fill="none" stroke="black" d="M869.05,-565.71C836.87,-523.96 803.13,-553.41 756.05,-529.71 701.56,-502.26 645.58,-458.92 611.3,-430.32"/>
<polygon fill="#f91010" stroke="black" points="613.39,-427.51 603.49,-423.74 608.89,-432.86 613.39,-427.51"/>
</g>
<!-- svgen_attribute_style -->
<g id="node4" class="node">
<title>svgen_attribute_style</title><style>.edge>path:hover{stroke-width:8}</style>
<ellipse fill="#b03a3a" stroke="black" cx="433.05" cy="-498.59" rx="38.66" ry="31.23"/>
<text text-anchor="middle" x="433.05" y="-507.59" font-family="Helvetica,sans-Serif" font-size="10.00" fill="#ffffff">svgen.</text>
<text text-anchor="middle" x="433.05" y="-495.59" font-family="Helvetica,sans-Serif" font-size="10.00" fill="#ffffff">attribute.</text>
<text text-anchor="middle" x="433.05" y="-483.59" font-family="Helvetica,sans-Serif" font-size="10.00" fill="#ffffff">style</text>
</g>
<!-- svgen_attribute_style&#45;&gt;svgen_element -->
<g id="edge11" class="edge">
<title>svgen_attribute_style&#45;&gt;svgen_element</title><style>.edge>path:hover{stroke-width:8}</style>
<path fill="none" stroke="black" d="M414.14,-471C402.38,-450.93 391.65,-423.22 404.05,-401.37"/>
</g>
<!-- svgen_attribute_viewbox -->
<g id="node5" class="node">
<title>svgen_attribute_viewbox</title><style>.edge>path:hover{stroke-width:8}</style>
<ellipse fill="#af1313" stroke="black" cx="405.05" cy="-633.82" rx="38.66" ry="31.23"/>
<text text-anchor="middle" x="405.05" y="-642.82" font-family="Helvetica,sans-Serif" font-size="10.00" fill="#ffffff">svgen.</text>
<text text-anchor="middle" x="405.05" y="-630.82" font-family="Helvetica,sans-Serif" font-size="10.00" fill="#ffffff">attribute.</text>
<text text-anchor="middle" x="405.05" y="-618.82" font-family="Helvetica,sans-Serif" font-size="10.00" fill="#ffffff">viewbox</text>
</g>
<!-- svgen_attribute_viewbox&#45;&gt;svgen_app -->
<g id="edge12" class="edge">
<title>svgen_attribute_viewbox&#45;&gt;svgen_app</title><style>.edge>path:hover{stroke-width:8}</style>
<path fill="none" stroke="black" d="M391.05,-565.71C389.32,-549.58 386.39,-545.87 385.05,-529.71 376.19,-422.65 330.66,-380.63 385.05,-288 409.54,-246.31 448.47,-271.6 480.05,-235"/>
<path fill="none" stroke="black" d="M480.05,-233C499.31,-209.94 528.09,-191.6 550.81,-179.49"/>
<polygon fill="#af1313" stroke="black" points="552.53,-182.54 559.81,-174.84 549.32,-176.32 552.53,-182.54"/>
</g>
<!-- svgen_attribute_viewbox&#45;&gt;svgen_element_circle -->
<g id="edge13" class="edge">
<title>svgen_attribute_viewbox&#45;&gt;svgen_element_circle</title><style>.edge>path:hover{stroke-width:8}</style>
<path fill="none" stroke="black" d="M397.57,-603.06C395.04,-591.75 392.49,-578.7 391.05,-566.71"/>
<path fill="none" stroke="black" d="M391.05,-565.71C390.24,-558.9 362.93,-539.66 338.44,-523.68"/>
<polygon fill="#af1313" stroke="black" points="340.24,-520.68 329.95,-518.19 336.45,-526.56 340.24,-520.68"/>
</g>
<!-- svgen_attribute_viewbox&#45;&gt;svgen_element_rect -->
<g id="edge14" class="edge">
<title>svgen_attribute_viewbox&#45;&gt;svgen_element_rect</title><style>.edge>path:hover{stroke-width:8}</style>
<path fill="none" stroke="black" d="M440.35,-620.31C465.9,-609.63 499.58,-591.96 521.05,-566.71"/>
<path fill="none" stroke="black" d="M521.05,-565.71C530.29,-554.85 540.43,-543.05 549.56,-532.46"/>
<polygon fill="#af1313" stroke="black" points="552.43,-534.49 556.32,-524.64 547.13,-529.92 552.43,-534.49"/>
</g>
<!-- svgen_attribute_viewbox&#45;&gt;svgen_element_svg -->
<g id="edge15" class="edge">
<title>svgen_attribute_viewbox&#45;&gt;svgen_element_svg</title><style>.edge>path:hover{stroke-width:8}</style>
<path fill="none" stroke="black" d="M391.05,-565.71C385.92,-522.93 446.81,-555.85 481.05,-529.71 490.2,-522.72 527.76,-471.55 553.37,-435.97"/>
<polygon fill="#af1313" stroke="black" points="556.29,-437.91 559.28,-427.75 550.6,-433.83 556.29,-437.91"/>
</g>
<!-- svgen_cartesian&#45;&gt;svgen_attribute_viewbox -->
<g id="edge16" class="edge">
<title>svgen_cartesian&#45;&gt;svgen_attribute_viewbox</title><style>.edge>path:hover{stroke-width:8}</style>
<path fill="none" stroke="black" d="M405.05,-731.04C395.84,-714.17 394.91,-693.03 396.68,-674.86"/>
<polygon fill="#db0505" stroke="black" points="400.16,-675.2 397.94,-664.84 393.22,-674.33 400.16,-675.2"/>
</g>
<!-- svgen_cartesian&#45;&gt;svgen_element_circle -->
<g id="edge17" class="edge">
<title>svgen_cartesian&#45;&gt;svgen_element_circle</title><style>.edge>path:hover{stroke-width:8}</style>
<path fill="none" stroke="black" d="M495.05,-935.98C481.26,-915.53 416.88,-754.69 405.05,-733.04"/>
<path fill="none" stroke="black" d="M405.05,-731.04C386.39,-682.39 345.51,-686.39 338.05,-634.82"/>
</g>
<!-- svgen_cartesian&#45;&gt;svgen_element_line -->
<g id="edge18" class="edge">
<title>svgen_cartesian&#45;&gt;svgen_element_line</title><style>.edge>path:hover{stroke-width:8}</style>
<path fill="none" stroke="black" d="M522.82,-1020.98C519.65,-998.56 512.18,-963.38 495.05,-937.98"/>
<path fill="none" stroke="black" d="M495.05,-935.98C484.36,-920.13 491.07,-909.22 476.05,-897.38 418.8,-852.27 386.09,-881.59 316.05,-861.38 302.63,-857.51 288.23,-852.68 275.18,-848.02"/>
<polygon fill="#db0505" stroke="black" points="276.08,-844.63 265.49,-844.52 273.7,-851.21 276.08,-844.63"/>
</g>
<!-- svgen_cartesian&#45;&gt;svgen_element_rect -->
<g id="edge19" class="edge">
<title>svgen_cartesian&#45;&gt;svgen_element_rect</title><style>.edge>path:hover{stroke-width:8}</style>
<path fill="none" stroke="black" d="M558.39,-1030.71C574.53,-1025.02 594.23,-1018.24 612.05,-1012.58 666.74,-995.19 689.93,-1010.72 736.05,-976.58 798.07,-930.67 817.92,-907.3 831.05,-831.27"/>
<path fill="none" stroke="black" d="M831.05,-829.27C849.65,-689.94 693.4,-571.74 617.67,-523.2"/>
<polygon fill="#db0505" stroke="black" points="619.18,-520.01 608.85,-517.63 615.44,-525.93 619.18,-520.01"/>
</g>
<!-- svgen_cartesian_circle&#45;&gt;svgen_element_circle -->
<g id="edge20" class="edge">
<title>svgen_cartesian_circle&#45;&gt;svgen_element_circle</title><style>.edge>path:hover{stroke-width:8}</style>
<path fill="none" stroke="black" d="M62.28,-1012.74C70.75,-969.93 90.34,-889.94 127.05,-831.27"/>
<path fill="none" stroke="black" d="M127.05,-829.27C135.35,-816.33 132.3,-809.06 144.05,-799.16 210.83,-742.9 295.58,-813.69 329.05,-733.04"/>
<path fill="none" stroke="black" d="M329.05,-731.04C345.52,-691.37 344.2,-677.33 338.05,-634.82"/>
<path fill="none" stroke="black" d="M338.05,-632.82C333.36,-600.31 322.86,-564.58 314.08,-538.31"/>
<polygon fill="#a13535" stroke="black" points="317.36,-537.07 310.82,-528.73 310.73,-539.32 317.36,-537.07"/>
</g>
<!-- svgen_cartesian_mutate -->
<g id="node8" class="node">
<title>svgen_cartesian_mutate</title><style>.edge>path:hover{stroke-width:8}</style>
<ellipse fill="#f91010" stroke="black" cx="419.05" cy="-1240.14" rx="41.94" ry="31.23"/>
<text text-anchor="middle" x="419.05" y="-1249.14" font-family="Helvetica,sans-Serif" font-size="10.00" fill="#ffffff">svgen.</text>
<text text-anchor="middle" x="419.05" y="-1237.14" font-family="Helvetica,sans-Serif" font-size="10.00" fill="#ffffff">cartesian.</text>
<text text-anchor="middle" x="419.05" y="-1225.14" font-family="Helvetica,sans-Serif" font-size="10.00" fill="#ffffff">mutate</text>
</g>
<!-- svgen_cartesian_mutate&#45;&gt;svgen_attribute_viewbox -->
<g id="edge21" class="edge">
<title>svgen_cartesian_mutate&#45;&gt;svgen_attribute_viewbox</title><style>.edge>path:hover{stroke-width:8}</style>
<path fill="none" stroke="black" d="M127.05,-935.98C129.95,-903.17 158.85,-820.36 184.05,-799.16 239.5,-752.51 281.68,-801.66 343.05,-763.16 357.55,-754.06 358.18,-747.68 367.05,-733.04"/>
<path fill="none" stroke="black" d="M367.05,-731.04C377.8,-713.28 386.59,-691.94 393,-673.87"/>
<polygon fill="#f91010" stroke="black" points="396.38,-674.81 396.31,-664.22 389.76,-672.54 396.38,-674.81"/>
</g>
<!-- svgen_cartesian_mutate&#45;&gt;svgen_cartesian_circle -->
<g id="edge22" class="edge">
<title>svgen_cartesian_mutate&#45;&gt;svgen_cartesian_circle</title><style>.edge>path:hover{stroke-width:8}</style>
<path fill="none" stroke="black" d="M377.15,-1236.91C322.44,-1232.23 225.62,-1217.76 157.05,-1173.03 122,-1150.16 94.02,-1110.77 76.68,-1081.65"/>
<polygon fill="#f91010" stroke="black" points="79.68,-1079.86 71.64,-1072.97 73.63,-1083.37 79.68,-1079.86"/>
</g>
<!-- svgen_cartesian_mutate&#45;&gt;svgen_cartesian_point -->
<g id="edge23" class="edge">
<title>svgen_cartesian_mutate&#45;&gt;svgen_cartesian_point</title><style>.edge>path:hover{stroke-width:8}</style>
<path fill="none" stroke="black" d="M419.05,-1208.96C419.05,-1200.89 419.05,-1192.03 419.05,-1183.5"/>
<polygon fill="#f91010" stroke="black" points="422.55,-1183.32 419.05,-1173.32 415.55,-1183.32 422.55,-1183.32"/>
</g>
<!-- svgen_cartesian_rectangle -->
<g id="node11" class="node">
<title>svgen_cartesian_rectangle</title><style>.edge>path:hover{stroke-width:8}</style>
<ellipse fill="#c20a0a" stroke="black" cx="367.05" cy="-830.27" rx="41.94" ry="31.23"/>
<text text-anchor="middle" x="367.05" y="-839.27" font-family="Helvetica,sans-Serif" font-size="10.00" fill="#ffffff">svgen.</text>
<text text-anchor="middle" x="367.05" y="-827.27" font-family="Helvetica,sans-Serif" font-size="10.00" fill="#ffffff">cartesian.</text>
<text text-anchor="middle" x="367.05" y="-815.27" font-family="Helvetica,sans-Serif" font-size="10.00" fill="#ffffff">rectangle</text>
</g>
<!-- svgen_cartesian_mutate&#45;&gt;svgen_cartesian_rectangle -->
<g id="edge24" class="edge">
<title>svgen_cartesian_mutate&#45;&gt;svgen_cartesian_rectangle</title><style>.edge>path:hover{stroke-width:8}</style>
<path fill="none" stroke="black" d="M171.05,-1140.92C154.11,-1114.07 282.69,-940.92 340.2,-865.87"/>
<polygon fill="#f91010" stroke="black" points="343.21,-867.71 346.52,-857.65 337.66,-863.44 343.21,-867.71"/>
</g>
<!-- svgen_cartesian_rectangle_corner -->
<g id="node12" class="node">
<title>svgen_cartesian_rectangle_corner</title><style>.edge>path:hover{stroke-width:8}</style>
<ellipse fill="#a83838" stroke="black" cx="425.05" cy="-936.98" rx="42.23" ry="39.7"/>
<text text-anchor="middle" x="425.05" y="-951.98" font-family="Helvetica,sans-Serif" font-size="10.00" fill="#ffffff">svgen.</text>
<text text-anchor="middle" x="425.05" y="-939.98" font-family="Helvetica,sans-Serif" font-size="10.00" fill="#ffffff">cartesian.</text>
<text text-anchor="middle" x="425.05" y="-927.98" font-family="Helvetica,sans-Serif" font-size="10.00" fill="#ffffff">rectangle.</text>
<text text-anchor="middle" x="425.05" y="-915.98" font-family="Helvetica,sans-Serif" font-size="10.00" fill="#ffffff">corner</text>
</g>
<!-- svgen_cartesian_mutate&#45;&gt;svgen_cartesian_rectangle_corner -->
<g id="edge25" class="edge">
<title>svgen_cartesian_mutate&#45;&gt;svgen_cartesian_rectangle_corner</title><style>.edge>path:hover{stroke-width:8}</style>
<path fill="none" stroke="black" d="M460.43,-1234.69C542.39,-1224.72 718.27,-1197.11 727.05,-1142.92"/>
<path fill="none" stroke="black" d="M727.05,-1140.92C745.52,-1027.04 561.57,-1152.23 476.05,-1074.8 451.01,-1052.13 438.22,-1015.97 431.71,-986.52"/>
<polygon fill="#f91010" stroke="black" points="435.08,-985.53 429.66,-976.42 428.22,-986.92 435.08,-985.53"/>
</g>
<!-- svgen_cartesian_rectangle_grid -->
<g id="node13" class="node">
<title>svgen_cartesian_rectangle_grid</title><style>.edge>path:hover{stroke-width:8}</style>
<ellipse fill="#ac2b2b" stroke="black" cx="565.05" cy="-936.98" rx="42.23" ry="39.7"/>
<text text-anchor="middle" x="565.05" y="-951.98" font-family="Helvetica,sans-Serif" font-size="10.00" fill="#ffffff">svgen.</text>
<text text-anchor="middle" x="565.05" y="-939.98" font-family="Helvetica,sans-Serif" font-size="10.00" fill="#ffffff">cartesian.</text>
<text text-anchor="middle" x="565.05" y="-927.98" font-family="Helvetica,sans-Serif" font-size="10.00" fill="#ffffff">rectangle.</text>
<text text-anchor="middle" x="565.05" y="-915.98" font-family="Helvetica,sans-Serif" font-size="10.00" fill="#ffffff">grid</text>
</g>
<!-- svgen_cartesian_mutate&#45;&gt;svgen_cartesian_rectangle_grid -->
<g id="edge26" class="edge">
<title>svgen_cartesian_mutate&#45;&gt;svgen_cartesian_rectangle_grid</title><style>.edge>path:hover{stroke-width:8}</style>
<path fill="none" stroke="black" d="M727.05,-1140.92C738.79,-1068.54 595.1,-1117.98 593.05,-1044.69"/>
</g>
<!-- svgen_cartesian_mutate&#45;&gt;svgen_element_circle -->
<g id="edge27" class="edge">
<title>svgen_cartesian_mutate&#45;&gt;svgen_element_circle</title><style>.edge>path:hover{stroke-width:8}</style>
<path fill="none" stroke="black" d="M377.14,-1236.55C319.67,-1230.48 218.17,-1210.28 171.05,-1142.92"/>
<path fill="none" stroke="black" d="M171.05,-1140.92C144.71,-1103.26 126.35,-945.7 127.05,-937.98"/>
<path fill="none" stroke="black" d="M127.05,-935.98C128.01,-889.45 102.18,-870.6 127.05,-831.27"/>
</g>
<!-- svgen_cartesian_mutate&#45;&gt;svgen_element_line -->
<g id="edge28" class="edge">
<title>svgen_cartesian_mutate&#45;&gt;svgen_element_line</title><style>.edge>path:hover{stroke-width:8}</style>
<path fill="none" stroke="black" d="M171.05,-1140.92C146.49,-1105.8 155,-1086.34 165.05,-1044.69"/>
</g>
<!-- svgen_cartesian_mutate&#45;&gt;svgen_element_rect -->
<g id="edge29" class="edge">
<title>svgen_cartesian_mutate&#45;&gt;svgen_element_rect</title><style>.edge>path:hover{stroke-width:8}</style>
<path fill="none" stroke="black" d="M727.05,-1140.92C733.9,-1098.7 695.52,-1073.58 727.05,-1044.69"/>
</g>
<!-- svgen_cartesian_plane -->
<g id="node9" class="node">
<title>svgen_cartesian_plane</title><style>.edge>path:hover{stroke-width:8}</style>
<ellipse fill="#b03a3a" stroke="black" cx="349.05" cy="-1043.69" rx="41.94" ry="31.23"/>
<text text-anchor="middle" x="349.05" y="-1052.69" font-family="Helvetica,sans-Serif" font-size="10.00" fill="#ffffff">svgen.</text>
<text text-anchor="middle" x="349.05" y="-1040.69" font-family="Helvetica,sans-Serif" font-size="10.00" fill="#ffffff">cartesian.</text>
<text text-anchor="middle" x="349.05" y="-1028.69" font-family="Helvetica,sans-Serif" font-size="10.00" fill="#ffffff">plane</text>
</g>
<!-- svgen_cartesian_plane&#45;&gt;svgen_attribute_viewbox -->
<g id="edge30" class="edge">
<title>svgen_cartesian_plane&#45;&gt;svgen_attribute_viewbox</title><style>.edge>path:hover{stroke-width:8}</style>
<path fill="none" stroke="black" d="M336.83,-1013.75C319.01,-967.27 290.65,-873.67 316.05,-799.16 317.55,-794.77 364.6,-736.98 367.05,-733.04"/>
</g>
<!-- svgen_cartesian_point&#45;&gt;svgen_cartesian -->
<g id="edge31" class="edge">
<title>svgen_cartesian_point&#45;&gt;svgen_cartesian</title><style>.edge>path:hover{stroke-width:8}</style>
<path fill="none" stroke="black" d="M444.98,-1117.38C460.79,-1103.03 480.98,-1084.7 497.13,-1070.04"/>
<polygon fill="#db0505" stroke="black" points="499.64,-1072.48 504.7,-1063.17 494.94,-1067.3 499.64,-1072.48"/>
</g>
<!-- svgen_cartesian_point&#45;&gt;svgen_cartesian_circle -->
<g id="edge32" class="edge">
<title>svgen_cartesian_point&#45;&gt;svgen_cartesian_circle</title><style>.edge>path:hover{stroke-width:8}</style>
<path fill="none" stroke="black" d="M378.87,-1131.9C326.26,-1119.9 231.28,-1097.52 151.05,-1074.8 135.77,-1070.48 119.23,-1065.33 104.35,-1060.53"/>
<polygon fill="#db0505" stroke="black" points="105.43,-1057.21 94.84,-1057.44 103.26,-1063.86 105.43,-1057.21"/>
</g>
<!-- svgen_cartesian_point&#45;&gt;svgen_cartesian_plane -->
<g id="edge33" class="edge">
<title>svgen_cartesian_point&#45;&gt;svgen_cartesian_plane</title><style>.edge>path:hover{stroke-width:8}</style>
<path fill="none" stroke="black" d="M399.55,-1114.11C391.82,-1103.48 382.81,-1091.1 374.57,-1079.77"/>
<polygon fill="#db0505" stroke="black" points="377.16,-1077.38 368.45,-1071.35 371.5,-1081.5 377.16,-1077.38"/>
</g>
<!-- svgen_cartesian_point&#45;&gt;svgen_cartesian_rectangle -->
<g id="edge34" class="edge">
<title>svgen_cartesian_point&#45;&gt;svgen_cartesian_rectangle</title><style>.edge>path:hover{stroke-width:8}</style>
<path fill="none" stroke="black" d="M421.11,-1110.44C421.88,-1091.45 421.97,-1066.55 419.05,-1044.69"/>
<path fill="none" stroke="black" d="M419.05,-1042.69C414.35,-1007.46 385.8,-1010.12 374.05,-976.58 362.14,-942.57 361.34,-901.33 362.95,-871.49"/>
<polygon fill="#db0505" stroke="black" points="366.45,-871.65 363.61,-861.44 359.47,-871.19 366.45,-871.65"/>
</g>
<!-- svgen_cartesian_point&#45;&gt;svgen_cartesian_rectangle_corner -->
<g id="edge35" class="edge">
<title>svgen_cartesian_point&#45;&gt;svgen_cartesian_rectangle_corner</title><style>.edge>path:hover{stroke-width:8}</style>
<path fill="none" stroke="black" d="M419.05,-1042.69C416.62,-1024.43 417.04,-1004.26 418.45,-986.53"/>
<polygon fill="#db0505" stroke="black" points="421.95,-986.68 419.38,-976.41 414.98,-986.05 421.95,-986.68"/>
</g>
<!-- svgen_cartesian_point&#45;&gt;svgen_cartesian_rectangle_grid -->
<g id="edge36" class="edge">
<title>svgen_cartesian_point&#45;&gt;svgen_cartesian_rectangle_grid</title><style>.edge>path:hover{stroke-width:8}</style>
<path fill="none" stroke="black" d="M460.35,-1136.32C512.34,-1128 594.74,-1105.25 593.05,-1044.69"/>
<path fill="none" stroke="black" d="M593.05,-1042.69C592.51,-1023.17 587.8,-1002.27 582.4,-984.31"/>
<polygon fill="#db0505" stroke="black" points="585.7,-983.15 579.35,-974.67 579.03,-985.26 585.7,-983.15"/>
</g>
<!-- svgen_cartesian_point&#45;&gt;svgen_element_circle -->
<g id="edge37" class="edge">
<title>svgen_cartesian_point&#45;&gt;svgen_element_circle</title><style>.edge>path:hover{stroke-width:8}</style>
<path fill="none" stroke="black" d="M379.06,-1132.28C344.21,-1123.03 294.06,-1105.39 260.05,-1074.8 237.13,-1054.19 110.42,-857.23 127.05,-831.27"/>
</g>
<!-- svgen_cartesian_point&#45;&gt;svgen_element_line -->
<g id="edge38" class="edge">
<title>svgen_cartesian_point&#45;&gt;svgen_element_line</title><style>.edge>path:hover{stroke-width:8}</style>
<path fill="none" stroke="black" d="M380.71,-1129.01C353.83,-1118.76 319.08,-1101.36 298.05,-1074.8 250.69,-1014.97 236.76,-923.96 232.69,-871.8"/>
<polygon fill="#db0505" stroke="black" points="236.17,-871.33 231.99,-861.59 229.19,-871.81 236.17,-871.33"/>
</g>
<!-- svgen_cartesian_point&#45;&gt;svgen_element_rect -->
<g id="edge39" class="edge">
<title>svgen_cartesian_point&#45;&gt;svgen_element_rect</title><style>.edge>path:hover{stroke-width:8}</style>
<path fill="none" stroke="black" d="M461.11,-1141.03C521.23,-1139.2 632.77,-1128.14 708.05,-1074.8 720.97,-1065.65 714.78,-1054.68 727.05,-1044.69"/>
<path fill="none" stroke="black" d="M727.05,-1042.69C808.28,-976.6 826.13,-935.87 831.05,-831.27"/>
</g>
<!-- svgen_cartesian_rectangle&#45;&gt;svgen_attribute_viewbox -->
<g id="edge40" class="edge">
<title>svgen_cartesian_rectangle&#45;&gt;svgen_attribute_viewbox</title><style>.edge>path:hover{stroke-width:8}</style>
<path fill="none" stroke="black" d="M359.28,-799.25C355.81,-779.04 354.86,-752.61 367.05,-733.04"/>
</g>
<!-- svgen_cartesian_rectangle&#45;&gt;svgen_element_circle -->
<g id="edge41" class="edge">
<title>svgen_cartesian_rectangle&#45;&gt;svgen_element_circle</title><style>.edge>path:hover{stroke-width:8}</style>
<path fill="none" stroke="black" d="M345.62,-803.44C332.22,-784.01 319.21,-756.77 329.05,-733.04"/>
</g>
<!-- svgen_cartesian_rectangle&#45;&gt;svgen_element_rect -->
<g id="edge42" class="edge">
<title>svgen_cartesian_rectangle&#45;&gt;svgen_element_rect</title><style>.edge>path:hover{stroke-width:8}</style>
<path fill="none" stroke="black" d="M406.62,-819.63C446.44,-807.35 504.28,-781.62 521.05,-733.04"/>
<path fill="none" stroke="black" d="M521.05,-731.04C544.89,-662 473.74,-622.35 521.05,-566.71"/>
</g>
<!-- svgen_cartesian_rectangle_corner&#45;&gt;svgen_cartesian_rectangle -->
<g id="edge43" class="edge">
<title>svgen_cartesian_rectangle_corner&#45;&gt;svgen_cartesian_rectangle</title><style>.edge>path:hover{stroke-width:8}</style>
<path fill="none" stroke="black" d="M405.9,-901.4C400.02,-890.79 393.53,-879.08 387.57,-868.31"/>
<polygon fill="#a83838" stroke="black" points="390.61,-866.58 382.71,-859.53 384.49,-869.97 390.61,-866.58"/>
</g>
<!-- svgen_cartesian_rectangle_grid&#45;&gt;svgen_attribute_viewbox -->
<g id="edge44" class="edge">
<title>svgen_cartesian_rectangle_grid&#45;&gt;svgen_attribute_viewbox</title><style>.edge>path:hover{stroke-width:8}</style>
<path fill="none" stroke="black" d="M547.84,-900.33C538.78,-880.4 528.13,-854.88 521.05,-831.27"/>
<path fill="none" stroke="black" d="M521.05,-829.27C502.54,-767.48 460.1,-705.01 432.02,-668.12"/>
<polygon fill="#ac2b2b" stroke="black" points="434.79,-665.98 425.91,-660.2 429.24,-670.26 434.79,-665.98"/>
</g>
<!-- svgen_cartesian_rectangle_grid&#45;&gt;svgen_element_rect -->
<g id="edge45" class="edge">
<title>svgen_cartesian_rectangle_grid&#45;&gt;svgen_element_rect</title><style>.edge>path:hover{stroke-width:8}</style>
<path fill="none" stroke="black" d="M521.05,-829.27C507.98,-788.55 509.17,-774.12 521.05,-733.04"/>
</g>
<!-- svgen_color -->
<g id="node14" class="node">
<title>svgen_color</title><style>.edge>path:hover{stroke-width:8}</style>
<ellipse fill="#d10505" stroke="black" cx="616.05" cy="-633.82" rx="40.25" ry="18"/>
<text text-anchor="middle" x="616.05" y="-630.82" font-family="Helvetica,sans-Serif" font-size="10.00" fill="#ffffff">svgen.color</text>
</g>
<!-- svgen_color&#45;&gt;svgen_attribute_style -->
<g id="edge46" class="edge">
<title>svgen_color&#45;&gt;svgen_attribute_style</title><style>.edge>path:hover{stroke-width:8}</style>
<path fill="none" stroke="black" d="M608.08,-615.95C601.12,-602.07 590.24,-582.21 578.05,-566.71"/>
<path fill="none" stroke="black" d="M578.05,-565.71C564.99,-549.08 515.84,-528.74 478.35,-515.05"/>
<polygon fill="#d10505" stroke="black" points="479.21,-511.64 468.61,-511.54 476.84,-518.22 479.21,-511.64"/>
</g>
<!-- svgen_color&#45;&gt;svgen_element_circle -->
<g id="edge47" class="edge">
<title>svgen_color&#45;&gt;svgen_element_circle</title><style>.edge>path:hover{stroke-width:8}</style>
<path fill="none" stroke="black" d="M587.73,-620.88C532.29,-597.5 409.11,-545.57 343.36,-517.85"/>
<polygon fill="#d10505" stroke="black" points="344.67,-514.61 334.1,-513.95 341.95,-521.06 344.67,-514.61"/>
</g>
<!-- svgen_color&#45;&gt;svgen_element_rect -->
<g id="edge48" class="edge">
<title>svgen_color&#45;&gt;svgen_element_rect</title><style>.edge>path:hover{stroke-width:8}</style>
<path fill="none" stroke="black" d="M578.05,-565.71C572.22,-558.28 570.13,-548.81 569.99,-539.36"/>
<polygon fill="#d10505" stroke="black" points="573.49,-539.39 570.51,-529.22 566.5,-539.03 573.49,-539.39"/>
</g>
<!-- svgen_color_alpha -->
<g id="node15" class="node">
<title>svgen_color_alpha</title><style>.edge>path:hover{stroke-width:8}</style>
<ellipse fill="#bc2f2f" stroke="black" cx="695.05" cy="-936.98" rx="32.29" ry="31.23"/>
<text text-anchor="middle" x="695.05" y="-945.98" font-family="Helvetica,sans-Serif" font-size="10.00" fill="#ffffff">svgen.</text>
<text text-anchor="middle" x="695.05" y="-933.98" font-family="Helvetica,sans-Serif" font-size="10.00" fill="#ffffff">color.</text>
<text text-anchor="middle" x="695.05" y="-921.98" font-family="Helvetica,sans-Serif" font-size="10.00" fill="#ffffff">alpha</text>
</g>
<!-- svgen_color_hsl -->
<g id="node17" class="node">
<title>svgen_color_hsl</title><style>.edge>path:hover{stroke-width:8}</style>
<ellipse fill="#b42d2d" stroke="black" cx="635.05" cy="-830.27" rx="32.29" ry="31.23"/>
<text text-anchor="middle" x="635.05" y="-839.27" font-family="Helvetica,sans-Serif" font-size="10.00" fill="#ffffff">svgen.</text>
<text text-anchor="middle" x="635.05" y="-827.27" font-family="Helvetica,sans-Serif" font-size="10.00" fill="#ffffff">color.</text>
<text text-anchor="middle" x="635.05" y="-815.27" font-family="Helvetica,sans-Serif" font-size="10.00" fill="#ffffff">hsl</text>
</g>
<!-- svgen_color_alpha&#45;&gt;svgen_color_hsl -->
<g id="edge49" class="edge">
<title>svgen_color_alpha&#45;&gt;svgen_color_hsl</title><style>.edge>path:hover{stroke-width:8}</style>
<path fill="none" stroke="black" d="M679.76,-909.29C672.35,-896.36 663.36,-880.67 655.39,-866.75"/>
<polygon fill="#bc2f2f" stroke="black" points="658.33,-864.85 650.32,-857.91 652.26,-868.33 658.33,-864.85"/>
</g>
<!-- svgen_color_rgb -->
<g id="node19" class="node">
<title>svgen_color_rgb</title><style>.edge>path:hover{stroke-width:8}</style>
<ellipse fill="#b42d2d" stroke="black" cx="717.05" cy="-830.27" rx="32.29" ry="31.23"/>
<text text-anchor="middle" x="717.05" y="-839.27" font-family="Helvetica,sans-Serif" font-size="10.00" fill="#ffffff">svgen.</text>
<text text-anchor="middle" x="717.05" y="-827.27" font-family="Helvetica,sans-Serif" font-size="10.00" fill="#ffffff">color.</text>
<text text-anchor="middle" x="717.05" y="-815.27" font-family="Helvetica,sans-Serif" font-size="10.00" fill="#ffffff">rgb</text>
</g>
<!-- svgen_color_alpha&#45;&gt;svgen_color_rgb -->
<g id="edge50" class="edge">
<title>svgen_color_alpha&#45;&gt;svgen_color_rgb</title><style>.edge>path:hover{stroke-width:8}</style>
<path fill="none" stroke="black" d="M701.3,-906.25C703.6,-895.31 706.24,-882.74 708.7,-871.05"/>
<polygon fill="#bc2f2f" stroke="black" points="712.16,-871.58 710.79,-861.07 705.31,-870.14 712.16,-871.58"/>
</g>
<!-- svgen_color_conversion -->
<g id="node16" class="node">
<title>svgen_color_conversion</title><style>.edge>path:hover{stroke-width:8}</style>
<ellipse fill="#a83838" stroke="black" cx="643.05" cy="-732.04" rx="45.52" ry="31.23"/>
<text text-anchor="middle" x="643.05" y="-741.04" font-family="Helvetica,sans-Serif" font-size="10.00" fill="#ffffff">svgen.</text>
<text text-anchor="middle" x="643.05" y="-729.04" font-family="Helvetica,sans-Serif" font-size="10.00" fill="#ffffff">color.</text>
<text text-anchor="middle" x="643.05" y="-717.04" font-family="Helvetica,sans-Serif" font-size="10.00" fill="#ffffff">conversion</text>
</g>
<!-- svgen_color_conversion&#45;&gt;svgen_color -->
<g id="edge51" class="edge">
<title>svgen_color_conversion&#45;&gt;svgen_color</title><style>.edge>path:hover{stroke-width:8}</style>
<path fill="none" stroke="black" d="M634.73,-701.39C631.17,-688.7 627.05,-674 623.58,-661.65"/>
<polygon fill="#a83838" stroke="black" points="626.92,-660.6 620.85,-651.92 620.18,-662.49 626.92,-660.6"/>
</g>
<!-- svgen_color_hsl&#45;&gt;svgen_color -->
<g id="edge52" class="edge">
<title>svgen_color_hsl&#45;&gt;svgen_color</title><style>.edge>path:hover{stroke-width:8}</style>
<path fill="none" stroke="black" d="M613.7,-806.75C603.84,-794.79 593.19,-779.26 588.05,-763.16 579.64,-736.81 582.55,-728.03 588.05,-700.93 590.84,-687.19 596.59,-672.76 602.15,-660.9"/>
<polygon fill="#b42d2d" stroke="black" points="605.45,-662.13 606.72,-651.61 599.17,-659.04 605.45,-662.13"/>
</g>
<!-- svgen_color_hsl&#45;&gt;svgen_color_conversion -->
<g id="edge53" class="edge">
<title>svgen_color_hsl&#45;&gt;svgen_color_conversion</title><style>.edge>path:hover{stroke-width:8}</style>
<path fill="none" stroke="black" d="M637.56,-799.09C638.25,-790.85 639,-781.79 639.72,-773.09"/>
<polygon fill="#b42d2d" stroke="black" points="643.21,-773.37 640.55,-763.12 636.24,-772.79 643.21,-773.37"/>
</g>
<!-- svgen_color_numbers -->
<g id="node18" class="node">
<title>svgen_color_numbers</title><style>.edge>path:hover{stroke-width:8}</style>
<ellipse fill="#db2f2f" stroke="black" cx="660.05" cy="-1043.69" rx="38.65" ry="31.23"/>
<text text-anchor="middle" x="660.05" y="-1052.69" font-family="Helvetica,sans-Serif" font-size="10.00" fill="#ffffff">svgen.</text>
<text text-anchor="middle" x="660.05" y="-1040.69" font-family="Helvetica,sans-Serif" font-size="10.00" fill="#ffffff">color.</text>
<text text-anchor="middle" x="660.05" y="-1028.69" font-family="Helvetica,sans-Serif" font-size="10.00" fill="#ffffff">numbers</text>
</g>
<!-- svgen_color_numbers&#45;&gt;svgen_color_alpha -->
<g id="edge54" class="edge">
<title>svgen_color_numbers&#45;&gt;svgen_color_alpha</title><style>.edge>path:hover{stroke-width:8}</style>
<path fill="none" stroke="black" d="M669.8,-1013.52C673.63,-1002.06 678.09,-988.75 682.17,-976.51"/>
<polygon fill="#db2f2f" stroke="black" points="685.51,-977.58 685.36,-966.99 678.87,-975.37 685.51,-977.58"/>
</g>
<!-- svgen_color_numbers&#45;&gt;svgen_color_hsl -->
<g id="edge55" class="edge">
<title>svgen_color_numbers&#45;&gt;svgen_color_hsl</title><style>.edge>path:hover{stroke-width:8}</style>
<path fill="none" stroke="black" d="M656.47,-1012.4C652.09,-975.35 644.66,-912.5 639.8,-871.44"/>
<polygon fill="#db2f2f" stroke="black" points="643.28,-871.02 638.63,-861.5 636.33,-871.85 643.28,-871.02"/>
</g>
<!-- svgen_color_numbers&#45;&gt;svgen_color_rgb -->
<g id="edge56" class="edge">
<title>svgen_color_numbers&#45;&gt;svgen_color_rgb</title><style>.edge>path:hover{stroke-width:8}</style>
<path fill="none" stroke="black" d="M691.09,-1024.91C707.77,-1013.48 726.77,-996.95 736.05,-976.58 751.64,-942.36 742.9,-899.22 732.72,-868.87"/>
<polygon fill="#db2f2f" stroke="black" points="735.9,-867.34 729.25,-859.09 729.3,-869.69 735.9,-867.34"/>
</g>
<!-- svgen_color_rgb&#45;&gt;svgen_color -->
<g id="edge57" class="edge">
<title>svgen_color_rgb&#45;&gt;svgen_color</title><style>.edge>path:hover{stroke-width:8}</style>
<path fill="none" stroke="black" d="M718.61,-798.99C718.68,-771.63 715.33,-731.14 698.05,-700.93 686.76,-681.2 667.1,-665.04 649.86,-653.63"/>
<polygon fill="#b42d2d" stroke="black" points="651.44,-650.5 641.12,-648.11 647.7,-656.41 651.44,-650.5"/>
</g>
<!-- svgen_color_rgb&#45;&gt;svgen_color_conversion -->
<g id="edge58" class="edge">
<title>svgen_color_rgb&#45;&gt;svgen_color_conversion</title><style>.edge>path:hover{stroke-width:8}</style>
<path fill="none" stroke="black" d="M698.19,-804.74C689.63,-793.61 679.35,-780.24 670,-768.08"/>
<polygon fill="#b42d2d" stroke="black" points="672.58,-765.69 663.71,-759.9 667.03,-769.96 672.58,-765.69"/>
</g>
<!-- svgen_element&#45;&gt;svgen_app -->
<g id="edge59" class="edge">
<title>svgen_element&#45;&gt;svgen_app</title><style>.edge>path:hover{stroke-width:8}</style>
<path fill="none" stroke="black" d="M448.72,-292.49C454.66,-276.36 465.22,-252.19 480.05,-235"/>
</g>
<!-- svgen_script -->
<g id="node26" class="node">
<title>svgen_script</title><style>.edge>path:hover{stroke-width:8}</style>
<ellipse fill="#913030" stroke="black" cx="586.05" cy="-234" rx="41.91" ry="18"/>
<text text-anchor="middle" x="586.05" y="-231" font-family="Helvetica,sans-Serif" font-size="10.00" fill="#ffffff">svgen.script</text>
</g>
<!-- svgen_element&#45;&gt;svgen_script -->
<g id="edge60" class="edge">
<title>svgen_element&#45;&gt;svgen_script</title><style>.edge>path:hover{stroke-width:8}</style>
<path fill="none" stroke="black" d="M469.95,-295.59C492.91,-283.61 526.08,-266.3 551.09,-253.25"/>
<polygon fill="#e50505" stroke="black" points="552.99,-256.2 560.24,-248.47 549.76,-249.99 552.99,-256.2"/>
</g>
<!-- svgen_element_rect&#45;&gt;svgen_element_svg -->
<g id="edge61" class="edge">
<title>svgen_element_rect&#45;&gt;svgen_element_svg</title><style>.edge>path:hover{stroke-width:8}</style>
<path fill="none" stroke="black" d="M578.05,-467.41C578.05,-459.34 578.05,-450.48 578.05,-441.95"/>
<polygon fill="#7a2828" stroke="black" points="581.55,-441.77 578.05,-431.77 574.55,-441.77 581.55,-441.77"/>
</g>
<!-- svgen_element_svg&#45;&gt;svgen_app -->
<g id="edge62" class="edge">
<title>svgen_element_svg&#45;&gt;svgen_app</title><style>.edge>path:hover{stroke-width:8}</style>
<path fill="none" stroke="black" d="M554.76,-375.28C540.88,-358.85 525.02,-335.77 520.05,-311.63"/>
<path fill="none" stroke="black" d="M520.05,-309.63C512.47,-272.77 455.47,-263.49 480.05,-235"/>
</g>
<!-- svgen_element_svg&#45;&gt;svgen_script -->
<g id="edge63" class="edge">
<title>svgen_element_svg&#45;&gt;svgen_script</title><style>.edge>path:hover{stroke-width:8}</style>
<path fill="none" stroke="black" d="M520.05,-309.63C515.37,-286.86 533.8,-267.42 552.36,-254.1"/>
<polygon fill="#ac2b2b" stroke="black" points="554.47,-256.9 560.82,-248.42 550.57,-251.09 554.47,-256.9"/>
</g>
<!-- svgen_entry&#45;&gt;svgen___main__ -->
<g id="edge64" class="edge">
<title>svgen_entry&#45;&gt;svgen___main__</title><style>.edge>path:hover{stroke-width:8}</style>
<path fill="none" stroke="black" d="M586.05,-71.7C586.05,-63.98 586.05,-54.71 586.05,-46.11"/>
<polygon fill="#b83d3d" stroke="black" points="589.55,-46.1 586.05,-36.1 582.55,-46.1 589.55,-46.1"/>
</g>
<!-- svgen_script&#45;&gt;svgen_app -->
<g id="edge65" class="edge">
<title>svgen_script&#45;&gt;svgen_app</title><style>.edge>path:hover{stroke-width:8}</style>
<path fill="none" stroke="black" d="M586.05,-215.7C586.05,-207.98 586.05,-198.71 586.05,-190.11"/>
<polygon fill="#913030" stroke="black" points="589.55,-190.1 586.05,-180.1 582.55,-190.1 589.55,-190.1"/>
</g>
<!-- vcorelib -->
<g id="node27" class="node">
<title>vcorelib</title><style>.edge>path:hover{stroke-width:8}</style>
<ellipse fill="#3bcece" stroke="black" cx="710.05" cy="-400.37" rx="30.19" ry="18"/>
<text text-anchor="middle" x="710.05" y="-397.37" font-family="Helvetica,sans-Serif" font-size="10.00" fill="#000000">vcorelib</text>
</g>
<!-- vcorelib&#45;&gt;svgen_app -->
<g id="edge66" class="edge">
<title>vcorelib&#45;&gt;svgen_app</title><style>.edge>path:hover{stroke-width:8}</style>
<path fill="none" stroke="black" d="M762.05,-309.63C758.19,-272.61 821.77,-265.22 800.05,-235"/>
<path fill="none" stroke="black" d="M800.05,-233C762.39,-180.58 684.28,-166.66 633.57,-163.38"/>
<polygon fill="#3bcece" stroke="black" points="633.67,-159.89 623.5,-162.85 633.3,-166.88 633.67,-159.89"/>
</g>
<!-- vcorelib&#45;&gt;svgen_script -->
<g id="edge67" class="edge">
<title>vcorelib&#45;&gt;svgen_script</title><style>.edge>path:hover{stroke-width:8}</style>
<path fill="none" stroke="black" d="M726.24,-385C742.61,-368.74 765.09,-340.69 762.05,-311.63"/>
<path fill="none" stroke="black" d="M762.05,-309.63C756.48,-256.2 687.61,-240.5 637.7,-236.18"/>
<polygon fill="#3bcece" stroke="black" points="637.91,-232.68 627.68,-235.44 637.4,-239.67 637.91,-232.68"/>
</g>
<!-- vcorelib_dict -->
<g id="node28" class="node">
<title>vcorelib_dict</title><style>.edge>path:hover{stroke-width:8}</style>
<ellipse fill="#3bcece" stroke="black" cx="800.05" cy="-400.37" rx="41.24" ry="18"/>
<text text-anchor="middle" x="800.05" y="-397.37" font-family="Helvetica,sans-Serif" font-size="10.00" fill="#000000">vcorelib.dict</text>
</g>
<!-- vcorelib_dict&#45;&gt;svgen_app -->
<g id="edge68" class="edge">
<title>vcorelib_dict&#45;&gt;svgen_app</title><style>.edge>path:hover{stroke-width:8}</style>
<path fill="none" stroke="black" d="M800.05,-309.63C784.89,-280.13 819.41,-261.93 800.05,-235"/>
</g>
<!-- vcorelib_dict&#45;&gt;svgen_script -->
<g id="edge69" class="edge">
<title>vcorelib_dict&#45;&gt;svgen_script</title><style>.edge>path:hover{stroke-width:8}</style>
<path fill="none" stroke="black" d="M804.41,-382.46C808.22,-363.97 811.54,-333.98 800.05,-311.63"/>
<path fill="none" stroke="black" d="M800.05,-309.63C770.63,-252.37 691.42,-237.82 638.07,-234.77"/>
<polygon fill="#3bcece" stroke="black" points="637.92,-231.26 627.77,-234.31 637.6,-238.25 637.92,-231.26"/>
</g>
<!-- vcorelib_dict_config -->
<g id="node29" class="node">
<title>vcorelib_dict_config</title><style>.edge>path:hover{stroke-width:8}</style>
<ellipse fill="#3db8b8" stroke="black" cx="803.05" cy="-498.59" rx="37.79" ry="31.23"/>
<text text-anchor="middle" x="803.05" y="-507.59" font-family="Helvetica,sans-Serif" font-size="10.00" fill="#000000">vcorelib.</text>
<text text-anchor="middle" x="803.05" y="-495.59" font-family="Helvetica,sans-Serif" font-size="10.00" fill="#000000">dict.</text>
<text text-anchor="middle" x="803.05" y="-483.59" font-family="Helvetica,sans-Serif" font-size="10.00" fill="#000000">config</text>
</g>
<!-- vcorelib_dict_config&#45;&gt;svgen_app -->
<g id="edge70" class="edge">
<title>vcorelib_dict_config&#45;&gt;svgen_app</title><style>.edge>path:hover{stroke-width:8}</style>
<path fill="none" stroke="black" d="M829.21,-475.94C847.69,-458.08 869.18,-430.94 869.05,-401.37"/>
<path fill="none" stroke="black" d="M869.05,-399.37C868.72,-320.14 846.29,-299.34 800.05,-235"/>
</g>
<!-- vcorelib_dict_config&#45;&gt;svgen_script -->
<g id="edge71" class="edge">
<title>vcorelib_dict_config&#45;&gt;svgen_script</title><style>.edge>path:hover{stroke-width:8}</style>
<path fill="none" stroke="black" d="M773.1,-479.55C765.95,-475.44 758.29,-471.19 751.05,-467.48 716.36,-449.69 696.27,-461.22 671.05,-431.48 628.38,-381.17 664.23,-346.14 633.05,-288 627.21,-277.1 618.71,-266.59 610.53,-257.84"/>
<polygon fill="#3db8b8" stroke="black" points="613,-255.35 603.51,-250.64 607.99,-260.24 613,-255.35"/>
</g>
<!-- vcorelib_script -->
<g id="node30" class="node">
<title>vcorelib_script</title><style>.edge>path:hover{stroke-width:8}</style>
<ellipse fill="#53b6b6" stroke="black" cx="586.05" cy="-310.63" rx="37.79" ry="22.76"/>
<text text-anchor="middle" x="586.05" y="-313.63" font-family="Helvetica,sans-Serif" font-size="10.00" fill="#000000">vcorelib.</text>
<text text-anchor="middle" x="586.05" y="-301.63" font-family="Helvetica,sans-Serif" font-size="10.00" fill="#000000">script</text>
</g>
<!-- vcorelib_script&#45;&gt;svgen_script -->
<g id="edge72" class="edge">
<title>vcorelib_script&#45;&gt;svgen_script</title><style>.edge>path:hover{stroke-width:8}</style>
<path fill="none" stroke="black" d="M586.05,-287.64C586.05,-279.66 586.05,-270.55 586.05,-262.17"/>
<polygon fill="#53b6b6" stroke="black" points="589.55,-262.1 586.05,-252.1 582.55,-262.1 589.55,-262.1"/>
</g>
</g>
</svg>
