<?xml version="1.0" encoding="UTF-8" standalone="no"?>
<!DOCTYPE svg PUBLIC "-//W3C//DTD SVG 1.1//EN"
 "http://www.w3.org/Graphics/SVG/1.1/DTD/svg11.dtd">
<!-- Generated by graphviz version 3.0.1~dev.20220405.0544 (20220405.0544)
 -->
<!-- Title: G Pages: 1 -->
<svg width="829pt" height="1245pt"
 viewBox="0.00 0.00 829.44 1245.31" xmlns="http://www.w3.org/2000/svg" xmlns:xlink="http://www.w3.org/1999/xlink">
<g id="graph0" class="graph" transform="scale(1 1) rotate(0) translate(4 1241.31)">
<title>G</title><style>.edge>path:hover{stroke-width:8}</style>
<polygon fill="white" stroke="transparent" points="-4,4 -4,-1241.31 825.44,-1241.31 825.44,4 -4,4"/>
<!-- svgen___main__ -->
<g id="node1" class="node">
<title>svgen___main__</title><style>.edge>path:hover{stroke-width:8}</style>
<ellipse fill="#ac4949" stroke="black" cx="555.09" cy="-18" rx="54" ry="18"/>
<text text-anchor="middle" x="555.09" y="-15" font-family="Helvetica,sans-Serif" font-size="10.00" fill="#ffffff">svgen.__main__</text>
</g>
<!-- svgen_app -->
<g id="node2" class="node">
<title>svgen_app</title><style>.edge>path:hover{stroke-width:8}</style>
<ellipse fill="#822b2b" stroke="black" cx="555.09" cy="-162" rx="37.24" ry="18"/>
<text text-anchor="middle" x="555.09" y="-159" font-family="Helvetica,sans-Serif" font-size="10.00" fill="#ffffff">svgen.app</text>
</g>
<!-- svgen_entry -->
<g id="node23" class="node">
<title>svgen_entry</title><style>.edge>path:hover{stroke-width:8}</style>
<ellipse fill="#b83d3d" stroke="black" cx="555.09" cy="-90" rx="40.92" ry="18"/>
<text text-anchor="middle" x="555.09" y="-87" font-family="Helvetica,sans-Serif" font-size="10.00" fill="#ffffff">svgen.entry</text>
</g>
<!-- svgen_app&#45;&gt;svgen_entry -->
<g id="edge1" class="edge">
<title>svgen_app&#45;&gt;svgen_entry</title><style>.edge>path:hover{stroke-width:8}</style>
<path fill="none" stroke="black" d="M555.09,-143.7C555.09,-135.98 555.09,-126.71 555.09,-118.11"/>
<polygon fill="#822b2b" stroke="black" points="558.59,-118.1 555.09,-108.1 551.59,-118.1 558.59,-118.1"/>
</g>
<!-- svgen_attribute -->
<g id="node3" class="node">
<title>svgen_attribute</title><style>.edge>path:hover{stroke-width:8}</style>
<ellipse fill="#f91010" stroke="black" cx="273.09" cy="-1214.69" rx="36.73" ry="22.76"/>
<text text-anchor="middle" x="273.09" y="-1217.69" font-family="Helvetica,sans-Serif" font-size="10.00" fill="#ffffff">svgen.</text>
<text text-anchor="middle" x="273.09" y="-1205.69" font-family="Helvetica,sans-Serif" font-size="10.00" fill="#ffffff">attribute</text>
</g>
<!-- svgen_attribute&#45;&gt;svgen_app -->
<g id="edge2" class="edge">
<title>svgen_attribute&#45;&gt;svgen_app</title><style>.edge>path:hover{stroke-width:8}</style>
<path fill="none" stroke="black" d="M236.17,-1213.55C180.53,-1211.02 79.8,-1196.56 62.09,-1125.95"/>
<path fill="none" stroke="black" d="M62.09,-1123.95C51.69,-1082.46 69.38,-1069.86 62.09,-1027.72"/>
<path fill="none" stroke="black" d="M62.09,-1025.72C55.77,-989.15 23.07,-994.73 11.09,-959.61 -7.36,-905.49 -0.38,-884.66 20.09,-831.27"/>
<path fill="none" stroke="black" d="M20.09,-829.27C37.21,-773.55 23,-754 47.09,-700.93 77.96,-632.95 136.23,-640.41 148.09,-566.71"/>
<path fill="none" stroke="black" d="M148.09,-565.71C149.71,-539.44 112.74,-553.3 101.09,-529.71 88.85,-504.91 84.39,-489.53 101.09,-467.48 166.61,-380.99 280.91,-494.78 336.09,-401.37"/>
<path fill="none" stroke="black" d="M336.09,-399.37C375.2,-331.04 371.09,-307.36 402.09,-235"/>
<path fill="none" stroke="black" d="M402.09,-233C418.2,-191.36 469.61,-174.49 508.43,-167.65"/>
<polygon fill="#f91010" stroke="black" points="509.17,-171.08 518.5,-166.05 508.07,-164.17 509.17,-171.08"/>
</g>
<!-- svgen_cartesian_circle -->
<g id="node7" class="node">
<title>svgen_cartesian_circle</title><style>.edge>path:hover{stroke-width:8}</style>
<ellipse fill="#a13535" stroke="black" cx="62.09" cy="-928.49" rx="41.94" ry="31.23"/>
<text text-anchor="middle" x="62.09" y="-937.49" font-family="Helvetica,sans-Serif" font-size="10.00" fill="#ffffff">svgen.</text>
<text text-anchor="middle" x="62.09" y="-925.49" font-family="Helvetica,sans-Serif" font-size="10.00" fill="#ffffff">cartesian.</text>
<text text-anchor="middle" x="62.09" y="-913.49" font-family="Helvetica,sans-Serif" font-size="10.00" fill="#ffffff">circle</text>
</g>
<!-- svgen_attribute&#45;&gt;svgen_cartesian_circle -->
<g id="edge3" class="edge">
<title>svgen_attribute&#45;&gt;svgen_cartesian_circle</title><style>.edge>path:hover{stroke-width:8}</style>
<path fill="none" stroke="black" d="M62.09,-1025.72C58.96,-1007.59 58.52,-987.25 59.04,-969.95"/>
<polygon fill="#f91010" stroke="black" points="62.55,-969.76 59.47,-959.63 55.56,-969.47 62.55,-969.76"/>
</g>
<!-- svgen_cartesian_point -->
<g id="node10" class="node">
<title>svgen_cartesian_point</title><style>.edge>path:hover{stroke-width:8}</style>
<ellipse fill="#db0505" stroke="black" cx="220.09" cy="-1026.72" rx="41.94" ry="31.23"/>
<text text-anchor="middle" x="220.09" y="-1035.72" font-family="Helvetica,sans-Serif" font-size="10.00" fill="#ffffff">svgen.</text>
<text text-anchor="middle" x="220.09" y="-1023.72" font-family="Helvetica,sans-Serif" font-size="10.00" fill="#ffffff">cartesian.</text>
<text text-anchor="middle" x="220.09" y="-1011.72" font-family="Helvetica,sans-Serif" font-size="10.00" fill="#ffffff">point</text>
</g>
<!-- svgen_attribute&#45;&gt;svgen_cartesian_point -->
<g id="edge4" class="edge">
<title>svgen_attribute&#45;&gt;svgen_cartesian_point</title><style>.edge>path:hover{stroke-width:8}</style>
<path fill="none" stroke="black" d="M62.09,-1123.95C58.8,-1110.81 128.4,-1073.23 176.3,-1049.1"/>
<polygon fill="#f91010" stroke="black" points="177.88,-1052.22 185.26,-1044.62 174.75,-1045.96 177.88,-1052.22"/>
</g>
<!-- svgen_cartesian_rectangle -->
<g id="node11" class="node">
<title>svgen_cartesian_rectangle</title><style>.edge>path:hover{stroke-width:8}</style>
<ellipse fill="#b62020" stroke="black" cx="452.09" cy="-928.49" rx="41.94" ry="31.23"/>
<text text-anchor="middle" x="452.09" y="-937.49" font-family="Helvetica,sans-Serif" font-size="10.00" fill="#ffffff">svgen.</text>
<text text-anchor="middle" x="452.09" y="-925.49" font-family="Helvetica,sans-Serif" font-size="10.00" fill="#ffffff">cartesian.</text>
<text text-anchor="middle" x="452.09" y="-913.49" font-family="Helvetica,sans-Serif" font-size="10.00" fill="#ffffff">rectangle</text>
</g>
<!-- svgen_attribute&#45;&gt;svgen_cartesian_rectangle -->
<g id="edge5" class="edge">
<title>svgen_attribute&#45;&gt;svgen_cartesian_rectangle</title><style>.edge>path:hover{stroke-width:8}</style>
<path fill="none" stroke="black" d="M308.99,-1209.01C383.64,-1198.49 551.52,-1170.31 585.09,-1125.95"/>
<path fill="none" stroke="black" d="M585.09,-1123.95C607.65,-1094.15 530.24,-1007.82 484.09,-960.84"/>
<polygon fill="#f91010" stroke="black" points="486.49,-958.3 476.97,-953.66 481.52,-963.23 486.49,-958.3"/>
</g>
<!-- svgen_element -->
<g id="node18" class="node">
<title>svgen_element</title><style>.edge>path:hover{stroke-width:8}</style>
<ellipse fill="#e50505" stroke="black" cx="517.09" cy="-310.63" rx="48.96" ry="18"/>
<text text-anchor="middle" x="517.09" y="-307.63" font-family="Helvetica,sans-Serif" font-size="10.00" fill="#ffffff">svgen.element</text>
</g>
<!-- svgen_attribute&#45;&gt;svgen_element -->
<g id="edge6" class="edge">
<title>svgen_attribute&#45;&gt;svgen_element</title><style>.edge>path:hover{stroke-width:8}</style>
<path fill="none" stroke="black" d="M696.09,-565.71C663.44,-535.53 694.75,-508.29 677.09,-467.48 669.26,-449.37 662.48,-447.6 651.09,-431.48 631.7,-404.02 632.34,-392.54 608.09,-369.25 592.13,-353.92 571.47,-340.45 553.88,-330.39"/>
<polygon fill="#f91010" stroke="black" points="555.44,-327.25 545,-325.45 552.04,-333.37 555.44,-327.25"/>
</g>
<!-- svgen_element_circle -->
<g id="node19" class="node">
<title>svgen_element_circle</title><style>.edge>path:hover{stroke-width:8}</style>
<ellipse fill="#793434" stroke="black" cx="148.09" cy="-498.59" rx="38.37" ry="31.23"/>
<text text-anchor="middle" x="148.09" y="-507.59" font-family="Helvetica,sans-Serif" font-size="10.00" fill="#ffffff">svgen.</text>
<text text-anchor="middle" x="148.09" y="-495.59" font-family="Helvetica,sans-Serif" font-size="10.00" fill="#ffffff">element.</text>
<text text-anchor="middle" x="148.09" y="-483.59" font-family="Helvetica,sans-Serif" font-size="10.00" fill="#ffffff">circle</text>
</g>
<!-- svgen_attribute&#45;&gt;svgen_element_circle -->
<g id="edge7" class="edge">
<title>svgen_attribute&#45;&gt;svgen_element_circle</title><style>.edge>path:hover{stroke-width:8}</style>
<path fill="none" stroke="black" d="M148.09,-565.71C149.43,-557.41 150,-548.45 150.14,-539.88"/>
<polygon fill="#f91010" stroke="black" points="153.64,-539.69 150.11,-529.7 146.64,-539.71 153.64,-539.69"/>
</g>
<!-- svgen_element_line -->
<g id="node20" class="node">
<title>svgen_element_line</title><style>.edge>path:hover{stroke-width:8}</style>
<ellipse fill="#8f3d3d" stroke="black" cx="120.09" cy="-732.04" rx="38.37" ry="31.23"/>
<text text-anchor="middle" x="120.09" y="-741.04" font-family="Helvetica,sans-Serif" font-size="10.00" fill="#ffffff">svgen.</text>
<text text-anchor="middle" x="120.09" y="-729.04" font-family="Helvetica,sans-Serif" font-size="10.00" fill="#ffffff">element.</text>
<text text-anchor="middle" x="120.09" y="-717.04" font-family="Helvetica,sans-Serif" font-size="10.00" fill="#ffffff">line</text>
</g>
<!-- svgen_attribute&#45;&gt;svgen_element_line -->
<g id="edge8" class="edge">
<title>svgen_attribute&#45;&gt;svgen_element_line</title><style>.edge>path:hover{stroke-width:8}</style>
<path fill="none" stroke="black" d="M20.09,-829.27C31.62,-799.22 58.35,-774.32 81.27,-757.39"/>
<polygon fill="#f91010" stroke="black" points="83.4,-760.17 89.51,-751.52 79.34,-754.47 83.4,-760.17"/>
</g>
<!-- svgen_element_rect -->
<g id="node21" class="node">
<title>svgen_element_rect</title><style>.edge>path:hover{stroke-width:8}</style>
<ellipse fill="#822b2b" stroke="black" cx="402.09" cy="-498.59" rx="38.37" ry="31.23"/>
<text text-anchor="middle" x="402.09" y="-507.59" font-family="Helvetica,sans-Serif" font-size="10.00" fill="#ffffff">svgen.</text>
<text text-anchor="middle" x="402.09" y="-495.59" font-family="Helvetica,sans-Serif" font-size="10.00" fill="#ffffff">element.</text>
<text text-anchor="middle" x="402.09" y="-483.59" font-family="Helvetica,sans-Serif" font-size="10.00" fill="#ffffff">rect</text>
</g>
<!-- svgen_attribute&#45;&gt;svgen_element_rect -->
<g id="edge9" class="edge">
<title>svgen_attribute&#45;&gt;svgen_element_rect</title><style>.edge>path:hover{stroke-width:8}</style>
<path fill="none" stroke="black" d="M585.09,-1123.95C618.56,-1090.71 644.36,-1098.59 668.09,-1057.83 778.12,-868.9 823.5,-744.38 696.09,-566.71"/>
<path fill="none" stroke="black" d="M696.09,-565.71C614.62,-490.41 553.03,-568.5 449.09,-529.71 445.62,-528.41 442.14,-526.83 438.72,-525.08"/>
<polygon fill="#f91010" stroke="black" points="440.33,-521.97 429.9,-520.12 436.9,-528.07 440.33,-521.97"/>
</g>
<!-- svgen_element_svg -->
<g id="node22" class="node">
<title>svgen_element_svg</title><style>.edge>path:hover{stroke-width:8}</style>
<ellipse fill="#ac2b2b" stroke="black" cx="402.09" cy="-400.37" rx="38.37" ry="31.23"/>
<text text-anchor="middle" x="402.09" y="-409.37" font-family="Helvetica,sans-Serif" font-size="10.00" fill="#ffffff">svgen.</text>
<text text-anchor="middle" x="402.09" y="-397.37" font-family="Helvetica,sans-Serif" font-size="10.00" fill="#ffffff">element.</text>
<text text-anchor="middle" x="402.09" y="-385.37" font-family="Helvetica,sans-Serif" font-size="10.00" fill="#ffffff">svg</text>
</g>
<!-- svgen_attribute&#45;&gt;svgen_element_svg -->
<g id="edge10" class="edge">
<title>svgen_attribute&#45;&gt;svgen_element_svg</title><style>.edge>path:hover{stroke-width:8}</style>
<path fill="none" stroke="black" d="M696.09,-565.71C657.38,-529.93 624.56,-562.25 583.09,-529.71 557.6,-509.7 569.29,-489.04 545.09,-467.48 516.99,-442.44 477.78,-425.22 447.53,-414.64"/>
<polygon fill="#f91010" stroke="black" points="448.64,-411.33 438.04,-411.44 446.4,-417.96 448.64,-411.33"/>
</g>
<!-- svgen_attribute_style -->
<g id="node4" class="node">
<title>svgen_attribute_style</title><style>.edge>path:hover{stroke-width:8}</style>
<ellipse fill="#b03a3a" stroke="black" cx="497.09" cy="-498.59" rx="38.66" ry="31.23"/>
<text text-anchor="middle" x="497.09" y="-507.59" font-family="Helvetica,sans-Serif" font-size="10.00" fill="#ffffff">svgen.</text>
<text text-anchor="middle" x="497.09" y="-495.59" font-family="Helvetica,sans-Serif" font-size="10.00" fill="#ffffff">attribute.</text>
<text text-anchor="middle" x="497.09" y="-483.59" font-family="Helvetica,sans-Serif" font-size="10.00" fill="#ffffff">style</text>
</g>
<!-- svgen_attribute_style&#45;&gt;svgen_element -->
<g id="edge11" class="edge">
<title>svgen_attribute_style&#45;&gt;svgen_element</title><style>.edge>path:hover{stroke-width:8}</style>
<path fill="none" stroke="black" d="M500.35,-467.3C504.17,-431.82 510.43,-373.56 514.12,-339.27"/>
<polygon fill="#b03a3a" stroke="black" points="517.63,-339.35 515.22,-329.04 510.67,-338.6 517.63,-339.35"/>
</g>
<!-- svgen_attribute_viewbox -->
<g id="node5" class="node">
<title>svgen_attribute_viewbox</title><style>.edge>path:hover{stroke-width:8}</style>
<ellipse fill="#b81414" stroke="black" cx="329.09" cy="-633.82" rx="38.66" ry="31.23"/>
<text text-anchor="middle" x="329.09" y="-642.82" font-family="Helvetica,sans-Serif" font-size="10.00" fill="#ffffff">svgen.</text>
<text text-anchor="middle" x="329.09" y="-630.82" font-family="Helvetica,sans-Serif" font-size="10.00" fill="#ffffff">attribute.</text>
<text text-anchor="middle" x="329.09" y="-618.82" font-family="Helvetica,sans-Serif" font-size="10.00" fill="#ffffff">viewbox</text>
</g>
<!-- svgen_attribute_viewbox&#45;&gt;svgen_app -->
<g id="edge12" class="edge">
<title>svgen_attribute_viewbox&#45;&gt;svgen_app</title><style>.edge>path:hover{stroke-width:8}</style>
<path fill="none" stroke="black" d="M330.1,-602.45C331.05,-591.07 332.82,-578.14 336.09,-566.71"/>
<path fill="none" stroke="black" d="M336.09,-565.71C344.17,-537.46 331.35,-528.59 336.09,-499.59"/>
<path fill="none" stroke="black" d="M336.09,-497.59C342.99,-455.39 314.34,-438.19 336.09,-401.37"/>
</g>
<!-- svgen_attribute_viewbox&#45;&gt;svgen_element_circle -->
<g id="edge13" class="edge">
<title>svgen_attribute_viewbox&#45;&gt;svgen_element_circle</title><style>.edge>path:hover{stroke-width:8}</style>
<path fill="none" stroke="black" d="M298.36,-614.42C291.16,-610.37 283.44,-606.24 276.09,-602.71 237.27,-584.02 211.68,-601.36 186.09,-566.71"/>
</g>
<!-- svgen_attribute_viewbox&#45;&gt;svgen_element_rect -->
<g id="edge14" class="edge">
<title>svgen_attribute_viewbox&#45;&gt;svgen_element_rect</title><style>.edge>path:hover{stroke-width:8}</style>
<path fill="none" stroke="black" d="M336.09,-565.71C340.67,-549.72 352.17,-535.93 364.31,-525.15"/>
<polygon fill="#b81414" stroke="black" points="366.85,-527.58 372.31,-518.5 362.38,-522.19 366.85,-527.58"/>
</g>
<!-- svgen_attribute_viewbox&#45;&gt;svgen_element_svg -->
<g id="edge15" class="edge">
<title>svgen_attribute_viewbox&#45;&gt;svgen_element_svg</title><style>.edge>path:hover{stroke-width:8}</style>
<path fill="none" stroke="black" d="M336.09,-497.59C340.15,-472.8 355.76,-449.45 370.78,-431.96"/>
<polygon fill="#b81414" stroke="black" points="373.53,-434.13 377.6,-424.35 368.32,-429.46 373.53,-434.13"/>
</g>
<!-- svgen_cartesian -->
<g id="node6" class="node">
<title>svgen_cartesian</title><style>.edge>path:hover{stroke-width:8}</style>
<ellipse fill="#e50505" stroke="black" cx="238.09" cy="-928.49" rx="40.01" ry="22.76"/>
<text text-anchor="middle" x="238.09" y="-931.49" font-family="Helvetica,sans-Serif" font-size="10.00" fill="#ffffff">svgen.</text>
<text text-anchor="middle" x="238.09" y="-919.49" font-family="Helvetica,sans-Serif" font-size="10.00" fill="#ffffff">cartesian</text>
</g>
<!-- svgen_cartesian&#45;&gt;svgen_attribute_viewbox -->
<g id="edge16" class="edge">
<title>svgen_cartesian&#45;&gt;svgen_attribute_viewbox</title><style>.edge>path:hover{stroke-width:8}</style>
<path fill="none" stroke="black" d="M224.09,-731.04C232.38,-697.97 262.21,-672.6 287.97,-656.24"/>
<polygon fill="#e50505" stroke="black" points="289.79,-659.23 296.51,-651.04 286.15,-653.25 289.79,-659.23"/>
</g>
<!-- svgen_cartesian&#45;&gt;svgen_element_circle -->
<g id="edge17" class="edge">
<title>svgen_cartesian&#45;&gt;svgen_element_circle</title><style>.edge>path:hover{stroke-width:8}</style>
<path fill="none" stroke="black" d="M232.17,-905.82C223.2,-869.49 208.76,-794.28 224.09,-733.04"/>
<path fill="none" stroke="black" d="M224.09,-731.04C235.33,-689.78 229.93,-677.18 224.09,-634.82"/>
<path fill="none" stroke="black" d="M224.09,-632.82C219.47,-599.24 206.22,-593.97 186.09,-566.71"/>
</g>
<!-- svgen_cartesian&#45;&gt;svgen_element_line -->
<g id="edge18" class="edge">
<title>svgen_cartesian&#45;&gt;svgen_element_line</title><style>.edge>path:hover{stroke-width:8}</style>
<path fill="none" stroke="black" d="M212.83,-910.86C190.05,-894.03 158.58,-865.62 148.09,-831.27"/>
</g>
<!-- svgen_cartesian&#45;&gt;svgen_element_rect -->
<g id="edge19" class="edge">
<title>svgen_cartesian&#45;&gt;svgen_element_rect</title><style>.edge>path:hover{stroke-width:8}</style>
<path fill="none" stroke="black" d="M224.09,-632.82C214.94,-566.44 300.04,-528.83 355.78,-511.49"/>
<polygon fill="#e50505" stroke="black" points="356.9,-514.81 365.47,-508.58 354.89,-508.1 356.9,-514.81"/>
</g>
<!-- svgen_cartesian_circle&#45;&gt;svgen_element_circle -->
<g id="edge20" class="edge">
<title>svgen_cartesian_circle&#45;&gt;svgen_element_circle</title><style>.edge>path:hover{stroke-width:8}</style>
<path fill="none" stroke="black" d="M55.15,-897.77C46.17,-851.85 35.73,-762.56 73.09,-700.93 103.26,-651.17 169.13,-690.48 186.09,-634.82"/>
<path fill="none" stroke="black" d="M186.09,-632.82C194.26,-604.59 203.55,-590.34 186.09,-566.71"/>
<path fill="none" stroke="black" d="M186.09,-565.71C179.41,-556.65 172.98,-546.33 167.36,-536.57"/>
<polygon fill="#a13535" stroke="black" points="170.4,-534.83 162.46,-527.82 164.3,-538.25 170.4,-534.83"/>
</g>
<!-- svgen_cartesian_mutate -->
<g id="node8" class="node">
<title>svgen_cartesian_mutate</title><style>.edge>path:hover{stroke-width:8}</style>
<ellipse fill="#f91010" stroke="black" cx="220.09" cy="-1124.95" rx="41.94" ry="31.23"/>
<text text-anchor="middle" x="220.09" y="-1133.95" font-family="Helvetica,sans-Serif" font-size="10.00" fill="#ffffff">svgen.</text>
<text text-anchor="middle" x="220.09" y="-1121.95" font-family="Helvetica,sans-Serif" font-size="10.00" fill="#ffffff">cartesian.</text>
<text text-anchor="middle" x="220.09" y="-1109.95" font-family="Helvetica,sans-Serif" font-size="10.00" fill="#ffffff">mutate</text>
</g>
<!-- svgen_cartesian_mutate&#45;&gt;svgen_attribute_viewbox -->
<g id="edge21" class="edge">
<title>svgen_cartesian_mutate&#45;&gt;svgen_attribute_viewbox</title><style>.edge>path:hover{stroke-width:8}</style>
<path fill="none" stroke="black" d="M382.09,-1025.72C402.7,-988.24 384.05,-972.22 382.09,-929.49"/>
<path fill="none" stroke="black" d="M382.09,-927.49C380.66,-896.11 364.99,-891.79 357.09,-861.38 342.59,-805.57 350.5,-789.35 338.09,-733.04"/>
<path fill="none" stroke="black" d="M338.09,-731.04C333.56,-713.13 331.26,-692.82 330.12,-675.49"/>
<polygon fill="#f91010" stroke="black" points="333.59,-674.92 329.54,-665.13 326.6,-675.31 333.59,-674.92"/>
</g>
<!-- svgen_cartesian_mutate&#45;&gt;svgen_cartesian_circle -->
<g id="edge22" class="edge">
<title>svgen_cartesian_mutate&#45;&gt;svgen_cartesian_circle</title><style>.edge>path:hover{stroke-width:8}</style>
<path fill="none" stroke="black" d="M193.46,-1100.52C174.16,-1082.31 148.64,-1055.55 132.09,-1027.72"/>
<path fill="none" stroke="black" d="M132.09,-1025.72C119.39,-1004.36 103.17,-981.82 89.54,-963.93"/>
<polygon fill="#f91010" stroke="black" points="91.96,-961.34 83.08,-955.55 86.41,-965.61 91.96,-961.34"/>
</g>
<!-- svgen_cartesian_plane -->
<g id="node9" class="node">
<title>svgen_cartesian_plane</title><style>.edge>path:hover{stroke-width:8}</style>
<ellipse fill="#a13535" stroke="black" cx="408.09" cy="-830.27" rx="41.94" ry="31.23"/>
<text text-anchor="middle" x="408.09" y="-839.27" font-family="Helvetica,sans-Serif" font-size="10.00" fill="#ffffff">svgen.</text>
<text text-anchor="middle" x="408.09" y="-827.27" font-family="Helvetica,sans-Serif" font-size="10.00" fill="#ffffff">cartesian.</text>
<text text-anchor="middle" x="408.09" y="-815.27" font-family="Helvetica,sans-Serif" font-size="10.00" fill="#ffffff">plane</text>
</g>
<!-- svgen_cartesian_mutate&#45;&gt;svgen_cartesian_plane -->
<g id="edge23" class="edge">
<title>svgen_cartesian_mutate&#45;&gt;svgen_cartesian_plane</title><style>.edge>path:hover{stroke-width:8}</style>
<path fill="none" stroke="black" d="M382.09,-927.49C381.21,-908.13 386.08,-887.29 391.83,-869.97"/>
<polygon fill="#f91010" stroke="black" points="395.25,-870.81 395.29,-860.22 388.65,-868.48 395.25,-870.81"/>
</g>
<!-- svgen_cartesian_mutate&#45;&gt;svgen_cartesian_point -->
<g id="edge24" class="edge">
<title>svgen_cartesian_mutate&#45;&gt;svgen_cartesian_point</title><style>.edge>path:hover{stroke-width:8}</style>
<path fill="none" stroke="black" d="M220.09,-1093.76C220.09,-1085.69 220.09,-1076.83 220.09,-1068.3"/>
<polygon fill="#f91010" stroke="black" points="223.59,-1068.13 220.09,-1058.13 216.59,-1068.13 223.59,-1068.13"/>
</g>
<!-- svgen_cartesian_mutate&#45;&gt;svgen_cartesian_rectangle -->
<g id="edge25" class="edge">
<title>svgen_cartesian_mutate&#45;&gt;svgen_cartesian_rectangle</title><style>.edge>path:hover{stroke-width:8}</style>
<path fill="none" stroke="black" d="M382.09,-1025.72C394.07,-1003.94 410.25,-981.38 424.04,-963.58"/>
<polygon fill="#f91010" stroke="black" points="427.16,-965.28 430.58,-955.25 421.65,-960.95 427.16,-965.28"/>
</g>
<!-- svgen_cartesian_mutate&#45;&gt;svgen_element_circle -->
<g id="edge26" class="edge">
<title>svgen_cartesian_mutate&#45;&gt;svgen_element_circle</title><style>.edge>path:hover{stroke-width:8}</style>
<path fill="none" stroke="black" d="M259.25,-1113.33C298.47,-1100.36 356.56,-1074.16 382.09,-1027.72"/>
<path fill="none" stroke="black" d="M382.09,-1025.72C388.07,-1014.84 245.57,-612.61 238.09,-602.71 221.16,-580.27 202.79,-589.32 186.09,-566.71"/>
</g>
<!-- svgen_cartesian_mutate&#45;&gt;svgen_element_line -->
<g id="edge27" class="edge">
<title>svgen_cartesian_mutate&#45;&gt;svgen_element_line</title><style>.edge>path:hover{stroke-width:8}</style>
<path fill="none" stroke="black" d="M132.09,-1025.72C87.78,-951.18 173.41,-914.2 148.09,-831.27"/>
<path fill="none" stroke="black" d="M148.09,-829.27C142.32,-810.66 136.23,-789.91 131.22,-772.46"/>
<polygon fill="#f91010" stroke="black" points="134.52,-771.26 128.4,-762.6 127.79,-773.18 134.52,-771.26"/>
</g>
<!-- svgen_cartesian_mutate&#45;&gt;svgen_element_rect -->
<g id="edge28" class="edge">
<title>svgen_cartesian_mutate&#45;&gt;svgen_element_rect</title><style>.edge>path:hover{stroke-width:8}</style>
<path fill="none" stroke="black" d="M260.56,-1115.95C327.99,-1100.07 460.18,-1057.26 503.09,-959.61 514.22,-934.29 506.39,-924.84 503.09,-897.38 499.51,-867.57 441.04,-664.78 439.09,-634.82"/>
</g>
<!-- svgen_cartesian_plane&#45;&gt;svgen_attribute_viewbox -->
<g id="edge29" class="edge">
<title>svgen_cartesian_plane&#45;&gt;svgen_attribute_viewbox</title><style>.edge>path:hover{stroke-width:8}</style>
<path fill="none" stroke="black" d="M382.2,-805.68C364.96,-787.79 344.36,-761.49 338.09,-733.04"/>
</g>
<!-- svgen_cartesian_point&#45;&gt;svgen_cartesian -->
<g id="edge30" class="edge">
<title>svgen_cartesian_point&#45;&gt;svgen_cartesian</title><style>.edge>path:hover{stroke-width:8}</style>
<path fill="none" stroke="black" d="M225.69,-995.8C227.74,-984.85 230.06,-972.42 232.14,-961.3"/>
<polygon fill="#db0505" stroke="black" points="235.65,-961.62 234.04,-951.14 228.76,-960.33 235.65,-961.62"/>
</g>
<!-- svgen_cartesian_point&#45;&gt;svgen_cartesian_circle -->
<g id="edge31" class="edge">
<title>svgen_cartesian_point&#45;&gt;svgen_cartesian_circle</title><style>.edge>path:hover{stroke-width:8}</style>
<path fill="none" stroke="black" d="M188.12,-1006.25C163.49,-991.25 129.28,-970.41 102.71,-954.23"/>
<polygon fill="#db0505" stroke="black" points="104.38,-951.15 94.02,-948.94 100.74,-957.13 104.38,-951.15"/>
</g>
<!-- svgen_cartesian_point&#45;&gt;svgen_cartesian_plane -->
<g id="edge32" class="edge">
<title>svgen_cartesian_point&#45;&gt;svgen_cartesian_plane</title><style>.edge>path:hover{stroke-width:8}</style>
<path fill="none" stroke="black" d="M344.09,-927.49C355.61,-906.48 370.31,-884.12 382.72,-866.25"/>
<polygon fill="#db0505" stroke="black" points="385.73,-868.06 388.6,-857.87 380,-864.04 385.73,-868.06"/>
</g>
<!-- svgen_cartesian_point&#45;&gt;svgen_cartesian_rectangle -->
<g id="edge33" class="edge">
<title>svgen_cartesian_point&#45;&gt;svgen_cartesian_rectangle</title><style>.edge>path:hover{stroke-width:8}</style>
<path fill="none" stroke="black" d="M258.11,-1013.1C294.16,-1000.74 349.58,-980.73 396.09,-959.61 400.75,-957.49 405.55,-955.16 410.3,-952.75"/>
<polygon fill="#db0505" stroke="black" points="412.04,-955.79 419.3,-948.08 408.81,-949.58 412.04,-955.79"/>
</g>
<!-- svgen_cartesian_point&#45;&gt;svgen_element_circle -->
<g id="edge34" class="edge">
<title>svgen_cartesian_point&#45;&gt;svgen_element_circle</title><style>.edge>path:hover{stroke-width:8}</style>
<path fill="none" stroke="black" d="M170.09,-927.49C162.01,-895.94 177.05,-666.1 186.09,-634.82"/>
</g>
<!-- svgen_cartesian_point&#45;&gt;svgen_element_line -->
<g id="edge35" class="edge">
<title>svgen_cartesian_point&#45;&gt;svgen_element_line</title><style>.edge>path:hover{stroke-width:8}</style>
<path fill="none" stroke="black" d="M201.62,-998.46C190.16,-979.91 176.44,-954.3 170.09,-929.49"/>
<path fill="none" stroke="black" d="M170.09,-927.49C159.21,-885 160.9,-873.23 148.09,-831.27"/>
</g>
<!-- svgen_cartesian_point&#45;&gt;svgen_element_rect -->
<g id="edge36" class="edge">
<title>svgen_cartesian_point&#45;&gt;svgen_element_rect</title><style>.edge>path:hover{stroke-width:8}</style>
<path fill="none" stroke="black" d="M254.72,-1009.12C283.95,-993.11 324.13,-965.94 344.09,-929.49"/>
<path fill="none" stroke="black" d="M344.09,-927.49C371.64,-877.21 341.15,-854.22 357.09,-799.16 379.8,-720.75 437.71,-716.43 439.09,-634.82"/>
<path fill="none" stroke="black" d="M439.09,-632.82C439.37,-599.83 428.69,-563.86 418.73,-537.62"/>
<polygon fill="#db0505" stroke="black" points="421.89,-536.09 414.97,-528.07 415.38,-538.65 421.89,-536.09"/>
</g>
<!-- svgen_cartesian_rectangle&#45;&gt;svgen_attribute_viewbox -->
<g id="edge37" class="edge">
<title>svgen_cartesian_rectangle&#45;&gt;svgen_attribute_viewbox</title><style>.edge>path:hover{stroke-width:8}</style>
<path fill="none" stroke="black" d="M455.97,-897.27C457.24,-886.02 458.47,-873.14 459.09,-861.38 462.14,-803.73 463.9,-785.17 439.09,-733.04"/>
<path fill="none" stroke="black" d="M439.09,-731.04C426.79,-698.41 395.98,-673.08 370.09,-656.61"/>
<polygon fill="#b62020" stroke="black" points="371.89,-653.61 361.53,-651.37 368.23,-659.58 371.89,-653.61"/>
</g>
<!-- svgen_cartesian_rectangle&#45;&gt;svgen_cartesian_plane -->
<g id="edge38" class="edge">
<title>svgen_cartesian_rectangle&#45;&gt;svgen_cartesian_plane</title><style>.edge>path:hover{stroke-width:8}</style>
<path fill="none" stroke="black" d="M439.01,-898.88C434.75,-889.56 429.95,-879.07 425.43,-869.18"/>
<polygon fill="#b62020" stroke="black" points="428.54,-867.57 421.2,-859.94 422.18,-870.49 428.54,-867.57"/>
</g>
<!-- svgen_cartesian_rectangle&#45;&gt;svgen_element_rect -->
<g id="edge39" class="edge">
<title>svgen_cartesian_rectangle&#45;&gt;svgen_element_rect</title><style>.edge>path:hover{stroke-width:8}</style>
<path fill="none" stroke="black" d="M439.09,-731.04C424.01,-691.03 438.37,-677.58 439.09,-634.82"/>
</g>
<!-- svgen_color -->
<g id="node12" class="node">
<title>svgen_color</title><style>.edge>path:hover{stroke-width:8}</style>
<ellipse fill="#d10505" stroke="black" cx="552.09" cy="-633.82" rx="40.25" ry="18"/>
<text text-anchor="middle" x="552.09" y="-630.82" font-family="Helvetica,sans-Serif" font-size="10.00" fill="#ffffff">svgen.color</text>
</g>
<!-- svgen_color&#45;&gt;svgen_attribute_style -->
<g id="edge40" class="edge">
<title>svgen_color&#45;&gt;svgen_attribute_style</title><style>.edge>path:hover{stroke-width:8}</style>
<path fill="none" stroke="black" d="M497.09,-565.71C491.45,-558.24 489.4,-548.83 489.23,-539.47"/>
<polygon fill="#d10505" stroke="black" points="492.73,-539.57 489.7,-529.42 485.73,-539.24 492.73,-539.57"/>
</g>
<!-- svgen_color&#45;&gt;svgen_element_circle -->
<g id="edge41" class="edge">
<title>svgen_color&#45;&gt;svgen_element_circle</title><style>.edge>path:hover{stroke-width:8}</style>
<path fill="none" stroke="black" d="M520.62,-622.31C480.89,-609.06 410.46,-585.61 350.09,-565.71 296.19,-547.93 234.14,-527.65 193.19,-514.29"/>
<polygon fill="#d10505" stroke="black" points="194.1,-510.9 183.5,-511.13 191.93,-517.56 194.1,-510.9"/>
</g>
<!-- svgen_color&#45;&gt;svgen_element_rect -->
<g id="edge42" class="edge">
<title>svgen_color&#45;&gt;svgen_element_rect</title><style>.edge>path:hover{stroke-width:8}</style>
<path fill="none" stroke="black" d="M538.1,-616.86C526.72,-603.67 510.42,-584.33 497.09,-566.71"/>
<path fill="none" stroke="black" d="M497.09,-565.71C492.84,-560.08 464.66,-540.73 440.09,-524.41"/>
<polygon fill="#d10505" stroke="black" points="441.86,-521.38 431.59,-518.79 438,-527.22 441.86,-521.38"/>
</g>
<!-- svgen_color_alpha -->
<g id="node13" class="node">
<title>svgen_color_alpha</title><style>.edge>path:hover{stroke-width:8}</style>
<ellipse fill="#bc2f2f" stroke="black" cx="620.09" cy="-928.49" rx="32.29" ry="31.23"/>
<text text-anchor="middle" x="620.09" y="-937.49" font-family="Helvetica,sans-Serif" font-size="10.00" fill="#ffffff">svgen.</text>
<text text-anchor="middle" x="620.09" y="-925.49" font-family="Helvetica,sans-Serif" font-size="10.00" fill="#ffffff">color.</text>
<text text-anchor="middle" x="620.09" y="-913.49" font-family="Helvetica,sans-Serif" font-size="10.00" fill="#ffffff">alpha</text>
</g>
<!-- svgen_color_hsl -->
<g id="node15" class="node">
<title>svgen_color_hsl</title><style>.edge>path:hover{stroke-width:8}</style>
<ellipse fill="#b42d2d" stroke="black" cx="658.09" cy="-830.27" rx="32.29" ry="31.23"/>
<text text-anchor="middle" x="658.09" y="-839.27" font-family="Helvetica,sans-Serif" font-size="10.00" fill="#ffffff">svgen.</text>
<text text-anchor="middle" x="658.09" y="-827.27" font-family="Helvetica,sans-Serif" font-size="10.00" fill="#ffffff">color.</text>
<text text-anchor="middle" x="658.09" y="-815.27" font-family="Helvetica,sans-Serif" font-size="10.00" fill="#ffffff">hsl</text>
</g>
<!-- svgen_color_alpha&#45;&gt;svgen_color_hsl -->
<g id="edge43" class="edge">
<title>svgen_color_alpha&#45;&gt;svgen_color_hsl</title><style>.edge>path:hover{stroke-width:8}</style>
<path fill="none" stroke="black" d="M631.29,-899.14C635.01,-889.73 639.2,-879.1 643.16,-869.09"/>
<polygon fill="#bc2f2f" stroke="black" points="646.43,-870.34 646.85,-859.75 639.92,-867.76 646.43,-870.34"/>
</g>
<!-- svgen_color_rgb -->
<g id="node17" class="node">
<title>svgen_color_rgb</title><style>.edge>path:hover{stroke-width:8}</style>
<ellipse fill="#b42d2d" stroke="black" cx="576.09" cy="-830.27" rx="32.29" ry="31.23"/>
<text text-anchor="middle" x="576.09" y="-839.27" font-family="Helvetica,sans-Serif" font-size="10.00" fill="#ffffff">svgen.</text>
<text text-anchor="middle" x="576.09" y="-827.27" font-family="Helvetica,sans-Serif" font-size="10.00" fill="#ffffff">color.</text>
<text text-anchor="middle" x="576.09" y="-815.27" font-family="Helvetica,sans-Serif" font-size="10.00" fill="#ffffff">rgb</text>
</g>
<!-- svgen_color_alpha&#45;&gt;svgen_color_rgb -->
<g id="edge44" class="edge">
<title>svgen_color_alpha&#45;&gt;svgen_color_rgb</title><style>.edge>path:hover{stroke-width:8}</style>
<path fill="none" stroke="black" d="M607.37,-899.66C602.9,-889.89 597.8,-878.75 593.04,-868.34"/>
<polygon fill="#bc2f2f" stroke="black" points="596.13,-866.68 588.79,-859.04 589.77,-869.59 596.13,-866.68"/>
</g>
<!-- svgen_color_conversion -->
<g id="node14" class="node">
<title>svgen_color_conversion</title><style>.edge>path:hover{stroke-width:8}</style>
<ellipse fill="#a83838" stroke="black" cx="589.09" cy="-732.04" rx="45.52" ry="31.23"/>
<text text-anchor="middle" x="589.09" y="-741.04" font-family="Helvetica,sans-Serif" font-size="10.00" fill="#ffffff">svgen.</text>
<text text-anchor="middle" x="589.09" y="-729.04" font-family="Helvetica,sans-Serif" font-size="10.00" fill="#ffffff">color.</text>
<text text-anchor="middle" x="589.09" y="-717.04" font-family="Helvetica,sans-Serif" font-size="10.00" fill="#ffffff">conversion</text>
</g>
<!-- svgen_color_conversion&#45;&gt;svgen_color -->
<g id="edge45" class="edge">
<title>svgen_color_conversion&#45;&gt;svgen_color</title><style>.edge>path:hover{stroke-width:8}</style>
<path fill="none" stroke="black" d="M577.79,-701.65C572.83,-688.74 567.04,-673.7 562.22,-661.16"/>
<polygon fill="#a83838" stroke="black" points="565.45,-659.81 558.6,-651.73 558.92,-662.32 565.45,-659.81"/>
</g>
<!-- svgen_color_hsl&#45;&gt;svgen_color -->
<g id="edge46" class="edge">
<title>svgen_color_hsl&#45;&gt;svgen_color</title><style>.edge>path:hover{stroke-width:8}</style>
<path fill="none" stroke="black" d="M661.45,-799.11C663.04,-771.66 661.6,-730.94 644.09,-700.93 631.46,-679.27 608.59,-662.79 588.82,-651.7"/>
<polygon fill="#b42d2d" stroke="black" points="590.47,-648.62 580,-646.99 587.17,-654.79 590.47,-648.62"/>
</g>
<!-- svgen_color_hsl&#45;&gt;svgen_color_conversion -->
<g id="edge47" class="edge">
<title>svgen_color_hsl&#45;&gt;svgen_color_conversion</title><style>.edge>path:hover{stroke-width:8}</style>
<path fill="none" stroke="black" d="M640.14,-804.24C632.37,-793.39 623.12,-780.5 614.65,-768.68"/>
<polygon fill="#b42d2d" stroke="black" points="617.32,-766.4 608.65,-760.32 611.63,-770.48 617.32,-766.4"/>
</g>
<!-- svgen_color_numbers -->
<g id="node16" class="node">
<title>svgen_color_numbers</title><style>.edge>path:hover{stroke-width:8}</style>
<ellipse fill="#db2f2f" stroke="black" cx="620.09" cy="-1026.72" rx="38.65" ry="31.23"/>
<text text-anchor="middle" x="620.09" y="-1035.72" font-family="Helvetica,sans-Serif" font-size="10.00" fill="#ffffff">svgen.</text>
<text text-anchor="middle" x="620.09" y="-1023.72" font-family="Helvetica,sans-Serif" font-size="10.00" fill="#ffffff">color.</text>
<text text-anchor="middle" x="620.09" y="-1011.72" font-family="Helvetica,sans-Serif" font-size="10.00" fill="#ffffff">numbers</text>
</g>
<!-- svgen_color_numbers&#45;&gt;svgen_color_alpha -->
<g id="edge48" class="edge">
<title>svgen_color_numbers&#45;&gt;svgen_color_alpha</title><style>.edge>path:hover{stroke-width:8}</style>
<path fill="none" stroke="black" d="M620.09,-995.54C620.09,-987.47 620.09,-978.61 620.09,-970.07"/>
<polygon fill="#db2f2f" stroke="black" points="623.59,-969.9 620.09,-959.9 616.59,-969.9 623.59,-969.9"/>
</g>
<!-- svgen_color_numbers&#45;&gt;svgen_color_hsl -->
<g id="edge49" class="edge">
<title>svgen_color_numbers&#45;&gt;svgen_color_hsl</title><style>.edge>path:hover{stroke-width:8}</style>
<path fill="none" stroke="black" d="M640.7,-999.99C648.73,-988.37 656.99,-974.03 661.09,-959.61 669.31,-930.78 668.06,-896.83 665.03,-871.09"/>
<polygon fill="#db2f2f" stroke="black" points="668.47,-870.41 663.7,-860.95 661.53,-871.32 668.47,-870.41"/>
</g>
<!-- svgen_color_numbers&#45;&gt;svgen_color_rgb -->
<g id="edge50" class="edge">
<title>svgen_color_numbers&#45;&gt;svgen_color_rgb</title><style>.edge>path:hover{stroke-width:8}</style>
<path fill="none" stroke="black" d="M599.65,-999.95C591.65,-988.31 583.37,-973.98 579.09,-959.61 570.57,-930.98 570.15,-897.15 571.69,-871.41"/>
<polygon fill="#db2f2f" stroke="black" points="575.19,-871.49 572.41,-861.27 568.21,-870.99 575.19,-871.49"/>
</g>
<!-- svgen_color_rgb&#45;&gt;svgen_color -->
<g id="edge51" class="edge">
<title>svgen_color_rgb&#45;&gt;svgen_color</title><style>.edge>path:hover{stroke-width:8}</style>
<path fill="none" stroke="black" d="M556.32,-805.47C547.69,-793.56 538.54,-778.43 534.09,-763.16 524.11,-728.83 533.46,-687.67 541.98,-661.38"/>
<polygon fill="#b42d2d" stroke="black" points="545.35,-662.35 545.29,-651.75 538.73,-660.08 545.35,-662.35"/>
</g>
<!-- svgen_color_rgb&#45;&gt;svgen_color_conversion -->
<g id="edge52" class="edge">
<title>svgen_color_rgb&#45;&gt;svgen_color_conversion</title><style>.edge>path:hover{stroke-width:8}</style>
<path fill="none" stroke="black" d="M580.14,-799.35C581.25,-791.1 582.48,-782.02 583.66,-773.29"/>
<polygon fill="#b42d2d" stroke="black" points="587.14,-773.65 585.01,-763.28 580.2,-772.72 587.14,-773.65"/>
</g>
<!-- svgen_element&#45;&gt;svgen_app -->
<g id="edge53" class="edge">
<title>svgen_element&#45;&gt;svgen_app</title><style>.edge>path:hover{stroke-width:8}</style>
<path fill="none" stroke="black" d="M485.46,-296.87C448.7,-281.03 394,-253.8 402.09,-235"/>
</g>
<!-- svgen_script -->
<g id="node24" class="node">
<title>svgen_script</title><style>.edge>path:hover{stroke-width:8}</style>
<ellipse fill="#913030" stroke="black" cx="555.09" cy="-234" rx="41.91" ry="18"/>
<text text-anchor="middle" x="555.09" y="-231" font-family="Helvetica,sans-Serif" font-size="10.00" fill="#ffffff">svgen.script</text>
</g>
<!-- svgen_element&#45;&gt;svgen_script -->
<g id="edge54" class="edge">
<title>svgen_element&#45;&gt;svgen_script</title><style>.edge>path:hover{stroke-width:8}</style>
<path fill="none" stroke="black" d="M525.72,-292.69C530.48,-283.34 536.49,-271.53 541.84,-261.03"/>
<polygon fill="#e50505" stroke="black" points="545.09,-262.37 546.5,-251.87 538.85,-259.19 545.09,-262.37"/>
</g>
<!-- svgen_element_rect&#45;&gt;svgen_element_svg -->
<g id="edge55" class="edge">
<title>svgen_element_rect&#45;&gt;svgen_element_svg</title><style>.edge>path:hover{stroke-width:8}</style>
<path fill="none" stroke="black" d="M402.09,-467.41C402.09,-459.34 402.09,-450.48 402.09,-441.95"/>
<polygon fill="#822b2b" stroke="black" points="405.59,-441.77 402.09,-431.77 398.59,-441.77 405.59,-441.77"/>
</g>
<!-- svgen_element_svg&#45;&gt;svgen_app -->
<g id="edge56" class="edge">
<title>svgen_element_svg&#45;&gt;svgen_app</title><style>.edge>path:hover{stroke-width:8}</style>
<path fill="none" stroke="black" d="M396.55,-369.42C394.64,-351.92 394.58,-329.78 402.09,-311.63"/>
<path fill="none" stroke="black" d="M402.09,-309.63C414.77,-278.98 388.98,-265.47 402.09,-235"/>
</g>
<!-- svgen_element_svg&#45;&gt;svgen_script -->
<g id="edge57" class="edge">
<title>svgen_element_svg&#45;&gt;svgen_script</title><style>.edge>path:hover{stroke-width:8}</style>
<path fill="none" stroke="black" d="M402.09,-309.63C418.84,-269.14 467.5,-250.52 505.5,-242.02"/>
<polygon fill="#ac2b2b" stroke="black" points="506.31,-245.42 515.4,-239.97 504.9,-238.57 506.31,-245.42"/>
</g>
<!-- svgen_entry&#45;&gt;svgen___main__ -->
<g id="edge58" class="edge">
<title>svgen_entry&#45;&gt;svgen___main__</title><style>.edge>path:hover{stroke-width:8}</style>
<path fill="none" stroke="black" d="M555.09,-71.7C555.09,-63.98 555.09,-54.71 555.09,-46.11"/>
<polygon fill="#b83d3d" stroke="black" points="558.59,-46.1 555.09,-36.1 551.59,-46.1 558.59,-46.1"/>
</g>
<!-- svgen_script&#45;&gt;svgen_app -->
<g id="edge59" class="edge">
<title>svgen_script&#45;&gt;svgen_app</title><style>.edge>path:hover{stroke-width:8}</style>
<path fill="none" stroke="black" d="M555.09,-215.7C555.09,-207.98 555.09,-198.71 555.09,-190.11"/>
<polygon fill="#913030" stroke="black" points="558.59,-190.1 555.09,-180.1 551.59,-190.1 558.59,-190.1"/>
</g>
<!-- vcorelib -->
<g id="node25" class="node">
<title>vcorelib</title><style>.edge>path:hover{stroke-width:8}</style>
<ellipse fill="#3bcece" stroke="black" cx="791.09" cy="-400.37" rx="30.19" ry="18"/>
<text text-anchor="middle" x="791.09" y="-397.37" font-family="Helvetica,sans-Serif" font-size="10.00" fill="#000000">vcorelib</text>
</g>
<!-- vcorelib&#45;&gt;svgen_app -->
<g id="edge60" class="edge">
<title>vcorelib&#45;&gt;svgen_app</title><style>.edge>path:hover{stroke-width:8}</style>
<path fill="none" stroke="black" d="M790.8,-382.21C790.56,-364.52 790.38,-336.14 791.09,-311.63"/>
</g>
<!-- vcorelib&#45;&gt;svgen_script -->
<g id="edge61" class="edge">
<title>vcorelib&#45;&gt;svgen_script</title><style>.edge>path:hover{stroke-width:8}</style>
<path fill="none" stroke="black" d="M782.81,-382.94C769.84,-358.8 742.51,-313.83 707.09,-288 676.12,-265.42 634.71,-251.82 602.93,-244.06"/>
<polygon fill="#3bcece" stroke="black" points="603.51,-240.6 592.97,-241.74 601.92,-247.42 603.51,-240.6"/>
</g>
<!-- vcorelib_dict -->
<g id="node26" class="node">
<title>vcorelib_dict</title><style>.edge>path:hover{stroke-width:8}</style>
<ellipse fill="#3bcece" stroke="black" cx="701.09" cy="-400.37" rx="41.24" ry="18"/>
<text text-anchor="middle" x="701.09" y="-397.37" font-family="Helvetica,sans-Serif" font-size="10.00" fill="#000000">vcorelib.dict</text>
</g>
<!-- vcorelib_dict&#45;&gt;svgen_app -->
<g id="edge62" class="edge">
<title>vcorelib_dict&#45;&gt;svgen_app</title><style>.edge>path:hover{stroke-width:8}</style>
<path fill="none" stroke="black" d="M726.18,-385.94C749.91,-371.38 783.05,-345.6 791.09,-311.63"/>
<path fill="none" stroke="black" d="M791.09,-309.63C812,-221.31 674.69,-183.61 600.44,-169.83"/>
<polygon fill="#3bcece" stroke="black" points="600.87,-166.35 590.41,-168.04 599.64,-173.24 600.87,-166.35"/>
</g>
<!-- vcorelib_dict&#45;&gt;svgen_script -->
<g id="edge63" class="edge">
<title>vcorelib_dict&#45;&gt;svgen_script</title><style>.edge>path:hover{stroke-width:8}</style>
<path fill="none" stroke="black" d="M675.54,-386.08C650.28,-371.46 612.78,-345.49 594.09,-311.63"/>
</g>
<!-- vcorelib_dict_config -->
<g id="node27" class="node">
<title>vcorelib_dict_config</title><style>.edge>path:hover{stroke-width:8}</style>
<ellipse fill="#3db8b8" stroke="black" cx="630.09" cy="-498.59" rx="37.79" ry="31.23"/>
<text text-anchor="middle" x="630.09" y="-507.59" font-family="Helvetica,sans-Serif" font-size="10.00" fill="#000000">vcorelib.</text>
<text text-anchor="middle" x="630.09" y="-495.59" font-family="Helvetica,sans-Serif" font-size="10.00" fill="#000000">dict.</text>
<text text-anchor="middle" x="630.09" y="-483.59" font-family="Helvetica,sans-Serif" font-size="10.00" fill="#000000">config</text>
</g>
<!-- vcorelib_dict_config&#45;&gt;svgen_app -->
<g id="edge64" class="edge">
<title>vcorelib_dict_config&#45;&gt;svgen_app</title><style>.edge>path:hover{stroke-width:8}</style>
<path fill="none" stroke="black" d="M621.87,-467.78C615.75,-448.14 606.36,-422.29 594.09,-401.37"/>
<path fill="none" stroke="black" d="M594.09,-399.37C560.31,-341.73 507.96,-378.81 459.09,-333.25 440.63,-316.04 392.12,-258.19 402.09,-235"/>
</g>
<!-- vcorelib_dict_config&#45;&gt;svgen_script -->
<g id="edge65" class="edge">
<title>vcorelib_dict_config&#45;&gt;svgen_script</title><style>.edge>path:hover{stroke-width:8}</style>
<path fill="none" stroke="black" d="M594.09,-399.37C574.37,-365.73 612.93,-345.77 594.09,-311.63"/>
<path fill="none" stroke="black" d="M594.09,-309.63C585.26,-293.61 575.74,-275.42 568.32,-261.01"/>
<polygon fill="#3db8b8" stroke="black" points="571.23,-259.02 563.55,-251.71 565,-262.21 571.23,-259.02"/>
</g>
<!-- vcorelib_script -->
<g id="node28" class="node">
<title>vcorelib_script</title><style>.edge>path:hover{stroke-width:8}</style>
<ellipse fill="#53b6b6" stroke="black" cx="660.09" cy="-310.63" rx="37.79" ry="22.76"/>
<text text-anchor="middle" x="660.09" y="-313.63" font-family="Helvetica,sans-Serif" font-size="10.00" fill="#000000">vcorelib.</text>
<text text-anchor="middle" x="660.09" y="-301.63" font-family="Helvetica,sans-Serif" font-size="10.00" fill="#000000">script</text>
</g>
<!-- vcorelib_script&#45;&gt;svgen_script -->
<g id="edge66" class="edge">
<title>vcorelib_script&#45;&gt;svgen_script</title><style>.edge>path:hover{stroke-width:8}</style>
<path fill="none" stroke="black" d="M636.53,-292.88C620.98,-281.83 600.51,-267.28 583.98,-255.53"/>
<polygon fill="#53b6b6" stroke="black" points="585.92,-252.61 575.74,-249.67 581.86,-258.32 585.92,-252.61"/>
</g>
</g>
</svg>
